<?xml version="1.0" encoding="UTF-8"?>
<svg id="Layer_1" data-name="Layer 1" xmlns="http://www.w3.org/2000/svg" xmlns:xlink="http://www.w3.org/1999/xlink" viewBox="0 0 672.863 719.399">
  <defs>
    <clipPath id="clippath">
      <rect width="673.64" height="748.842" fill="none"/>
    </clipPath>
    <clipPath id="clippath-1">
      <rect width="673.639" height="748.842" fill="none"/>
    </clipPath>
    <clipPath id="clippath-2">
      <rect x="43.617" y="627.474" width="96.3" height="17.523" fill="none"/>
    </clipPath>
    <clipPath id="clippath-3">
      <rect width="673.639" height="748.842" fill="none"/>
    </clipPath>
    <clipPath id="clippath-4">
      <rect x="218.764" y="259.541" width="48.341" height="25.546" fill="none"/>
    </clipPath>
    <clipPath id="clippath-5">
      <rect x="51.67" y="495.155" width="570.414" height="109.35" fill="none"/>
    </clipPath>
    <clipPath id="clippath-6">
      <rect x="218.764" y="292.537" width="44.562" height="25.546" fill="none"/>
    </clipPath>
    <clipPath id="clippath-7">
      <rect x="218.764" y="324.866" width="161.017" height="25.546" fill="none"/>
    </clipPath>
  </defs>
  <g clip-path="url(#clippath)">
    <rect width="673.639" height="748.842" fill="#1f3845"/>
    <g clip-path="url(#clippath-1)">
      <g opacity=".4">
        <g clip-path="url(#clippath-2)">
          <g>
            <path d="M47.001,641.09c0-1.204.874-2.066,2.111-2.066s2.111.862,2.111,2.066-.874,2.065-2.111,2.065-2.111-.862-2.111-2.065ZM50.804,641.09c0-.982-.698-1.669-1.691-1.669s-1.686.687-1.686,1.669.692,1.668,1.686,1.668,1.691-.687,1.691-1.668ZM48.091,641.09c0-.597.442-1.033,1.038-1.033.443,0,.778.216.942.567l-.386.17c-.113-.21-.295-.335-.551-.335-.352,0-.613.262-.613.631,0,.357.262.618.613.618.261,0,.448-.125.562-.352l.392.17c-.131.301-.466.585-.96.585-.59,0-1.038-.432-1.038-1.021Z" fill="#fffcf7"/>
            <path d="M56.181,640.186c0-.352-.21-.567-.551-.567s-.578.262-.641.692l-.636-.097c.119-.721.602-1.186,1.294-1.186.698,0,1.181.465,1.181,1.141,0,.579-.505,1.203-1.55,2.311h1.578v.596h-2.537v-.42c1.396-1.538,1.861-1.986,1.861-2.47Z" fill="#fffcf7"/>
            <path d="M58.037,641.09c0-1.334.573-2.061,1.441-2.061.863,0,1.442.727,1.442,2.061s-.579,2.061-1.442,2.061c-.868,0-1.441-.727-1.441-2.061ZM60.273,641.09c0-.994-.317-1.465-.795-1.465-.482,0-.794.471-.794,1.465s.312,1.464.794,1.464c.478,0,.795-.465.795-1.464Z" fill="#fffcf7"/>
            <path d="M63.88,640.186c0-.352-.21-.567-.551-.567s-.578.262-.641.692l-.636-.097c.119-.721.602-1.186,1.294-1.186.698,0,1.181.465,1.181,1.141,0,.579-.505,1.203-1.55,2.311h1.578v.596h-2.537v-.42c1.396-1.538,1.861-1.986,1.861-2.47Z" fill="#fffcf7"/>
            <path d="M65.621,641.81c0-.357.136-.692.352-1.045l1.033-1.663h.749l-.931,1.476c.108-.028.222-.045.347-.045.681,0,1.191.522,1.191,1.283,0,.789-.567,1.334-1.379,1.334-.783,0-1.362-.534-1.362-1.34ZM67.716,641.799c0-.442-.295-.737-.727-.737-.454,0-.727.312-.727.737,0,.454.289.761.727.761.432,0,.727-.307.727-.761Z" fill="#fffcf7"/>
            <path d="M71.636,641.708v-2.605h.676v2.589c0,.511.284.834.743.834s.744-.323.744-.834v-2.589h.681v2.605c0,.863-.573,1.442-1.425,1.442-.846,0-1.419-.579-1.419-1.442Z" fill="#fffcf7"/>
            <path d="M77.208,640.545c-.381,0-.658.301-.658.709v1.822h-.642v-3.031h.579l.034.352c.215-.277.539-.431.874-.431.612,0,1.038.46,1.038,1.157v1.953h-.641v-1.907c0-.386-.21-.624-.585-.624Z" fill="#fffcf7"/>
            <path d="M79.739,639.261c0-.222.158-.375.408-.375.244,0,.403.153.403.375s-.159.375-.403.375c-.25,0-.408-.153-.408-.375ZM79.824,640.045h.642v3.031h-.642v-3.031Z" fill="#fffcf7"/>
            <path d="M81.554,640.045h.681l.426,1.277.295,1.141.29-1.141.42-1.277h.681l-1.05,3.031h-.687l-1.056-3.031Z" fill="#fffcf7"/>
            <path d="M85.185,641.56c0-.92.682-1.595,1.618-1.595.908,0,1.583.612,1.589,1.578,0,.107-.006.176-.012.244h-2.56c.091.517.517.812,1.011.812.402,0,.731-.143.959-.482l.505.301c-.357.545-.868.732-1.47.732-.908,0-1.641-.607-1.641-1.59ZM87.768,641.294c-.091-.505-.46-.777-.96-.777-.511,0-.88.306-.981.777h1.941Z" fill="#fffcf7"/>
            <path d="M89.593,640.045h.573l.04.386c.192-.255.465-.42.806-.42.057,0,.103.006.147.012v.618c-.057-.005-.113-.011-.17-.011-.466,0-.755.289-.755.749v1.697h-.642v-3.031Z" fill="#fffcf7"/>
            <path d="M92.062,642.304l.562-.177c.107.341.352.5.613.5.272,0,.465-.153.465-.381,0-.261-.238-.335-.618-.459-.551-.182-.908-.432-.908-.942,0-.522.426-.88,1.038-.88.506,0,.897.278,1.045.743l-.545.176c-.079-.238-.261-.386-.505-.386-.256,0-.432.131-.432.323,0,.239.176.335.545.449.596.182.993.431.993.976,0,.54-.448.903-1.09.903-.59,0-.993-.296-1.163-.846Z" fill="#fffcf7"/>
            <path d="M95.364,641.56c0-.92.681-1.595,1.618-1.595.908,0,1.583.612,1.589,1.578,0,.107-.006.176-.012.244h-2.56c.091.517.517.812,1.011.812.402,0,.731-.143.959-.482l.505.301c-.357.545-.868.732-1.47.732-.908,0-1.641-.607-1.641-1.59ZM97.947,641.294c-.091-.505-.46-.777-.96-.777-.511,0-.88.306-.981.777h1.941Z" fill="#fffcf7"/>
            <path d="M102.08,639.102h.597l.998,2.537,1-2.537h.596l.426,3.974h-.682l-.261-2.531-1.011,2.378h-.142l-1.005-2.378-.261,2.531h-.682l.426-3.974Z" fill="#fffcf7"/>
            <path d="M107.88,643.15c-.602,0-1.096-.387-1.096-1.022,0-.59.46-1.016,1.102-1.016.323,0,.596.107.789.289v-.261c0-.392-.262-.607-.659-.607-.312,0-.602.119-.885.295l-.25-.521c.392-.233.771-.341,1.169-.341.767,0,1.266.442,1.266,1.187v1.924h-.556l-.04-.272c-.204.228-.505.347-.84.347ZM108.68,642.117c0-.318-.255-.522-.636-.522-.374,0-.63.204-.63.522,0,.312.256.527.63.527.381,0,.636-.216.636-.527Z" fill="#fffcf7"/>
            <path d="M110.711,640.045h.573l.04.386c.192-.255.465-.42.806-.42.057,0,.103.006.147.012v.618c-.057-.005-.113-.011-.17-.011-.466,0-.755.289-.755.749v1.697h-.642v-3.031Z" fill="#fffcf7"/>
            <path d="M113.462,638.961h.642v2.373l.988-1.289h.737l-1.056,1.34,1.124,1.691h-.727l-.846-1.288-.222.249v1.039h-.642v-4.115Z" fill="#fffcf7"/>
            <path d="M116.628,641.56c0-.92.682-1.595,1.618-1.595.908,0,1.583.612,1.589,1.578,0,.107-.006.176-.012.244h-2.56c.091.517.517.812,1.011.812.402,0,.731-.143.959-.482l.505.301c-.357.545-.868.732-1.47.732-.908,0-1.641-.607-1.641-1.59ZM119.211,641.294c-.091-.505-.46-.777-.96-.777-.511,0-.88.306-.981.777h1.941Z" fill="#fffcf7"/>
            <path d="M121.196,642.151v-1.544h-.466v-.557h.153c.335,0,.397-.068.397-.438v-.192h.533v.624h.642v.562h-.618v1.492c0,.347.113.426.414.426.073,0,.136-.006.198-.017v.596c-.102.012-.221.022-.335.022-.618,0-.919-.317-.919-.976Z" fill="#fffcf7"/>
            <path d="M123.607,639.261c0-.222.158-.375.408-.375.244,0,.403.153.403.375s-.159.375-.403.375c-.25,0-.408-.153-.408-.375ZM123.692,640.045h.642v3.031h-.642v-3.031Z" fill="#fffcf7"/>
            <path d="M127.051,640.545c-.381,0-.658.301-.658.709v1.822h-.642v-3.031h.579l.034.352c.215-.277.539-.431.874-.431.612,0,1.038.46,1.038,1.157v1.953h-.641v-1.907c0-.386-.211-.624-.585-.624Z" fill="#fffcf7"/>
            <path d="M129.541,643.689l.341-.511c.397.323.794.459,1.215.459.607,0,.987-.357.987-.925v-.147c-.267.272-.642.432-1.062.432-.886,0-1.544-.636-1.544-1.511s.652-1.521,1.544-1.521c.438,0,.817.17,1.078.454l.034-.375h.597v2.64c0,.948-.653,1.532-1.635,1.532-.54,0-1.09-.164-1.556-.527ZM132.084,641.486c0-.539-.42-.947-.987-.947s-.982.402-.982.947c0,.551.414.96.982.96s.987-.409.987-.96Z" fill="#fffcf7"/>
          </g>
        </g>
      </g>
    </g>
    <g>
      <path d="M213.6,109.908h7.055v34.797h15.531v6.699h-22.586v-41.496Z" fill="#fffcf7"/>
      <path d="M237.312,135.577c0-9.604,7.114-16.658,16.896-16.658,9.484,0,16.539,6.402,16.599,16.48,0,1.126-.06,1.838-.119,2.549h-26.735c.948,5.395,5.395,8.477,10.552,8.477,4.209,0,7.647-1.482,10.019-5.039l5.276,3.142c-3.734,5.691-9.07,7.647-15.354,7.647-9.485,0-17.133-6.343-17.133-16.598ZM264.285,132.79c-.948-5.276-4.802-8.121-10.018-8.121-5.336,0-9.188,3.201-10.256,8.121h20.273Z" fill="#fffcf7"/>
      <path d="M276.853,141.742v-16.125h-4.86v-5.81h1.601c3.497,0,4.149-.711,4.149-4.564v-2.016h5.572v6.521h6.699v5.869h-6.462v15.591c0,3.616,1.186,4.446,4.327,4.446.771,0,1.423-.06,2.075-.178v6.225c-1.067.119-2.312.237-3.498.237-6.461,0-9.604-3.32-9.604-10.196Z" fill="#fffcf7"/>
      <path d="M294.044,109.908h6.225v15.176h-6.225v-15.176Z" fill="#fffcf7"/>
      <path d="M303.115,143.343l5.868-1.838c1.127,3.557,3.676,5.217,6.402,5.217,2.846,0,4.861-1.601,4.861-3.972,0-2.727-2.489-3.498-6.462-4.802-5.75-1.897-9.484-4.505-9.484-9.841,0-5.454,4.446-9.188,10.849-9.188,5.275,0,9.366,2.905,10.907,7.766l-5.691,1.837c-.829-2.49-2.727-4.031-5.275-4.031-2.668,0-4.506,1.363-4.506,3.379,0,2.49,1.838,3.498,5.691,4.683,6.225,1.897,10.374,4.505,10.374,10.196,0,5.631-4.684,9.425-11.382,9.425-6.165,0-10.374-3.083-12.152-8.833Z" fill="#fffcf7"/>
      <path d="M341.765,140.082l6.225-1.778c1.245,5.217,4.387,7.469,8.358,7.469,4.269,0,6.936-2.312,6.936-5.513,0-3.913-3.082-5.513-8.062-7.232-8.003-2.845-11.856-6.106-11.856-12.39,0-6.817,5.454-11.5,13.22-11.5,6.817,0,11.915,3.794,13.575,10.73l-6.165,1.601c-1.245-4.209-3.913-5.987-7.232-5.987-3.972,0-6.402,2.075-6.402,5.098,0,3.379,2.549,4.742,7.41,6.343,7.943,2.786,12.508,6.58,12.508,13.042,0,7.292-5.69,12.211-13.931,12.211-7.232,0-12.923-4.209-14.583-12.093Z" fill="#fffcf7"/>
      <path d="M377.392,141.742v-16.125h-4.86v-5.81h1.601c3.497,0,4.149-.711,4.149-4.564v-2.016h5.572v6.521h6.699v5.869h-6.462v15.591c0,3.616,1.186,4.446,4.327,4.446.771,0,1.423-.06,2.075-.178v6.225c-1.067.119-2.312.237-3.498.237-6.461,0-9.604-3.32-9.604-10.196Z" fill="#fffcf7"/>
      <path d="M405.017,152.175c-6.284,0-11.441-4.031-11.441-10.67,0-6.165,4.802-10.611,11.5-10.611,3.379,0,6.225,1.126,8.24,3.023v-2.727c0-4.09-2.727-6.343-6.876-6.343-3.261,0-6.284,1.245-9.248,3.083l-2.608-5.454c4.09-2.431,8.062-3.557,12.212-3.557,8.003,0,13.22,4.624,13.22,12.39v20.096h-5.81l-.415-2.845c-2.135,2.371-5.276,3.616-8.773,3.616ZM413.375,141.386c0-3.319-2.668-5.454-6.64-5.454-3.912,0-6.58,2.134-6.58,5.454,0,3.261,2.668,5.513,6.58,5.513,3.972,0,6.64-2.252,6.64-5.513Z" fill="#fffcf7"/>
      <path d="M426.359,119.749h5.987l.415,4.031c2.016-2.668,4.86-4.387,8.417-4.387.594,0,1.067.059,1.542.118v6.462c-.593-.06-1.186-.119-1.778-.119-4.861,0-7.885,3.023-7.885,7.825v17.725h-6.698v-31.656Z" fill="#fffcf7"/>
      <path d="M449.893,141.742v-16.125h-4.86v-5.81h1.601c3.497,0,4.149-.711,4.149-4.564v-2.016h5.572v6.521h6.699v5.869h-6.462v15.591c0,3.616,1.186,4.446,4.327,4.446.771,0,1.423-.06,2.075-.178v6.225c-1.067.119-2.312.237-3.498.237-6.461,0-9.604-3.32-9.604-10.196Z" fill="#fffcf7"/>
    </g>
    <g>
      <path d="M246.169,157.482l-3.151,17.397h-.799c.084-1.933.126-3.488.168-4.623.042-1.134,0-2.269-.084-3.488-.126-1.219-.252-2.101-.42-2.731-.21-.63-.504-1.261-.967-1.891-.462-.63-.924-1.092-1.471-1.387-.546-.252-1.261-.504-2.227-.798-.967-.252-1.976-.42-3.026-.546-1.05-.084-2.395-.168-4.034-.21l-10.463,47.359c-.589,2.521-.505,4.245.252,5.169.756.967,2.689,1.471,5.757,1.597l-.168,1.051c-3.278-.168-6.556-.252-9.833-.252-3.74,0-7.48.084-11.263.252l.168-1.051c2.438.084,4.329-.378,5.631-1.429,1.303-1.008,2.27-2.773,2.816-5.253l9.287-42.527,1.218-4.917c-2.143.084-3.907.21-5.21.336-1.345.168-2.647.504-3.866.967-1.261.504-2.27,1.05-2.984,1.597-.714.588-1.513,1.513-2.353,2.815-.883,1.303-1.598,2.689-2.228,4.076-.63,1.429-1.471,3.404-2.479,5.883h-.756l4.454-17.397h38.03Z" fill="#388ca6"/>
      <path d="M250.87,192.865c5.169-13.489,10.968-20.213,17.313-20.213,1.303,0,2.438.168,3.32.546.882.378,1.555,1.05,1.933,2.017.378.966.715,1.765.967,2.395.21.63.252,1.723.126,3.236-.126,1.555-.252,2.521-.294,2.941-.084.462-.253,1.471-.547,3.026-.042.252-.042.42-.084.546l-4.454,18.826c-.883,3.992-.631,5.967.756,5.967,1.051,0,2.354-1.093,3.866-3.236s2.479-4.413,2.857-6.85h1.093c-.714,3.824-2.017,6.934-3.992,9.329-1.975,2.395-4.454,3.446-7.438,3.151-1.303-.126-2.312-.798-3.025-1.933-.715-1.134-.883-2.815-.505-4.958l1.051-5.589c.462-2.101,1.093-5.001,1.975-8.699,1.64-7.144,2.521-11.725,2.647-13.784-.084-2.773-.882-4.244-2.395-4.37h-.589c-2.396.336-5.295,3.53-8.698,9.539-3.404,6.051-6.22,12.901-8.447,20.507l-.504,2.312c-.378,1.765-.588,3.025-.546,3.74,0,.714.168,1.219.462,1.429.294.252.925.546,1.891.882l-.084.756c-3.445-.168-5.589-.252-6.387-.252-.757,0-2.9.084-6.43.252l.084-.756c.714-.21,1.177-.378,1.387-.42s.504-.21.925-.42c.42-.21.672-.42.756-.588.084-.168.252-.504.505-.967.21-.462.42-.966.546-1.471s.294-1.219.504-2.185c1.555-6.766,4.497-20.297,8.867-40.594.63-2.396.798-4.455.462-6.136-.336-1.639-1.345-2.479-3.025-2.479l.252-.883h10.422l-7.522,35.383Z" fill="#388ca6"/>
      <path d="M286.568,206.733c-.336,1.387-.504,2.521-.504,3.404-.042.924.084,1.555.294,1.933.21.378.546.588.925.588,1.093,0,2.395-1.092,3.908-3.235,1.513-2.144,2.521-4.413,2.983-6.85h1.093c-.757,3.824-2.144,6.934-4.118,9.329-1.976,2.396-4.497,3.446-7.48,3.152-1.303-.126-2.27-.798-2.983-1.933-.715-1.135-.841-2.773-.463-4.917l1.093-5.547,5.001-21.222c.294-1.261.504-2.311.546-3.194.042-.882-.042-1.513-.21-1.891-.168-.378-.42-.546-.756-.546-.841,0-1.934,1.008-3.32,3.025s-2.479,4.244-3.235,6.64h-1.177c.546-1.555,1.051-2.857,1.513-3.992s1.009-2.269,1.723-3.446c.715-1.135,1.429-2.059,2.186-2.773s1.639-1.261,2.689-1.681c1.051-.378,2.186-.546,3.403-.42,1.261.126,2.228.756,2.858,1.891.63,1.134.714,2.773.336,4.917l-6.304,26.769ZM287.493,167.357c-.631-.756-.841-1.681-.631-2.815.211-1.135.757-2.059,1.724-2.815.966-.756,2.017-1.135,3.151-1.135s2.018.378,2.647,1.135.841,1.681.63,2.815c-.21,1.093-.756,2.017-1.723,2.773-.967.798-1.975,1.177-3.109,1.177s-2.06-.378-2.689-1.135Z" fill="#388ca6"/>
      <path d="M308.506,194.168c.546-1.429,1.092-2.815,1.639-4.118.546-1.303,1.261-2.815,2.143-4.623.883-1.765,1.808-3.362,2.774-4.749.966-1.387,2.059-2.731,3.235-4.034,1.135-1.261,2.438-2.227,3.824-2.941,1.387-.715,2.815-1.051,4.286-1.051,6.009,0,7.816,4.917,5.337,14.708l-4.707,18.826c-.336,1.387-.504,2.521-.546,3.446s.084,1.555.294,1.933c.21.378.547.588.925.588,1.093,0,2.396-1.093,3.908-3.236s2.521-4.413,2.983-6.85h1.093c-.757,3.824-2.144,6.934-4.118,9.329-1.976,2.395-4.497,3.446-7.48,3.151-1.303-.126-2.354-.798-3.067-1.933-.757-1.134-.925-2.815-.462-4.958l1.218-5.589c.547-2.689,1.388-6.304,2.438-10.842,1.471-6.388,2.27-10.506,2.312-12.313-.042-2.395-.799-3.614-2.27-3.698h-.588c-1.597.21-3.53,1.891-5.799,5-2.312,3.152-4.539,7.102-6.766,11.851-2.228,4.791-4.034,9.665-5.506,14.666-.084.378-.21.882-.336,1.429s-.252.966-.294,1.261c-.084.294-.168.672-.21,1.05-.042.42-.042.756.042,1.009.042.252.168.504.378.798.168.294.42.504.799.714.378.21.798.42,1.345.63l-.21.756c-3.446-.168-5.548-.252-6.262-.252-.757,0-2.941.084-6.556.252l.168-.756c.967-.294,1.597-.504,1.976-.63.336-.126.714-.42,1.134-.882.379-.462.673-.967.883-1.597.168-.63.42-1.597.757-2.941l5.841-26.054c.799-3.74.631-5.589-.42-5.589-.841,0-1.934,1.008-3.32,2.983-1.387,2.017-2.479,4.245-3.235,6.64h-1.177c.672-1.975,1.303-3.614,1.933-4.958.589-1.303,1.345-2.605,2.27-3.908.883-1.303,1.934-2.227,3.151-2.815,1.219-.546,2.563-.756,4.076-.63,1.303.084,2.27.714,2.984,1.849.672,1.176.756,2.815.294,4.958l-3.109,14.12Z" fill="#388ca6"/>
      <path d="M371.066,207.825c-.462,1.009-.924,1.849-1.345,2.479-.42.672-.966,1.345-1.597,2.017-.672.672-1.471,1.177-2.396,1.471-.924.336-1.975.504-3.193.504-1.471,0-2.899-.714-4.328-2.101s-2.479-2.9-3.152-4.455l-6.892-15.927-1.639,1.387-2.983,14.372c-.126.546-.21,1.008-.252,1.387-.042.42-.126.798-.168,1.093-.042.336-.042.63,0,.924.042.294.084.504.084.672s.084.336.252.504c.168.21.294.336.336.42s.168.168.462.294c.295.126.463.21.547.252.042.042.294.126.672.252.379.126.589.21.715.252l-.084.756c-3.782-.168-6.178-.252-7.145-.252s-3.361.084-7.228.252l.084-.756c1.723-.504,2.731-.882,3.11-1.135.966-.63,1.681-2.017,2.227-4.244.042-.21.126-.462.168-.672l8.363-39.585c.798-3.278,1.05-5.673.798-7.186-.252-1.513-1.261-2.311-3.025-2.437l.168-.883h10.59l-6.976,32.736,12.564-10.253c2.228-1.933,3.151-3.362,2.857-4.287-.168-.546-.84-.798-2.017-.798l.084-.966c2.857.252,5,.378,6.387.378.883,0,2.942-.084,6.178-.294l-.084.882c-1.681.294-3.277.798-4.791,1.513-1.513.756-3.487,2.143-5.967,4.16l-8.783,6.976c1.135,2.983,2.521,6.303,4.203,10.001,1.639,3.74,3.067,6.724,4.244,8.951,1.471,2.815,2.983,4.202,4.496,4.202,1.303,0,2.354-.966,3.151-2.857h1.303Z" fill="#388ca6"/>
      <path d="M379.901,206.733c-.336,1.387-.504,2.521-.504,3.404-.042.924.084,1.555.294,1.933.21.378.546.588.925.588,1.093,0,2.396-1.092,3.908-3.235,1.513-2.144,2.521-4.413,2.983-6.85h1.093c-.757,3.824-2.144,6.934-4.118,9.329-1.976,2.396-4.497,3.446-7.48,3.152-1.303-.126-2.27-.798-2.983-1.933-.715-1.135-.841-2.773-.463-4.917l1.093-5.547,5.001-21.222c.294-1.261.504-2.311.546-3.194.042-.882-.042-1.513-.21-1.891-.168-.378-.42-.546-.756-.546-.841,0-1.934,1.008-3.32,3.025s-2.479,4.244-3.235,6.64h-1.177c.546-1.555,1.051-2.857,1.513-3.992s1.009-2.269,1.723-3.446c.715-1.135,1.429-2.059,2.186-2.773s1.639-1.261,2.689-1.681c1.051-.378,2.186-.546,3.404-.42,1.26.126,2.227.756,2.857,1.891.63,1.134.714,2.773.336,4.917l-6.304,26.769ZM380.826,167.357c-.631-.756-.841-1.681-.631-2.815.211-1.135.757-2.059,1.724-2.815.966-.756,2.017-1.135,3.151-1.135s2.018.378,2.647,1.135.841,1.681.63,2.815c-.21,1.093-.756,2.017-1.723,2.773-.967.798-1.975,1.177-3.109,1.177s-2.06-.378-2.689-1.135Z" fill="#388ca6"/>
      <path d="M401.84,194.168c.546-1.429,1.092-2.815,1.639-4.118.546-1.303,1.261-2.815,2.143-4.623.883-1.765,1.808-3.362,2.774-4.749.966-1.387,2.059-2.731,3.235-4.034,1.135-1.261,2.438-2.227,3.824-2.941,1.387-.715,2.815-1.051,4.286-1.051,6.009,0,7.816,4.917,5.337,14.708l-4.707,18.826c-.336,1.387-.504,2.521-.546,3.446s.084,1.555.294,1.933c.21.378.547.588.925.588,1.093,0,2.396-1.093,3.908-3.236s2.521-4.413,2.983-6.85h1.093c-.757,3.824-2.144,6.934-4.118,9.329-1.976,2.395-4.497,3.446-7.48,3.151-1.303-.126-2.354-.798-3.067-1.933-.757-1.134-.925-2.815-.462-4.958l1.218-5.589c.547-2.689,1.388-6.304,2.438-10.842,1.471-6.388,2.27-10.506,2.312-12.313-.042-2.395-.799-3.614-2.27-3.698h-.588c-1.597.21-3.53,1.891-5.799,5-2.312,3.152-4.539,7.102-6.766,11.851-2.228,4.791-4.034,9.665-5.506,14.666-.084.378-.21.882-.336,1.429s-.252.966-.294,1.261c-.084.294-.168.672-.21,1.05-.042.42-.042.756.042,1.009.042.252.168.504.378.798.168.294.42.504.799.714.378.21.798.42,1.345.63l-.21.756c-3.446-.168-5.548-.252-6.262-.252-.757,0-2.941.084-6.556.252l.168-.756c.967-.294,1.597-.504,1.976-.63.336-.126.714-.42,1.134-.882.379-.462.673-.967.883-1.597.168-.63.42-1.597.757-2.941l5.841-26.054c.799-3.74.631-5.589-.42-5.589-.841,0-1.934,1.008-3.32,2.983-1.387,2.017-2.479,4.245-3.235,6.64h-1.177c.672-1.975,1.303-3.614,1.933-4.958.589-1.303,1.345-2.605,2.27-3.908.883-1.303,1.934-2.227,3.151-2.815,1.219-.546,2.563-.756,4.076-.63,1.303.084,2.27.714,2.984,1.849.672,1.176.756,2.815.294,4.958l-3.109,14.12Z" fill="#388ca6"/>
      <path d="M426.729,217.784c.798-1.135,1.765-1.681,2.899-1.681,1.345,0,2.354.588,3.067,1.723.673,1.135.504,2.396-.462,3.698-.21.294-.505.546-.883.798-.378.294-.672.546-.841.84-.168.294-.252.714-.294,1.303-.084,1.891.673,3.488,2.312,4.791s4.076,1.975,7.354,1.975c2.396,0,4.665-.378,6.85-1.093,2.144-.714,4.119-1.849,5.926-3.446,1.765-1.597,2.941-3.53,3.572-5.757.546-1.807.588-3.278.126-4.413-.505-1.134-1.345-1.975-2.563-2.437-1.219-.462-2.689-.841-4.371-1.135-1.681-.252-3.445-.378-5.294-.378s-3.656-.126-5.379-.336c-1.766-.21-3.32-.462-4.665-.84-1.345-.378-2.354-1.051-3.025-2.06-.673-.966-.841-2.269-.547-3.824.337-2.059,1.387-3.74,3.11-5.127,1.723-1.345,3.866-2.101,6.514-2.269-2.396-1.009-4.119-2.605-5.127-4.791-1.051-2.143-1.261-4.707-.631-7.69.757-3.866,2.605-6.892,5.547-9.035,2.942-2.143,6.808-3.194,11.557-3.194,5.925,0,9.749,1.597,11.473,4.833,1.176-.63,2.101-1.345,2.731-2.143.63-.798.714-1.555.252-2.353-1.177-2.017-1.387-3.782-.673-5.253.757-1.387,1.892-2.059,3.362-2.059.882,0,1.597.294,2.227.84.631.588.967,1.429,1.051,2.521.126,2.017-.63,3.908-2.354,5.631-1.723,1.765-3.739,3.152-6.009,4.118.63,1.807.672,3.908.168,6.346-.799,4.118-2.731,7.312-5.757,9.539-3.067,2.269-6.934,3.488-11.641,3.614-1.219,0-2.059-.042-2.563-.084-2.269.042-4.412.546-6.472,1.471-2.059.967-3.151,2.017-3.361,3.194-.084.462-.042.84.168,1.135.21.294.546.546,1.009.672.462.168,1.009.294,1.555.378s1.261.126,2.144.126,1.681,0,2.437-.042c.715-.042,1.64-.042,2.773-.084,1.093-.042,2.06-.042,2.858-.042.924,0,1.765,0,2.562.042.799.042,1.64.126,2.521.21.883.126,1.682.252,2.354.462.673.21,1.387.42,2.144.714.714.294,1.345.672,1.807,1.051.462.42.925.924,1.387,1.471.462.588.799,1.261.925,1.975s.252,1.555.336,2.479c.084.924,0,1.933-.294,3.067-.925,4.749-3.278,8.531-7.06,11.262-3.782,2.731-8.405,4.118-13.826,4.118-4.496,0-7.984-.966-10.464-2.899-2.479-1.891-3.739-4.707-3.739-8.363,0-1.218.42-2.437,1.219-3.572ZM444.462,177.779c-1.85,2.017-3.11,4.833-3.824,8.446-.673,3.572-.546,6.388.378,8.363.883,2.017,2.563,3.025,5.043,3.025,3.067,0,5.547-1.093,7.354-3.236,1.808-2.143,3.026-4.875,3.656-8.152.715-3.656.547-6.472-.504-8.446-1.051-1.975-2.857-2.984-5.421-2.984-2.647,0-4.875,1.009-6.682,2.984Z" fill="#388ca6"/>
      <path d="M469.419,212.657c-.631-.798-.883-1.723-.673-2.857.21-1.092.757-2.017,1.724-2.815.924-.756,1.933-1.135,3.025-1.135,1.135,0,1.975.378,2.563,1.135.588.756.756,1.681.546,2.815-.21,1.135-.798,2.059-1.681,2.857-.883.799-1.891,1.219-2.983,1.219-1.051,0-1.892-.42-2.521-1.219Z" fill="#388ca6"/>
    </g>
    <g clip-path="url(#clippath-3)">
      <g opacity=".4">
        <g clip-path="url(#clippath-4)">
          <g>
            <path d="M222.829,273.057h1.221l3.386,5.491v-5.491h1.436v8.374h-1.197l-3.421-5.503v5.503h-1.424v-8.374Z" fill="#fffcf7"/>
            <path d="M232.242,281.587c-1.268,0-2.309-.813-2.309-2.153,0-1.244.969-2.141,2.321-2.141.682,0,1.256.227,1.663.61v-.55c0-.826-.551-1.28-1.389-1.28-.657,0-1.268.251-1.865.622l-.527-1.101c.826-.49,1.627-.718,2.465-.718,1.615,0,2.668.933,2.668,2.5v4.056h-1.173l-.083-.574c-.432.479-1.065.729-1.771.729ZM233.929,279.41c0-.67-.539-1.101-1.34-1.101-.79,0-1.328.431-1.328,1.101,0,.658.538,1.112,1.328,1.112.801,0,1.34-.455,1.34-1.112Z" fill="#fffcf7"/>
            <path d="M236.56,275.043h1.209l.083.706c.442-.586,1.077-.873,1.711-.873.741,0,1.399.383,1.759,1.089.406-.706,1.112-1.089,1.914-1.089,1.112,0,2.069.825,2.069,2.369v4.187h-1.352v-4.115c0-.777-.455-1.22-1.065-1.22-.705,0-1.279.55-1.279,1.364v3.972h-1.352v-4.115c0-.777-.455-1.22-1.065-1.22-.693,0-1.28.55-1.28,1.364v3.972h-1.352v-6.388Z" fill="#fffcf7"/>
            <path d="M246.177,278.237c0-1.938,1.436-3.361,3.409-3.361,1.914,0,3.338,1.292,3.35,3.326,0,.227-.012.371-.023.514h-5.396c.191,1.089,1.089,1.711,2.129,1.711.85,0,1.544-.299,2.022-1.017l1.064.634c-.754,1.148-1.83,1.543-3.099,1.543-1.914,0-3.457-1.28-3.457-3.35ZM251.621,277.675c-.191-1.065-.969-1.639-2.021-1.639-1.077,0-1.854.646-2.07,1.639h4.092Z" fill="#fffcf7"/>
          </g>
        </g>
      </g>
      <g opacity=".35">
        <g clip-path="url(#clippath-5)">
          <path d="M110.657,516.878v51.205c0,11.806-8.294,19.941-18.504,19.941s-16.43-6.54-16.43-17.388v-53.758h-18.025v55.033c0,17.892,10.244,30.121,25.532,31.978,1.343.167,2.72.248,4.136.248,1.377,0,2.682-.094,3.901-.248,4.88-.616,8.435-2.241,10.146-3.046,16.323-7.687,21.426-27.029,22.234-30.284-.646,4.568-2.288,11.442-6.844,18.393-1.677,2.554-3.451,4.675-5.133,6.416v6.844c5.672-.051,11.344-.103,17.011-.15v-85.185h-18.025Z" fill="#388ca6"/>
          <path d="M191.924,517.272c-.338-.15-.676-.291-1.022-.428-3.482-1.377-7.366-2.104-11.562-2.104-4.769,0-8.649,1.099-11.288,2.104-.376.146-.732.287-1.057.428-.684.287-1.253.548-1.698.757-16.323,7.686-21.425,27.029-22.234,30.288.646-4.573,2.289-11.446,6.844-18.393,1.673-2.558,3.452-4.68,5.133-6.416v-6.844c-5.672.047-11.344.098-17.015.145v85.189h18.025v-51.209c0-11.806,8.298-19.941,18.508-19.941s16.43,6.54,16.43,17.388v53.763h18.025v-55.038c0-14.351-6.591-25.057-17.088-29.69" fill="#388ca6"/>
          <rect x="217.983" y="516.812" width="18.026" height="85.185" fill="#388ca6"/>
          <path d="M493.772,551.35c-10.368-3.191-15.313-5.903-15.313-12.606,0-5.424,4.945-9.09,12.127-9.09,6.857,0,11.964,4.145,14.197,10.848l15.313-4.945c-2.737-8.636-8.461-14.975-16.121-18.286-.342-.15-.685-.291-1.035-.428-3.683-1.433-7.785-2.185-12.196-2.185-4.761,0-9.115.765-12.93,2.185-.363.137-.727.278-1.082.428-9.363,3.896-15.18,11.883-15.18,22.114,0,14.355,10.052,21.374,25.523,26.477,10.69,3.512,17.388,5.586,17.388,12.922,0,6.382-5.423,10.689-13.08,10.689-7.336,0-14.197-4.466-17.229-14.039l-15.792,4.945c3.289,10.633,9.667,17.879,18.718,21.37.39.15.783.291,1.181.428,3.823,1.305,8.101,1.972,12.802,1.972s8.995-.689,12.815-1.972c.407-.137.805-.278,1.197-.428,10.21-3.867,16.618-12.161,16.618-22.965,0-15.313-11.168-22.332-27.919-27.435" fill="#388ca6"/>
          <path d="M543.955,551.987c2.87-13.243,13.238-21.858,27.593-21.858,14.039,0,24.407,7.661,26.961,21.858h-54.554ZM616.055,559.006c-.124-20.925-11.451-35.96-28.343-41.735-.432-.15-.868-.295-1.309-.428-4.645-1.437-9.688-2.186-15.014-2.186-5.27,0-10.253.761-14.851,2.186-.44.137-.881.278-1.313.428-17.635,6.048-29.3,22.041-29.3,42.214,0,21.537,12.538,36.661,30.177,42.265.471.149.945.295,1.424.428,4.555,1.3,9.432,1.972,14.5,1.972,5.689,0,11.091-.594,16.134-1.972.496-.133.993-.278,1.48-.428,9.32-2.866,17.366-8.525,23.701-18.179l-14.197-8.456c-6.377,9.573-15.634,13.559-26.956,13.559-13.88,0-25.844-8.294-28.398-22.812h71.946c.159-1.912.317-3.828.317-6.857" fill="#388ca6"/>
          <path d="M332.424,551.987c2.87-13.243,13.239-21.858,27.593-21.858,14.039,0,24.407,7.661,26.961,21.858h-54.554ZM404.524,559.006c-.124-20.925-11.451-35.96-28.342-41.735-.432-.15-.868-.295-1.309-.428-4.645-1.437-9.688-2.186-15.014-2.186-5.27,0-10.253.761-14.851,2.186-.441.137-.881.278-1.313.428-17.635,6.048-29.3,22.041-29.3,42.214,0,21.537,12.537,36.661,30.177,42.265.471.149.945.295,1.424.428,4.555,1.3,9.432,1.972,14.5,1.972,5.689,0,11.092-.594,16.134-1.972.496-.133.993-.278,1.48-.428,9.32-2.866,17.366-8.525,23.701-18.179l-14.197-8.456c-6.377,9.573-15.634,13.559-26.956,13.559-13.88,0-25.844-8.294-28.398-22.812h71.946c.159-1.912.317-3.828.317-6.857" fill="#388ca6"/>
          <path d="M273.783,601.997c3.346-11.345,3.346-23.414,0-34.758l-14.806-50.203-.075-.224h-19.143l29.671,85.185h4.352Z" fill="#388ca6"/>
          <polygon points="290.97 601.964 319.527 516.812 300.636 516.812 275.561 601.964 290.97 601.964" fill="#388ca6"/>
          <path d="M453.757,514.739c-4.769,0-8.649,1.099-11.293,2.105-.377.145-.732.287-1.056.428-.684.287-1.253.548-1.698.757-16.323,7.686-21.426,27.029-22.234,30.288.645-4.573,2.289-11.446,6.844-18.393,1.672-2.558,3.452-4.68,5.133-6.416v-6.844c-5.672.047-11.344.099-17.015.145v85.189h18.029v-51.209c0-11.806,8.294-19.941,18.504-19.941,2.712,0,5.137.466,7.246,1.348v-17.362c-.809-.056-1.626-.094-2.46-.094" fill="#388ca6"/>
        </g>
      </g>
      <rect x="214.526" y="263.384" width="244.702" height="24.133" rx="3.081" ry="3.081" fill="none" stroke="#388ca6" stroke-miterlimit="10" stroke-width=".483"/>
      <g opacity=".4">
        <g clip-path="url(#clippath-6)">
          <g>
            <path d="M222.829,306.054h4.498v1.328h-3.074v2.142h2.68v1.292h-2.68v2.285h3.206v1.328h-4.63v-8.374Z" fill="#fffcf7"/>
            <path d="M228.343,308.04h1.209l.083.706c.442-.586,1.077-.874,1.711-.874.741,0,1.399.383,1.759,1.088.406-.706,1.112-1.088,1.914-1.088,1.112,0,2.069.826,2.069,2.369v4.187h-1.352v-4.115c0-.778-.455-1.22-1.065-1.22-.705,0-1.279.55-1.279,1.364v3.972h-1.352v-4.115c0-.778-.455-1.22-1.065-1.22-.693,0-1.28.55-1.28,1.364v3.972h-1.352v-6.388Z" fill="#fffcf7"/>
            <path d="M240.328,314.584c-1.268,0-2.309-.813-2.309-2.153,0-1.244.969-2.142,2.321-2.142.682,0,1.256.228,1.663.61v-.551c0-.825-.551-1.28-1.389-1.28-.657,0-1.268.251-1.865.622l-.527-1.101c.826-.491,1.627-.718,2.465-.718,1.615,0,2.668.933,2.668,2.5v4.055h-1.173l-.083-.574c-.432.479-1.065.73-1.771.73ZM242.015,312.406c0-.67-.539-1.101-1.34-1.101-.79,0-1.328.431-1.328,1.101,0,.658.538,1.113,1.328,1.113.801,0,1.34-.455,1.34-1.113Z" fill="#fffcf7"/>
            <path d="M244.466,306.389c0-.466.336-.79.861-.79.515,0,.85.323.85.79s-.335.79-.85.79c-.525,0-.861-.323-.861-.79ZM244.646,308.04h1.352v6.388h-1.352v-6.388Z" fill="#fffcf7"/>
            <path d="M247.337,305.755h1.352v8.673h-1.352v-8.673Z" fill="#fffcf7"/>
          </g>
        </g>
      </g>
      <g opacity=".4">
        <g clip-path="url(#clippath-7)">
          <g>
            <path d="M222.829,338.382h2.8c2.452,0,4.067,1.687,4.067,4.175,0,2.512-1.615,4.199-4.067,4.199h-2.8v-8.374ZM225.568,345.428c1.651,0,2.716-1.125,2.716-2.871,0-1.735-1.064-2.848-2.716-2.848h-1.315v5.719h1.315Z" fill="#fffcf7"/>
            <path d="M230.412,343.562c0-1.938,1.483-3.362,3.457-3.362,1.998,0,3.47,1.423,3.47,3.362s-1.472,3.35-3.47,3.35c-1.974,0-3.457-1.412-3.457-3.35ZM236.011,343.562c0-1.221-.909-2.13-2.142-2.13-1.22,0-2.117.909-2.117,2.13s.897,2.129,2.117,2.129c1.232,0,2.142-.909,2.142-2.129Z" fill="#fffcf7"/>
            <path d="M241.011,341.421c-.802,0-1.389.634-1.389,1.495v3.84h-1.352v-6.388h1.221l.071.742c.455-.586,1.137-.909,1.843-.909,1.292,0,2.189.969,2.189,2.44v4.115h-1.353v-4.02c0-.813-.442-1.316-1.231-1.316Z" fill="#fffcf7"/>
            <path d="M244.49,338.382h1.257v3.062h-1.257v-3.062Z" fill="#fffcf7"/>
            <path d="M247.529,344.806v-3.254h-.981v-1.173h.323c.706,0,.838-.144.838-.921v-.407h1.124v1.316h1.352v1.185h-1.304v3.146c0,.73.239.897.873.897.156,0,.287-.012.419-.036v1.256c-.216.023-.467.048-.706.048-1.304,0-1.938-.67-1.938-2.058Z" fill="#fffcf7"/>
            <path d="M253.402,342.569c0-2.5,1.89-4.343,4.414-4.343s4.426,1.843,4.426,4.343-1.89,4.343-4.426,4.343-4.414-1.843-4.414-4.343ZM260.83,342.569c0-1.747-1.28-3.015-3.015-3.015-1.723,0-3.003,1.268-3.003,3.015s1.28,3.015,3.003,3.015c1.734,0,3.015-1.268,3.015-3.015Z" fill="#fffcf7"/>
            <path d="M262.612,340.368h1.436l.897,2.691.622,2.405.61-2.405.885-2.691h1.436l-2.213,6.388h-1.447l-2.226-6.388Z" fill="#fffcf7"/>
            <path d="M268.604,343.562c0-1.938,1.436-3.362,3.409-3.362,1.914,0,3.338,1.292,3.35,3.326,0,.228-.012.371-.023.515h-5.396c.191,1.088,1.089,1.71,2.13,1.71.849,0,1.543-.299,2.021-1.017l1.064.634c-.754,1.148-1.83,1.543-3.099,1.543-1.914,0-3.457-1.28-3.457-3.35ZM274.047,343c-.191-1.064-.97-1.639-2.022-1.639-1.076,0-1.854.646-2.069,1.639h4.092Z" fill="#fffcf7"/>
            <path d="M276.236,340.368h1.209l.083.813c.407-.538.981-.885,1.699-.885.119,0,.215.012.311.024v1.304c-.119-.012-.239-.023-.358-.023-.981,0-1.592.61-1.592,1.579v3.577h-1.352v-6.388Z" fill="#fffcf7"/>
            <path d="M280.985,344.806v-3.254h-.981v-1.173h.323c.706,0,.837-.144.837-.921v-.407h1.125v1.316h1.352v1.185h-1.304v3.146c0,.73.239.897.873.897.155,0,.287-.012.419-.036v1.256c-.215.023-.467.048-.706.048-1.304,0-1.938-.67-1.938-2.058Z" fill="#fffcf7"/>
            <path d="M287.36,341.421c-.729,0-1.399.55-1.399,1.495v3.84h-1.352v-8.673h1.352v2.943c.479-.551,1.137-.826,1.782-.826,1.292,0,2.189.981,2.189,2.405v4.151h-1.352v-4.032c0-.801-.455-1.304-1.221-1.304Z" fill="#fffcf7"/>
            <path d="M291.019,338.717c0-.466.336-.79.861-.79.515,0,.85.323.85.79s-.335.79-.85.79c-.525,0-.861-.323-.861-.79ZM291.199,340.368h1.352v6.388h-1.352v-6.388Z" fill="#fffcf7"/>
            <path d="M296.605,341.421c-.801,0-1.387.634-1.387,1.495v3.84h-1.353v-6.388h1.221l.071.742c.455-.586,1.137-.909,1.843-.909,1.292,0,2.188.969,2.188,2.44v4.115h-1.352v-4.02c0-.813-.442-1.316-1.232-1.316Z" fill="#fffcf7"/>
            <path d="M300.481,338.083h1.352v5.001l2.081-2.716h1.556l-2.226,2.823,2.369,3.565h-1.531l-1.782-2.715-.467.526v2.189h-1.352v-8.673Z" fill="#fffcf7"/>
            <path d="M305.935,346.026c0-.514.371-.861.909-.861.526,0,.909.347.909.861,0,.503-.383.861-.909.861-.538,0-.909-.358-.909-.861Z" fill="#fffcf7"/>
            <path d="M310.79,344.364l1.34-.335c.145,1.125.646,1.555,1.472,1.555.861,0,1.388-.586,1.388-1.555v-5.646h1.424v5.682c0,1.687-1.076,2.848-2.775,2.848-1.591,0-2.668-.934-2.848-2.548Z" fill="#fffcf7"/>
            <path d="M317.716,344.495v-4.127h1.352v4.031c0,.813.467,1.304,1.232,1.304s1.388-.61,1.388-1.496v-3.84h1.353v6.388h-1.197l-.071-.718c-.467.574-1.137.874-1.83.874-1.316,0-2.226-.957-2.226-2.417Z" fill="#fffcf7"/>
            <path d="M323.877,345.129l1.185-.371c.227.718.741,1.053,1.292,1.053.574,0,.98-.323.98-.802,0-.55-.502-.706-1.304-.969-1.16-.383-1.914-.909-1.914-1.986,0-1.101.897-1.854,2.189-1.854,1.064,0,1.89.586,2.201,1.567l-1.148.371c-.168-.502-.551-.813-1.064-.813-.539,0-.91.275-.91.682,0,.503.371.706,1.148.945,1.257.383,2.094.909,2.094,2.058,0,1.137-.945,1.902-2.297,1.902-1.244,0-2.094-.622-2.452-1.783Z" fill="#fffcf7"/>
            <path d="M329.942,344.806v-3.254h-.981v-1.173h.323c.706,0,.837-.144.837-.921v-.407h1.125v1.316h1.352v1.185h-1.304v3.146c0,.73.239.897.873.897.155,0,.287-.012.419-.036v1.256c-.215.023-.467.048-.706.048-1.304,0-1.938-.67-1.938-2.058Z" fill="#fffcf7"/>
            <path d="M345.767,338.382l-2.093,8.374h-1.292l-.993-3.242-.706-2.477-.693,2.452-1.018,3.266h-1.279l-2.094-8.374h1.459l.838,3.481.515,2.608.777-2.608.993-3.325h1.005l.98,3.302.79,2.655.514-2.632.826-3.481h1.471Z" fill="#fffcf7"/>
            <path d="M346.268,340.368h1.208l.084.813c.407-.538.981-.885,1.699-.885.119,0,.215.012.311.024v1.304c-.119-.012-.239-.023-.358-.023-.981,0-1.591.61-1.591,1.579v3.577h-1.353v-6.388Z" fill="#fffcf7"/>
            <path d="M350.203,338.717c0-.466.336-.79.861-.79.515,0,.85.323.85.79s-.335.79-.85.79c-.525,0-.861-.323-.861-.79ZM350.382,340.368h1.352v6.388h-1.352v-6.388Z" fill="#fffcf7"/>
            <path d="M353.505,344.806v-3.254h-.981v-1.173h.323c.706,0,.838-.144.838-.921v-.407h1.124v1.316h1.352v1.185h-1.304v3.146c0,.73.239.897.873.897.156,0,.287-.012.419-.036v1.256c-.216.023-.467.048-.706.048-1.304,0-1.938-.67-1.938-2.058Z" fill="#fffcf7"/>
            <path d="M356.542,343.562c0-1.938,1.436-3.362,3.409-3.362,1.914,0,3.338,1.292,3.35,3.326,0,.228-.012.371-.023.515h-5.396c.191,1.088,1.089,1.71,2.129,1.71.85,0,1.544-.299,2.022-1.017l1.064.634c-.754,1.148-1.83,1.543-3.099,1.543-1.914,0-3.457-1.28-3.457-3.35ZM361.986,343c-.191-1.064-.969-1.639-2.021-1.639-1.077,0-1.854.646-2.07,1.639h4.092Z" fill="#fffcf7"/>
            <path d="M363.875,346.026c0-.514.37-.861.909-.861.526,0,.909.347.909.861,0,.503-.383.861-.909.861-.539,0-.909-.358-.909-.861Z" fill="#fffcf7"/>
          </g>
        </g>
      </g>
      <rect x="214.526" y="296.381" width="244.702" height="24.133" rx="3.081" ry="3.081" fill="none" stroke="#388ca6" stroke-miterlimit="10" stroke-width=".483"/>
      <rect x="214.526" y="330.003" width="244.702" height="70.141" rx="3.081" ry="3.081" fill="none" stroke="#388ca6" stroke-miterlimit="10" stroke-width=".483"/>
      <path d="M295.708,418.776c-6.589,0-11.931,5.342-11.931,11.931s5.342,11.931,11.931,11.931h82.337c6.589,0,11.931-5.342,11.931-11.931s-5.342-11.931-11.931-11.931h-82.337Z" fill="#388ca6"/>
    </g>
    <g>
      <path d="M309.831,433.339l.634-.184c.217.826.734,1.177,1.369,1.177.727,0,1.202-.393,1.202-.96,0-.676-.576-.968-1.327-1.202-1.002-.326-1.661-.768-1.661-1.695,0-.901.743-1.536,1.812-1.536.876,0,1.603.493,1.861,1.461l-.635.158c-.217-.692-.676-.977-1.21-.977-.685,0-1.127.359-1.127.893,0,.609.467.852,1.202,1.077,1.026.325,1.777.859,1.777,1.794,0,.977-.784,1.636-1.903,1.636-.942,0-1.744-.551-1.994-1.644Z" fill="#fffcf7"/>
      <path d="M314.241,432.671c0-1.335.985-2.312,2.337-2.312,1.269,0,2.279.835,2.287,2.287,0,.117-.008.2-.017.275h-3.939c.108.935.852,1.469,1.678,1.469.65,0,1.235-.242,1.619-.81l.518.351c-.534.768-1.285,1.052-2.137,1.052-1.261,0-2.346-.868-2.346-2.312ZM318.222,432.354c-.117-.935-.793-1.402-1.645-1.402-.893,0-1.535.567-1.661,1.402h3.306Z" fill="#fffcf7"/>
      <path d="M321.421,430.96c-.659,0-1.177.567-1.177,1.302v2.621h-.668v-4.424h.651l.009.609c.325-.451.826-.709,1.36-.709.901,0,1.527.66,1.527,1.686v2.838h-.668v-2.788c0-.701-.384-1.135-1.035-1.135Z" fill="#fffcf7"/>
      <path d="M323.819,432.671c0-1.335.969-2.312,2.271-2.312.726,0,1.344.309,1.753.818v-2.345h.667v6.051h-.643l-.008-.743c-.409.526-1.044.843-1.77.843-1.302,0-2.271-.977-2.271-2.312ZM327.875,432.671c0-.985-.718-1.703-1.703-1.703-.993,0-1.694.709-1.694,1.703,0,1.001.701,1.711,1.694,1.711.985,0,1.703-.734,1.703-1.711Z" fill="#fffcf7"/>
      <path d="M331.886,429.04h.626l1.594,4.098,1.611-4.098h.609l.692,5.843h-.709l-.484-4.298-1.636,3.981h-.176l-1.619-3.998-.484,4.315h-.718l.693-5.843Z" fill="#fffcf7"/>
      <path d="M337.481,432.671c0-1.335.985-2.312,2.337-2.312,1.269,0,2.279.835,2.287,2.287,0,.117-.008.2-.017.275h-3.939c.108.935.852,1.469,1.678,1.469.65,0,1.235-.242,1.619-.81l.518.351c-.534.768-1.285,1.052-2.137,1.052-1.261,0-2.346-.868-2.346-2.312ZM341.462,432.354c-.117-.935-.793-1.402-1.645-1.402-.893,0-1.535.567-1.661,1.402h3.306Z" fill="#fffcf7"/>
      <path d="M342.475,433.773l.593-.201c.175.56.576.843,1.068.843.518,0,.859-.292.859-.701,0-.493-.434-.609-1.019-.801-.793-.275-1.327-.593-1.327-1.335,0-.718.602-1.219,1.444-1.219.718,0,1.285.384,1.485,1.043l-.567.2c-.142-.417-.484-.676-.927-.676-.467,0-.801.25-.801.626,0,.451.334.601.935.793.81.258,1.428.584,1.428,1.377,0,.743-.635,1.26-1.52,1.26-.826,0-1.419-.426-1.652-1.21Z" fill="#fffcf7"/>
      <path d="M345.999,433.773l.593-.201c.175.56.576.843,1.068.843.518,0,.859-.292.859-.701,0-.493-.434-.609-1.019-.801-.793-.275-1.327-.593-1.327-1.335,0-.718.602-1.219,1.444-1.219.718,0,1.285.384,1.485,1.043l-.567.2c-.142-.417-.484-.676-.926-.676-.468,0-.802.25-.802.626,0,.451.334.601.935.793.81.258,1.428.584,1.428,1.377,0,.743-.635,1.26-1.52,1.26-.826,0-1.419-.426-1.652-1.21Z" fill="#fffcf7"/>
      <path d="M351.368,434.983c-.96,0-1.652-.609-1.652-1.502,0-.868.692-1.477,1.661-1.477.518,0,.951.175,1.243.467v-.459c0-.66-.45-1.052-1.118-1.052-.484,0-.927.184-1.353.467l-.292-.551c.534-.351,1.102-.518,1.653-.518,1.076,0,1.777.634,1.777,1.669v2.854h-.593l-.042-.417c-.3.326-.751.518-1.285.518ZM352.62,433.48c0-.567-.45-.926-1.127-.926s-1.118.359-1.118.926.442.935,1.118.935,1.127-.367,1.127-.935Z" fill="#fffcf7"/>
      <path d="M354.067,435.742l.384-.526c.576.5,1.202.743,1.869.743,1.035,0,1.687-.618,1.687-1.611v-.342c-.409.493-1.035.793-1.762.793-1.302,0-2.262-.935-2.262-2.212,0-1.285.96-2.229,2.262-2.229.734,0,1.369.309,1.778.818l.008-.718h.643v3.865c0,1.385-.926,2.245-2.361,2.245-.785,0-1.553-.25-2.245-.826ZM358.006,432.587c0-.926-.718-1.636-1.687-1.636s-1.678.693-1.678,1.636c0,.935.71,1.636,1.678,1.636s1.687-.701,1.687-1.636Z" fill="#fffcf7"/>
      <path d="M359.411,432.671c0-1.335.985-2.312,2.337-2.312,1.269,0,2.279.835,2.287,2.287,0,.117-.008.2-.017.275h-3.939c.108.935.852,1.469,1.678,1.469.65,0,1.235-.242,1.619-.81l.518.351c-.534.768-1.285,1.052-2.137,1.052-1.261,0-2.346-.868-2.346-2.312ZM363.392,432.354c-.117-.935-.793-1.402-1.645-1.402-.893,0-1.535.567-1.661,1.402h3.306Z" fill="#fffcf7"/>
    </g>
  </g>
</svg>