<?xml version="1.0" encoding="UTF-8"?>
<svg id="Layer_1" data-name="Layer 1" xmlns="http://www.w3.org/2000/svg" viewBox="0 0 804.173 346.945">
  <rect width="804.173" height="346.945" fill="#303b30"/>
  <g>
    <path d="M414.196,221.866l-.024-14.079c-.003-1.715-.499-3.369-1.398-4.659-.981-1.407-2.371-2.306-4.02-2.599-.475-.085-.959-.128-1.438-.128-1.737,0-3.381.548-4.753,1.585l-2.329,1.76-.066-2.94-.212.151c-1.295.921-2.716,1.314-4.305,1.698l-.562.136.562.133c.734.173,1.473.725,1.474,1.568l.014,17.457c0,.787-.527,1.211-1.32,1.605l-.529.263,7.133-.011-.765-.267c-.972-.34-1.445-.899-1.446-1.711l-.018-16.147c.961-1.9,2.655-3.209,4.651-3.593.35-.067.703-.101,1.049-.101,2.167,0,4.024,1.329,4.731,3.384.331.965.486,2.011.484,3.29l-.014,13.321c0,.686-.435,1.197-1.329,1.561l-.652.266h6.927s-.586-.264-.586-.264c-.847-.382-1.259-.931-1.26-1.679" fill="#fff5d9"/>
    <path d="M422.185,221.853l-.02-19.741c0-.317.142-.484.476-.553l5.321.009h.019c.179-.031.45-.27.47-.465.004-.04-.002-.1-.055-.159-.104-.117-.355-.17-.46-.17l-5.759-.062v-4.575c0-.898.16-1.857.505-3.019.362-1.22,1.229-2.115,2.318-2.395.294-.076.591-.115.883-.115,2.232,0,3.94,2.199,4.795,4.256l.075.183,2.013-1.849.086-.079-.063-.098c-1.247-1.94-3.407-3.052-5.925-3.052-.148,0-.298.004-.446.011-2.555.133-4.622,1.283-5.819,3.241-.973,1.59-1.494,3.4-1.507,5.232l-.042,2.05c-.136.152-.447.31-.578.31l-2.425-.003.026.742,2.608.004c.132,0,.38.225.38.424l-.013,19.977c0,.708-.444,1.238-1.318,1.574l-.694.267,7.199.004-.695-.268c-.91-.35-1.353-.901-1.354-1.684" fill="#fff5d9"/>
    <path d="M442.843,220.136c-1.419,1.316-3.256,2.041-5.172,2.041-1.134,0-2.235-.252-3.272-.747-3.795-1.814-5.179-6.923-4.87-11.188.076-.178.575-.355.893-.355h14.841s-.013-.151-.013-.151c-.157-1.808-.735-3.628-1.628-5.125-.983-1.647-2.305-2.856-3.825-3.496-1.173-.494-2.392-.747-3.626-.751h-.055c-3.599.011-6.881,2.135-8.564,5.544-2.132,4.317-1.861,9.565.707,13.696,1.786,2.873,4.82,4.589,8.117,4.589.978,0,1.955-.153,2.902-.456,2.767-.883,5.013-3.201,5.863-6.049l.273-.917-.521.802c-.573.881-1.161,1.74-2.049,2.563M433.69,201.612c.755-.408,1.589-.624,2.414-.624,1.604,0,3.077.783,4.039,2.148,1.095,1.558,1.641,3.494,1.621,5.757-.051.098-.283.314-.378.314l-11.112-.011c-.134,0-.464-.128-.552-.214-.064-.062-.101-.329-.052-.613.584-3.398,1.899-5.608,4.021-6.756" fill="#fff5d9"/>
    <path d="M390.022,221.508c-1.059.448-2.129.675-3.179.675-3.065,0-5.649-1.916-6.913-5.127-.799-2.028-1.099-4.257-.918-6.812.16-.18.566-.355.833-.355l14.667-.002-.011-.148c-.18-2.41-1.046-4.656-2.438-6.326-1.505-1.805-3.517-2.844-5.82-3.006-.224-.015-.45-.024-.672-.025h-.055c-3.298.01-6.18,1.654-7.909,4.513-2.902,4.799-2.654,11.024.618,15.491.897,1.225,2.031,2.184,3.369,2.85,1.271.632,2.692.967,4.111.967,2.283,0,4.471-.854,6.159-2.405,1.158-1.062,2.016-2.448,2.55-4.119l.345-1.078-.594.963c-1.266,2.051-2.542,3.267-4.141,3.944M384.549,201.089c.303-.06.61-.091.913-.091,1.599,0,3.079.832,4.059,2.282.929,1.375,1.439,3.119,1.558,5.329.007.136-.048.342-.17.47-.076.081-.165.12-.271.12h0l-10.968-.003c-.125,0-.426-.162-.467-.251-.044-.097-.05-.376-.013-.598.487-2.922,1.812-6.553,5.358-7.259" fill="#fff5d9"/>
    <path d="M368.375,221.698c-.87.309-1.766.466-2.662.466-1.741,0-3.346-.587-4.641-1.697-2.356-2.02-3.592-5.849-3.312-10.249.329-.204.671-.325.924-.325l14.419-.007h.151l-.014-.151c-.23-2.457-1.096-4.713-2.439-6.351-1.49-1.819-3.518-2.85-5.864-2.981-.178-.01-.358-.016-.535-.016h-.056c-1.567.004-3.103.388-4.44,1.109-1.366.737-2.536,1.834-3.385,3.172-2.929,4.622-2.878,10.584.13,15.188,1.779,2.723,4.732,4.347,7.901,4.347,1.625,0,3.233-.443,4.653-1.281,1.966-1.162,3.447-3.124,4.063-5.383l.31-1.138-.565,1.035c-1.173,2.151-2.735,3.585-4.641,4.263M364.291,201.005c.276,0,.555.023.828.068,1.716.284,2.794,1.563,3.396,2.586.791,1.342,1.205,2.969,1.306,5.119.004.073-.044.17-.125.255-.101.106-.229.169-.343.169l-10.977-.005c-.108,0-.411-.171-.444-.251-.04-.097-.045-.359-.012-.572.33-2.128.894-3.646,1.829-4.922,1.122-1.531,2.819-2.445,4.542-2.445" fill="#fff5d9"/>
    <path d="M450.861,221.893l-.006-31.785v-.254l-.213.138c-1.275.826-2.59,1.348-4.265,1.694l-.613.127.61.143c.803.188,1.249.69,1.402,1.577l-.002,28.216c0,.858-.444,1.441-1.358,1.781l-.717.266,7.192.009-.691-.268c-.836-.324-1.187-.755-1.338-1.644" fill="#fff5d9"/>
    <path d="M355.442,202.231c-.88-1.074-2.126-1.666-3.509-1.666-.881,0-1.774.247-2.581.714-1.181.683-2.118,1.644-2.864,2.936l-.203.157c-.049-.047-.115-.129-.124-.157l-.005-3.495-.221.17c-1.401,1.071-2.991,1.484-4.501,1.773l-.718.136.718.135c.957.18,1.494.739,1.598,1.663l-.016,17.342c0,.702-.434,1.227-1.325,1.605l-.623.265,6.826.006-.49-.261c-.604-.321-1.248-.732-1.243-1.547l.098-14.988c.01-1.579,1.731-3.08,2.813-3.655.512-.272,1.05-.41,1.597-.41,1.034,0,2.101.486,3.085,1.406l.111.104,1.646-2.148-.07-.085Z" fill="#fff5d9"/>
    <path d="M473.21,221.851l-.007-31.743v-.258l-.215.142c-1.376.915-2.71,1.476-4.197,1.766l-.681.133.68.139c.767.156,1.187.578,1.32,1.329l-.031,10.23c-.083-.07-.164-.139-.245-.207l-.038-.032c-.965-.817-1.798-1.522-2.92-2.062-1.217-.585-2.52-.882-3.873-.882-2.944,0-5.724,1.439-7.438,3.85-1.59,2.236-2.469,4.89-2.542,7.673-.073,2.793.672,5.5,2.156,7.827,1.759,2.759,4.737,4.406,7.966,4.406,1.484,0,2.983-.358,4.345-1.038l2.544-1.54.047,2.238,4.936-.017-.589-.262c-.867-.386-1.221-.876-1.221-1.692M463.764,223.393c-3.24,0-5.865-2.652-6.852-6.921-.805-3.481-.831-8.835,1.744-12.469,1.23-1.736,3.11-2.731,5.159-2.731.841,0,1.68.166,2.498.493,1.645.66,2.985,1.956,3.776,3.652l.007,14.508c-1.13,1.537-2.615,2.623-4.297,3.145-.694.215-1.379.324-2.035.324" fill="#fff5d9"/>
    <path d="M492.083,217.522c-.062-1.915-.708-3.414-1.976-4.583-1.112-1.026-2.545-1.672-3.935-2.298-.538-.243-1.047-.472-1.538-.722l-2.774-1.415c-1.051-.674-1.73-1.676-1.863-2.748-.155-1.257.212-2.429,1.034-3.299.896-.949,2.177-1.493,3.515-1.493,1.139,0,2.246.392,3.117,1.104,1.519,1.241,2.401,2.91,3.063,4.378l.26.577.034-4.887-.073-.04c-2.047-1.108-4.272-1.719-6.265-1.719-1.18,0-2.275.21-3.255.623-1.619.683-2.878,1.998-3.454,3.608-.557,1.556-.436,3.224.338,4.697.661,1.255,1.755,2.285,3.081,2.899l4.014,1.86c1.114.516,1.915.999,2.598,1.566,1.023.849,1.595,2.03,1.612,3.324.017,1.316-.564,2.588-1.595,3.488-.912.798-2.046,1.22-3.28,1.22-.841,0-1.703-.206-2.492-.595-1.397-.688-2.523-1.778-3.258-3.151l-1.608-3.005-.027,4.953,2.1,1.096c1.622.847,3.418,1.295,5.193,1.295,1.147,0,2.251-.187,3.281-.554,2.655-.946,4.245-3.313,4.152-6.177" fill="#fff5d9"/>
    <path d="M478.618,190.649c-.322-.288-.72-.44-1.15-.44-.701,0-1.37.408-1.703,1.04-.489.927-.431,1.991.151,2.777.338.456.989.683,1.483.707.283.013.478.144.595.4.307.67-.012,1.98-.699,2.86l-1.765,2.263.589-.323c1.957-1.076,3.218-3.73,3.454-5.796.176-1.541-.164-2.78-.955-3.488" fill="#fff5d9"/>
    <path d="M325.715,208.679l.008.146c.01.179.006.36-.011.548v.268h9.992l.01,10.578c-1.15,1.305-2.507,2.257-4.036,2.831-4.935,1.853-9.707-1.215-11.052-2.2-5.261-3.852-5.884-10.53-5.788-14.168.105-3.955,1.335-7.684,3.463-10.499,3.238-4.284,8.547-5.921,13.209-4.071.937.371,1.796.867,2.553,1.473.47.377.901.802,1.281,1.261,1.177,1.424,1.907,3.248,2.111,5.275l.045.388.209-.331c1.083-1.712,2.166-3.424,3.251-5.134l.072-.114-.09-.06s-2.61-1.733-2.63-1.746c-2.711-1.801-5.07-2.837-7.422-3.263-2.426-.439-4.929-.122-7.438.943-2.242.952-4.37,2.468-6.153,4.384-2.658,2.856-4.433,6.461-4.998,10.148-.838,5.468.809,10.993,4.405,14.78.7.737,1.477,1.406,2.31,1.988.074.052.169.129.29.227.962.777,3.217,2.596,7.689,2.596.36,0,.72-.012,1.071-.036,2.845-.19,5.378-1.04,7.48-1.844,1.103-.422,2.294-.838,3.662-.884l.133-.005.02-12.908-.006-.569h-13.641Z" fill="#fff5d9"/>
    <path d="M363.832,236.411h.587v-4.61h-.587v4.61ZM362.504,232.074h3.246v-.56h-3.246v.56ZM368.142,236.411h.497v-2.393c0-.429-.135-.77-.406-1.021-.27-.252-.632-.378-1.084-.378-.238,0-.473.036-.707.108-.233.072-.459.181-.678.325l.244.462c.187-.122.374-.217.56-.287.186-.07.378-.105.573-.105.28,0,.506.078.679.234.173.156.259.372.259.647l-.007.819.056.413-.063.441.077.735ZM367.03,236.495c.261,0,.496-.053.707-.158.21-.105.374-.254.493-.448.119-.193.178-.411.178-.654,0-.238-.059-.451-.175-.64-.117-.189-.279-.336-.486-.441-.207-.105-.444-.158-.71-.158s-.504.053-.717.158-.377.252-.496.441c-.119.189-.178.402-.178.64,0,.243.059.461.178.654.119.194.283.343.493.448.21.105.448.158.714.158M367.134,236.019c-.186,0-.351-.033-.493-.098-.142-.065-.252-.156-.329-.272-.077-.117-.116-.255-.116-.413s.038-.296.116-.413c.077-.116.186-.207.329-.269s.307-.094.493-.094.351.031.494.094c.142.063.253.153.332.269.079.116.119.254.119.413s-.04.296-.119.413c-.079.116-.19.207-.332.272-.142.065-.307.098-.494.098M369.492,236.411h.56v-5.072h-.56v5.072ZM370.969,236.411h.56v-5.072h-.56v5.072ZM374.131,236.495c.378,0,.717-.07,1.018-.21.301-.14.558-.364.773-.672l-.434-.294c-.159.233-.353.405-.584.514-.231.11-.488.165-.773.165-.252,0-.486-.059-.703-.175-.217-.116-.391-.283-.521-.5-.13-.217-.196-.472-.196-.766,0-.28.059-.528.178-.745.119-.217.286-.387.5-.51.215-.124.459-.186.735-.186.266,0,.504.054.713.161.21.108.376.268.497.483.121.215.181.476.181.783,0,.052-.007.126-.021.224h.532c.009-.084.014-.161.014-.231,0-.397-.085-.738-.255-1.025-.17-.287-.4-.507-.689-.661-.289-.154-.613-.231-.972-.231-.373,0-.708.084-1.004.252-.297.168-.53.398-.7.689s-.255.623-.255.997c0,.392.088.735.266,1.028.177.294.416.519.717.675.301.156.629.234.983.234M372.542,234.767h3.169v-.476h-3.169v.476ZM376.628,236.411h.56v-3.708h-.56v3.708ZM376.908,232.074c.112,0,.203-.032.273-.094.07-.063.105-.146.105-.249s-.035-.187-.105-.252c-.07-.065-.163-.098-.28-.098-.112,0-.202.031-.269.095-.068.062-.102.145-.102.248s.034.187.102.252c.068.065.16.098.276.098M379.154,236.495c.247,0,.467-.044.657-.133.191-.088.342-.214.451-.378.11-.163.164-.345.164-.546,0-.21-.05-.387-.15-.532-.1-.144-.235-.263-.405-.357-.17-.093-.384-.182-.64-.266-.191-.06-.34-.118-.448-.171-.108-.054-.19-.119-.249-.196-.058-.077-.087-.176-.087-.297,0-.154.063-.28.189-.378.126-.098.287-.147.482-.147.187,0,.348.05.483.15.135.1.233.239.294.416l.476-.168c-.084-.275-.237-.49-.459-.643s-.484-.231-.787-.231c-.228,0-.435.043-.619.129-.184.086-.329.208-.434.364-.105.156-.157.332-.157.528,0,.201.045.368.136.504.091.136.215.251.374.346.159.096.359.185.602.269.233.075.399.135.496.178.098.045.182.105.252.182.07.077.105.181.105.311,0,.173-.066.314-.199.423-.133.11-.306.164-.521.164-.21,0-.394-.061-.552-.182-.159-.122-.272-.296-.343-.525l-.497.168c.098.331.266.583.504.756.238.173.532.259.881.259M381.001,236.411h.56v-3.708h-.56v3.708ZM381.28,232.074c.112,0,.203-.032.273-.094.07-.063.105-.146.105-.249s-.035-.187-.105-.252c-.071-.065-.164-.098-.28-.098-.112,0-.202.031-.269.095-.068.062-.101.145-.101.248s.034.187.101.252c.068.065.16.098.276.098M382.428,236.411h.56v-3.001l-.028-.707h-.532v3.708ZM384.638,234.005v2.407h.552v-2.428c0-.289-.054-.537-.161-.745-.107-.207-.251-.363-.43-.465-.18-.103-.374-.154-.584-.154-.219,0-.427.057-.623.171-.196.115-.359.285-.49.511-.13.226-.203.496-.217.808h.301c0-.182.04-.347.119-.497.079-.149.187-.268.322-.357.135-.089.284-.133.448-.133.224,0,.407.079.55.238.142.159.213.373.213.644M386.842,234.005v2.407h.56v-2.435c0-.289-.055-.536-.164-.742-.11-.205-.255-.359-.437-.462-.182-.103-.378-.154-.588-.154-.229,0-.443.058-.643.175-.201.117-.363.287-.486.511-.124.224-.188.492-.193.805h.301c0-.182.04-.347.119-.497.079-.149.187-.268.322-.357.135-.089.286-.133.454-.133.224,0,.406.079.546.238.14.159.21.373.21.644M387.955,237.285h.44l.455-1.539h-.671l-.224,1.539ZM392.502,236.495c.313,0,.59-.057.833-.171s.43-.275.563-.483c.133-.207.2-.447.2-.717,0-.373-.132-.681-.395-.924-.264-.243-.629-.436-1.095-.581-.229-.07-.414-.142-.556-.217-.142-.074-.253-.167-.332-.276-.079-.109-.119-.246-.119-.409,0-.144.038-.274.115-.388.077-.114.187-.203.329-.266s.309-.094.5-.094c.238,0,.445.066.62.199.175.133.306.34.395.619l.532-.133c-.107-.397-.3-.7-.577-.909-.278-.21-.605-.315-.983-.315-.299,0-.562.054-.79.161-.229.108-.407.259-.535.455-.128.196-.193.42-.193.671,0,.247.057.461.171.64.114.18.272.33.472.451.201.122.45.231.749.329.364.112.64.244.829.395.189.151.283.356.283.612,0,.154-.042.293-.126.416-.084.124-.203.219-.357.287-.154.068-.329.102-.524.102-.28,0-.52-.08-.721-.241-.201-.161-.343-.409-.427-.745l-.532.154c.102.443.305.783.609,1.021.303.238.657.357,1.063.357M396.482,236.495c.378,0,.717-.07,1.018-.21.301-.14.559-.364.773-.672l-.434-.294c-.159.233-.353.405-.584.514-.231.11-.488.165-.773.165-.252,0-.486-.059-.703-.175-.217-.116-.391-.283-.521-.5-.131-.217-.196-.472-.196-.766,0-.28.059-.528.178-.745.119-.217.286-.387.5-.51.214-.124.459-.186.734-.186.266,0,.504.054.714.161.21.108.375.268.497.483.121.215.182.476.182.783,0,.052-.007.126-.021.224h.532c.009-.084.014-.161.014-.231,0-.397-.085-.738-.255-1.025-.17-.287-.4-.507-.689-.661-.289-.154-.613-.231-.972-.231-.373,0-.708.084-1.004.252-.296.168-.529.398-.7.689-.17.292-.255.623-.255.997,0,.392.088.735.266,1.028.178.294.416.519.717.675.3.156.629.234.983.234M394.894,234.767h3.169v-.476h-3.169v.476ZM399.211,232.437v3.974h.56v-3.505l-.007-.175v-.294c0-.256.043-.433.129-.532.086-.098.244-.147.472-.147.136,0,.25.01.343.028l.007-.462c-.178-.024-.322-.035-.434-.035-.373,0-.645.091-.815.273-.17.182-.255.473-.255.874M398.539,233.186h2.148v-.483h-2.148v.483ZM402.744,236.495c.373,0,.712-.084,1.018-.252.306-.168.545-.399.717-.693.173-.294.259-.623.259-.986,0-.368-.086-.701-.259-.997-.173-.297-.412-.528-.717-.697-.306-.168-.645-.252-1.018-.252s-.712.084-1.018.252c-.306.168-.544.399-.717.693-.173.294-.259.625-.259.993,0,.364.086.694.259.99.173.297.411.528.717.697.306.168.645.252,1.018.252M402.744,235.984c-.275,0-.522-.062-.742-.185-.219-.124-.391-.294-.514-.511-.124-.217-.186-.46-.186-.731s.062-.514.186-.731c.123-.217.295-.388.514-.511.219-.123.466-.185.742-.185s.521.062.738.185c.217.124.388.294.514.511.126.217.189.46.189.731s-.063.514-.189.731c-.126.217-.298.387-.514.511-.217.124-.463.185-.738.185M405.353,236.411h.56v-2.791l-.028-.917h-.532v3.708ZM405.57,234.319h.343c0-.224.043-.419.13-.584.086-.166.21-.295.371-.388.161-.093.348-.14.564-.14.06,0,.121.003.181.007v-.539c-.042-.005-.095-.007-.161-.007-.271,0-.514.072-.731.217-.217.145-.385.342-.507.591-.122.249-.184.531-.189.843M407.676,236.411h.56v-3.708h-.56v3.708ZM407.956,232.074c.112,0,.203-.032.273-.094.07-.063.105-.146.105-.249s-.035-.187-.105-.252c-.07-.065-.163-.098-.28-.098-.112,0-.201.031-.269.095-.068.062-.101.145-.101.248s.034.187.101.252c.068.065.16.098.277.098M409.103,236.411h.56v-3.001l-.028-.707h-.532v3.708ZM411.314,234.005v2.407h.553v-2.428c0-.289-.054-.537-.161-.745-.108-.207-.251-.363-.43-.465-.18-.103-.374-.154-.584-.154-.219,0-.427.057-.623.171-.195.115-.359.285-.49.511-.131.226-.203.496-.217.808h.301c0-.182.04-.347.119-.497.079-.149.187-.268.322-.357.135-.089.284-.133.448-.133.224,0,.407.079.549.238.142.159.213.373.213.644M413.518,234.005v2.407h.559v-2.435c0-.289-.055-.536-.164-.742-.11-.205-.256-.359-.437-.462-.182-.103-.378-.154-.588-.154-.229,0-.443.058-.644.175-.201.117-.363.287-.486.511-.123.224-.187.492-.192.805h.3c0-.182.04-.347.119-.497.079-.149.187-.268.322-.357.135-.089.287-.133.454-.133.224,0,.406.079.546.238.14.159.21.373.21.644M414.63,237.285h.441l.455-1.539h-.672l-.224,1.539ZM418.96,236.495c.303,0,.572-.069.805-.206.233-.138.417-.33.552-.578.136-.247.203-.532.203-.853v-3.344h-.595v3.33c0,.224-.041.419-.122.584-.082.165-.196.293-.343.381-.147.088-.316.133-.507.133-.303,0-.542-.084-.717-.252-.175-.168-.285-.436-.332-.805l-.553.14c.061.471.232.834.514,1.088.282.254.647.381,1.095.381M422.654,236.495c.257,0,.496-.065.717-.195.221-.131.397-.317.528-.56.13-.242.198-.52.203-.833h-.308c0,.201-.045.385-.133.553-.088.168-.209.298-.36.392-.151.093-.318.14-.5.14-.27,0-.482-.085-.637-.255-.154-.17-.231-.4-.231-.689v-2.344h-.56v2.379c0,.284.054.533.161.745.108.212.258.377.451.493.193.117.416.175.668.175M423.816,236.411h.538v-3.708h-.559v2.742l.021.966ZM426.859,236.495c.35,0,.669-.084.958-.252.289-.168.516-.399.682-.693.165-.294.249-.625.249-.994,0-.363-.083-.694-.249-.989-.166-.297-.391-.528-.679-.697-.287-.168-.607-.252-.962-.252-.359,0-.684.084-.976.252-.292.168-.519.399-.682.693-.164.294-.245.625-.245.993s.081.7.245.994c.163.294.39.524.682.693.292.168.617.252.976.252M426.929,235.991c-.271,0-.514-.062-.731-.186-.217-.123-.386-.293-.507-.51-.122-.217-.182-.463-.182-.738s.06-.521.182-.738c.121-.217.29-.386.507-.507.217-.121.461-.182.731-.182s.514.062.731.185c.217.124.387.294.51.511.124.217.186.46.186.731,0,.266-.062.508-.186.728-.123.22-.294.392-.51.518-.217.126-.461.189-.731.189M428.888,236.411v-5.072h-.56v2.483l.028.504v.476l-.021.525.014,1.085h.539ZM432.07,236.411h.497v-2.393c0-.429-.135-.77-.406-1.021-.27-.252-.632-.378-1.084-.378-.238,0-.473.036-.707.108s-.459.181-.679.325l.245.462c.186-.122.373-.217.559-.287.187-.07.378-.105.574-.105.28,0,.506.078.679.234.172.156.259.372.259.647l-.007.819.056.413-.062.441.076.735ZM430.958,236.495c.261,0,.497-.053.706-.158.21-.105.374-.254.494-.448.119-.193.178-.411.178-.654,0-.238-.058-.451-.175-.64-.116-.189-.278-.336-.486-.441-.207-.105-.444-.158-.71-.158s-.505.053-.717.158c-.212.105-.378.252-.496.441-.119.189-.179.402-.179.64,0,.243.06.461.179.654.119.194.283.343.493.448.21.105.448.158.714.158M431.063,236.019c-.187,0-.351-.033-.493-.098-.142-.065-.252-.156-.329-.272-.077-.117-.116-.255-.116-.413s.039-.296.116-.413c.077-.116.187-.207.329-.269.142-.063.306-.094.493-.094s.351.031.493.094c.142.063.252.153.332.269.079.116.119.254.119.413s-.04.296-.119.413c-.08.116-.19.207-.332.272-.143.065-.307.098-.493.098M433.4,236.411h.56v-3.708h-.56v3.708ZM433.68,232.074c.112,0,.203-.032.273-.094.07-.063.105-.146.105-.249s-.035-.187-.105-.252c-.07-.065-.164-.098-.28-.098-.112,0-.201.031-.269.095-.068.062-.101.145-.101.248s.034.187.101.252c.068.065.16.098.277.098M436.527,236.495c.271,0,.521-.042.752-.126.231-.084.434-.205.609-.364s.316-.348.423-.567l-.511-.217c-.116.247-.283.436-.5.567-.217.131-.474.196-.773.196-.261,0-.499-.062-.714-.185-.214-.124-.383-.294-.507-.511-.124-.217-.185-.458-.185-.724,0-.275.062-.521.185-.738.124-.217.293-.388.507-.511.215-.123.452-.185.714-.185.289,0,.541.064.756.193s.382.309.504.542l.49-.217c-.159-.327-.39-.58-.693-.759-.303-.18-.656-.269-1.057-.269-.368,0-.701.084-.997.252-.297.168-.531.4-.703.697-.173.296-.259.628-.259.997,0,.364.086.693.259.986.173.294.407.524.703.693.296.168.628.252.997.252M441.172,236.411h.497v-2.393c0-.429-.136-.77-.406-1.021-.271-.252-.632-.378-1.085-.378-.238,0-.473.036-.707.108-.233.072-.459.181-.678.325l.245.462c.186-.122.373-.217.559-.287.187-.07.378-.105.574-.105.28,0,.506.078.679.234.173.156.259.372.259.647l-.007.819.056.413-.062.441.077.735ZM440.06,236.495c.261,0,.497-.053.706-.158.21-.105.375-.254.493-.448.119-.193.178-.411.178-.654,0-.238-.058-.451-.175-.64-.117-.189-.279-.336-.487-.441-.207-.105-.444-.158-.71-.158s-.505.053-.717.158-.378.252-.497.441c-.119.189-.178.402-.178.64,0,.243.06.461.178.654.119.194.283.343.493.448.21.105.448.158.714.158M440.165,236.019c-.187,0-.351-.033-.493-.098-.142-.065-.252-.156-.329-.272-.077-.117-.116-.255-.116-.413s.039-.296.116-.413c.077-.116.187-.207.329-.269.142-.063.306-.094.493-.094s.351.031.493.094.253.153.333.269c.079.116.119.254.119.413s-.04.296-.119.413c-.08.116-.19.207-.333.272-.142.065-.306.098-.493.098" fill="#deb26b"/>
    <path d="M390.965,168.484l-2.28-8.037-5.232-18.434-1.807-6.379-1.858-6.557c.541-.306,1.081-.615,1.621-.921,2.421-1.374,4.842-2.749,7.265-4.124,2.959-1.678,5.918-3.358,8.874-5.039v-9.333c-3.719,2.112-7.438,4.225-11.157,6.335-2.421,1.377-4.842,2.752-7.262,4.124-2.961,1.683-5.925,3.366-8.887,5.047l1.14,4.025,3.107,10.942,1.945,6.863,4.985,17.576c-2.959,1.678-5.918,3.358-8.876,5.039v9.333c3.719-2.112,7.438-4.225,11.157-6.335l1.774,6.248.023.086h12.052v-8.117h-5.92l-.664-2.342Z" fill="#deb066"/>
    <path d="M429.682,140.132l3.107-10.942,1.14-4.025c-2.961-1.68-5.925-3.363-8.886-5.046-2.421-1.372-4.842-2.747-7.263-4.124-3.719-2.11-7.438-4.222-11.157-6.335v9.333c2.956,1.68,5.915,3.361,8.874,5.039,2.423,1.374,4.844,2.749,7.265,4.124.541.306,1.081.615,1.621.921l-1.858,6.557-1.806,6.379-5.232,18.434-2.281,8.037-.664,2.342h-5.92v8.117h12.052l.022-.086,1.774-6.249c3.719,2.11,7.438,4.222,11.157,6.335v-9.333c-2.959-1.68-5.918-3.361-8.876-5.039l4.985-17.575,1.945-6.863Z" fill="#deb066"/>
    <path d="M410.603,130.154l-2.686,9.484-5.83,20.547-5.83-20.547-2.686-9.484,2.197-1.247c2.107-1.195,4.214-2.391,6.319-3.588,2.105,1.197,4.213,2.393,6.32,3.588l2.197,1.247Z" fill="#fff2d6"/>
    <polygon points="414.394 133.478 411.802 142.626 405.532 164.722 402.073 164.722 408.541 141.928 411.414 131.787 414.394 133.478" fill="#deb066"/>
    <polygon points="400.502 164.677 400.49 164.722 397.499 164.722 392.036 142.625 389.779 133.478 392.375 131.787 394.878 141.928 400.502 164.677" fill="#deb066"/>
  </g>
  <g>
    <path d="M595.172,325.576h.495l1.259,3.236,1.272-3.236h.481l.547,4.614h-.561l-.383-3.395-1.291,3.144h-.139l-1.279-3.158-.382,3.408h-.567l.547-4.614Z" fill="#deb066"/>
    <path d="M601.329,330.269c-.758,0-1.305-.481-1.305-1.187,0-.686.547-1.167,1.312-1.167.408,0,.751.139.981.369v-.362c0-.521-.355-.831-.883-.831-.383,0-.731.145-1.068.369l-.23-.435c.422-.277.87-.409,1.306-.409.851,0,1.403.501,1.403,1.318v2.254h-.468l-.032-.33c-.238.257-.594.409-1.016.409ZM602.317,329.083c0-.448-.355-.731-.89-.731s-.883.283-.883.731.349.738.883.738.89-.29.89-.738Z" fill="#deb066"/>
    <path d="M604.024,326.696h.501l.013.514c.238-.336.601-.547,1.035-.547.053,0,.093,0,.152.006v.507c-.066-.006-.112-.006-.172-.006-.619,0-1.002.416-1.002,1.048v1.971h-.527v-3.494Z" fill="#deb066"/>
    <path d="M606.626,325.411h.527v2.947l1.397-1.661h.606l-1.305,1.549,1.403,1.944h-.605l-1.141-1.602-.356.375v1.226h-.527v-4.779Z" fill="#deb066"/>
    <path d="M609.619,328.443c0-1.055.778-1.826,1.846-1.826,1.002,0,1.8.659,1.807,1.806,0,.092-.007.158-.014.218h-3.111c.086.738.673,1.16,1.325,1.16.514,0,.976-.191,1.279-.64l.408.277c-.422.606-1.016.831-1.688.831-.995,0-1.853-.686-1.853-1.826ZM612.763,328.193c-.093-.738-.626-1.107-1.299-1.107-.705,0-1.213.448-1.312,1.107h2.61Z" fill="#deb066"/>
    <path d="M614.377,329.169v-2.018h-.58v-.448h.271c.323,0,.376-.053.376-.408v-.343h.441v.745h.817v.455h-.798v1.998c0,.481.145.606.561.606.079,0,.158-.006.237-.02v.481c-.112.013-.231.026-.343.026-.673,0-.982-.356-.982-1.074Z" fill="#deb066"/>
    <path d="M616.545,325.78c0-.197.138-.329.355-.329.211,0,.355.132.355.329,0,.191-.145.323-.355.323-.218,0-.355-.132-.355-.323ZM616.637,326.696h.527v3.494h-.527v-3.494Z" fill="#deb066"/>
    <path d="M619.834,327.092c-.521,0-.93.448-.93,1.028v2.07h-.527v-3.494h.514l.007.481c.257-.355.653-.56,1.075-.56.711,0,1.206.521,1.206,1.332v2.241h-.527v-2.202c0-.554-.304-.896-.817-.896Z" fill="#deb066"/>
    <path d="M622.173,330.869l.303-.415c.455.396.949.587,1.477.587.817,0,1.332-.488,1.332-1.272v-.271c-.323.389-.817.626-1.392.626-1.027,0-1.786-.738-1.786-1.747,0-1.016.759-1.76,1.786-1.76.58,0,1.082.244,1.404.646l.007-.567h.508v3.052c0,1.094-.731,1.773-1.866,1.773-.619,0-1.226-.198-1.772-.653ZM625.285,328.378c0-.732-.567-1.292-1.332-1.292s-1.325.547-1.325,1.292c0,.738.561,1.292,1.325,1.292s1.332-.554,1.332-1.292Z" fill="#deb066"/>
    <path d="M628.659,328.97l.501-.145c.171.652.58.929,1.081.929.573,0,.949-.31.949-.758,0-.534-.455-.765-1.048-.949-.791-.257-1.312-.606-1.312-1.338,0-.712.586-1.213,1.43-1.213.692,0,1.266.389,1.471,1.153l-.502.125c-.171-.547-.533-.771-.955-.771-.541,0-.891.283-.891.705,0,.481.369.672.949.851.812.257,1.404.679,1.404,1.417,0,.771-.619,1.292-1.503,1.292-.745,0-1.378-.435-1.575-1.299Z" fill="#deb066"/>
    <path d="M633.001,329.169v-2.018h-.58v-.448h.271c.322,0,.375-.053.375-.408v-.343h.442v.745h.817v.455h-.798v1.998c0,.481.146.606.561.606.079,0,.158-.006.237-.02v.481c-.112.013-.23.026-.343.026-.673,0-.982-.356-.982-1.074Z" fill="#deb066"/>
    <path d="M635.262,326.696h.501l.013.514c.238-.336.601-.547,1.035-.547.053,0,.093,0,.152.006v.507c-.066-.006-.112-.006-.172-.006-.619,0-1.002.416-1.002,1.048v1.971h-.527v-3.494Z" fill="#deb066"/>
    <path d="M638.873,330.269c-.758,0-1.305-.481-1.305-1.187,0-.686.547-1.167,1.312-1.167.408,0,.751.139.981.369v-.362c0-.521-.355-.831-.883-.831-.383,0-.731.145-1.068.369l-.23-.435c.422-.277.87-.409,1.306-.409.851,0,1.403.501,1.403,1.318v2.254h-.468l-.032-.33c-.238.257-.594.409-1.016.409ZM639.862,329.083c0-.448-.355-.731-.89-.731s-.883.283-.883.731.349.738.883.738.89-.29.89-.738Z" fill="#deb066"/>
    <path d="M641.714,329.169v-2.018h-.58v-.448h.271c.322,0,.375-.053.375-.408v-.343h.442v.745h.817v.455h-.798v1.998c0,.481.146.606.561.606.079,0,.158-.006.237-.02v.481c-.112.013-.23.026-.343.026-.673,0-.982-.356-.982-1.074Z" fill="#deb066"/>
    <path d="M643.612,328.443c0-1.055.778-1.826,1.846-1.826,1.002,0,1.8.659,1.807,1.806,0,.092-.007.158-.014.218h-3.111c.086.738.673,1.16,1.325,1.16.515,0,.976-.191,1.278-.64l.409.277c-.422.606-1.015.831-1.688.831-.995,0-1.853-.686-1.853-1.826ZM646.756,328.193c-.092-.738-.626-1.107-1.299-1.107-.705,0-1.213.448-1.312,1.107h2.61Z" fill="#deb066"/>
    <path d="M648.14,330.869l.303-.415c.455.396.949.587,1.477.587.817,0,1.332-.488,1.332-1.272v-.271c-.323.389-.817.626-1.392.626-1.027,0-1.786-.738-1.786-1.747,0-1.016.759-1.76,1.786-1.76.58,0,1.082.244,1.404.646l.007-.567h.508v3.052c0,1.094-.731,1.773-1.866,1.773-.619,0-1.226-.198-1.772-.653ZM651.251,328.378c0-.732-.567-1.292-1.332-1.292s-1.325.547-1.325,1.292c0,.738.561,1.292,1.325,1.292s1.332-.554,1.332-1.292Z" fill="#deb066"/>
    <path d="M653.886,329.92l-1.299-3.223h.561l.652,1.622.362,1.002,1.009-2.624h.567l-1.879,4.746h-.561l.587-1.523Z" fill="#deb066"/>
    <path d="M658.664,328.258c0-.29.211-.501.5-.501.284,0,.495.211.495.501s-.211.501-.495.501c-.289,0-.5-.211-.5-.501Z" fill="#deb066"/>
    <path d="M664.221,325.576h.547l1.668,4.614h-.58l-.363-1.055h-1.997l-.369,1.055h-.573l1.668-4.614ZM665.322,328.634l-.831-2.419-.824,2.419h1.655Z" fill="#deb066"/>
    <path d="M666.948,328.443c0-1.055.765-1.826,1.793-1.826.574,0,1.062.244,1.385.646v-1.853h.527v4.779h-.508l-.007-.587c-.323.416-.823.666-1.397.666-1.028,0-1.793-.771-1.793-1.826ZM670.152,328.443c0-.777-.567-1.345-1.345-1.345-.785,0-1.338.561-1.338,1.345,0,.791.553,1.352,1.338,1.352.777,0,1.345-.58,1.345-1.352Z" fill="#deb066"/>
    <path d="M671.469,326.696h.561l.6,1.667.402,1.299.389-1.299.594-1.667h.56l-1.259,3.494h-.566l-1.279-3.494Z" fill="#deb066"/>
    <path d="M675.061,328.443c0-1.055.778-1.826,1.846-1.826,1.002,0,1.8.659,1.807,1.806,0,.092-.007.158-.014.218h-3.111c.086.738.673,1.16,1.325,1.16.515,0,.976-.191,1.278-.64l.409.277c-.422.606-1.015.831-1.688.831-.995,0-1.853-.686-1.853-1.826ZM678.206,328.193c-.092-.738-.626-1.107-1.299-1.107-.705,0-1.213.448-1.312,1.107h2.61Z" fill="#deb066"/>
    <path d="M679.662,326.696h.501l.014.514c.236-.336.6-.547,1.034-.547.053,0,.093,0,.151.006v.507c-.065-.006-.111-.006-.171-.006-.62,0-1.002.416-1.002,1.048v1.971h-.527v-3.494Z" fill="#deb066"/>
    <path d="M682.594,329.169v-2.018h-.58v-.448h.271c.323,0,.376-.053.376-.408v-.343h.441v.745h.817v.455h-.798v1.998c0,.481.145.606.561.606.079,0,.158-.006.237-.02v.481c-.112.013-.231.026-.343.026-.673,0-.982-.356-.982-1.074Z" fill="#deb066"/>
    <path d="M684.762,325.78c0-.197.139-.329.356-.329.211,0,.356.132.356.329,0,.191-.146.323-.356.323-.218,0-.356-.132-.356-.323ZM684.855,326.696h.527v3.494h-.527v-3.494Z" fill="#deb066"/>
    <path d="M686.324,329.313l.468-.158c.139.442.455.666.844.666.409,0,.68-.23.68-.554,0-.389-.343-.481-.805-.633-.626-.218-1.048-.468-1.048-1.055,0-.567.475-.962,1.141-.962.566,0,1.015.303,1.173.824l-.448.158c-.112-.329-.382-.534-.731-.534-.369,0-.633.198-.633.495,0,.355.264.475.738.626.64.204,1.127.461,1.127,1.088,0,.586-.501.995-1.199.995-.652,0-1.121-.336-1.306-.956Z" fill="#deb066"/>
    <path d="M689.664,325.78c0-.197.139-.329.356-.329.211,0,.356.132.356.329,0,.191-.146.323-.356.323-.218,0-.356-.132-.356-.323ZM689.757,326.696h.527v3.494h-.527v-3.494Z" fill="#deb066"/>
    <path d="M692.955,327.092c-.521,0-.93.448-.93,1.028v2.07h-.527v-3.494h.515l.006.481c.258-.355.652-.56,1.074-.56.713,0,1.207.521,1.207,1.332v2.241h-.527v-2.202c0-.554-.304-.896-.817-.896Z" fill="#deb066"/>
    <path d="M695.294,330.869l.303-.415c.455.396.949.587,1.477.587.817,0,1.332-.488,1.332-1.272v-.271c-.323.389-.817.626-1.392.626-1.027,0-1.786-.738-1.786-1.747,0-1.016.759-1.76,1.786-1.76.58,0,1.082.244,1.404.646l.007-.567h.508v3.052c0,1.094-.731,1.773-1.866,1.773-.619,0-1.226-.198-1.772-.653ZM698.406,328.378c0-.732-.567-1.292-1.332-1.292s-1.325.547-1.325,1.292c0,.738.561,1.292,1.325,1.292s1.332-.554,1.332-1.292Z" fill="#deb066"/>
    <path d="M701.786,327.889c0-1.377,1.035-2.393,2.373-2.393.949,0,1.733.494,2.115,1.305l-.487.211c-.297-.626-.877-.996-1.628-.996-1.035,0-1.819.785-1.819,1.872,0,1.068.784,1.859,1.819,1.859.771,0,1.338-.369,1.635-1.016l.494.211c-.402.884-1.193,1.325-2.129,1.325-1.338,0-2.373-1.009-2.373-2.38Z" fill="#deb066"/>
    <path d="M708.323,330.269c-.758,0-1.305-.481-1.305-1.187,0-.686.547-1.167,1.312-1.167.408,0,.751.139.981.369v-.362c0-.521-.355-.831-.883-.831-.383,0-.731.145-1.068.369l-.23-.435c.422-.277.87-.409,1.306-.409.851,0,1.403.501,1.403,1.318v2.254h-.468l-.032-.33c-.238.257-.594.409-1.016.409ZM709.311,329.083c0-.448-.355-.731-.89-.731s-.883.283-.883.731.349.738.883.738.89-.29.89-.738Z" fill="#deb066"/>
    <path d="M711.018,326.696h.501l.02.448c.244-.349.613-.527.976-.527.409,0,.805.224.996.666.224-.435.646-.666,1.074-.666.573,0,1.12.422,1.12,1.279v2.294h-.527v-2.268c0-.521-.296-.831-.712-.831-.48,0-.844.416-.844.929v2.169h-.521v-2.268c0-.521-.304-.831-.719-.831-.475,0-.837.416-.837.929v2.169h-.527v-3.494Z" fill="#deb066"/>
    <path d="M717.412,329.623v1.819h-.527v-4.746h.508l.007.586c.322-.415.823-.666,1.396-.666,1.029,0,1.787.771,1.787,1.833,0,1.048-.758,1.819-1.787,1.819-.573,0-1.061-.244-1.384-.646ZM720.061,328.45c0-.778-.566-1.352-1.338-1.352s-1.338.574-1.338,1.352c0,.771.566,1.338,1.338,1.338s1.338-.566,1.338-1.338Z" fill="#deb066"/>
    <path d="M722.664,330.269c-.758,0-1.306-.481-1.306-1.187,0-.686.548-1.167,1.312-1.167.408,0,.751.139.982.369v-.362c0-.521-.356-.831-.884-.831-.382,0-.731.145-1.067.369l-.231-.435c.422-.277.87-.409,1.306-.409.85,0,1.404.501,1.404,1.318v2.254h-.469l-.033-.33c-.236.257-.593.409-1.015.409ZM723.653,329.083c0-.448-.356-.731-.891-.731s-.883.283-.883.731.35.738.883.738.891-.29.891-.738Z" fill="#deb066"/>
    <path d="M725.266,325.78c0-.197.139-.329.356-.329.211,0,.356.132.356.329,0,.191-.146.323-.356.323-.218,0-.356-.132-.356-.323ZM725.359,326.696h.527v3.494h-.527v-3.494Z" fill="#deb066"/>
    <path d="M726.921,330.869l.303-.415c.455.396.949.587,1.477.587.817,0,1.332-.488,1.332-1.272v-.271c-.323.389-.817.626-1.392.626-1.027,0-1.786-.738-1.786-1.747,0-1.016.759-1.76,1.786-1.76.58,0,1.082.244,1.404.646l.007-.567h.508v3.052c0,1.094-.731,1.773-1.866,1.773-.619,0-1.226-.198-1.772-.653ZM730.033,328.378c0-.732-.567-1.292-1.332-1.292s-1.325.547-1.325,1.292c0,.738.561,1.292,1.325,1.292s1.332-.554,1.332-1.292Z" fill="#deb066"/>
    <path d="M733.229,327.092c-.521,0-.93.448-.93,1.028v2.07h-.527v-3.494h.514l.007.481c.257-.355.653-.56,1.075-.56.711,0,1.206.521,1.206,1.332v2.241h-.527v-2.202c0-.554-.304-.896-.817-.896Z" fill="#deb066"/>
    <path d="M735.475,329.313l.469-.158c.138.442.454.666.844.666.408,0,.679-.23.679-.554,0-.389-.343-.481-.805-.633-.626-.218-1.048-.468-1.048-1.055,0-.567.475-.962,1.141-.962.566,0,1.015.303,1.173.824l-.448.158c-.111-.329-.382-.534-.731-.534-.369,0-.633.198-.633.495,0,.355.264.475.738.626.64.204,1.127.461,1.127,1.088,0,.586-.501.995-1.199.995-.653,0-1.121-.336-1.306-.956Z" fill="#deb066"/>
    <path d="M741.032,328.258c0-.29.211-.501.5-.501.284,0,.495.211.495.501s-.211.501-.495.501c-.289,0-.5-.211-.5-.501Z" fill="#deb066"/>
    <path d="M745.42,325.576h1.305c.923,0,1.556.6,1.556,1.463s-.633,1.45-1.556,1.45h-.751v1.701h-.554v-4.614ZM746.686,327.968c.646,0,1.048-.349,1.048-.929s-.402-.943-1.048-.943h-.712v1.872h.712Z" fill="#deb066"/>
    <path d="M749.203,326.696h.501l.014.514c.236-.336.6-.547,1.034-.547.053,0,.093,0,.151.006v.507c-.065-.006-.111-.006-.171-.006-.62,0-1.002.416-1.002,1.048v1.971h-.527v-3.494Z" fill="#deb066"/>
    <path d="M751.694,325.78c0-.197.139-.329.356-.329.211,0,.356.132.356.329,0,.191-.146.323-.356.323-.218,0-.356-.132-.356-.323ZM751.787,326.696h.527v3.494h-.527v-3.494Z" fill="#deb066"/>
    <path d="M754.977,327.092c-.521,0-.93.448-.93,1.028v2.07h-.527v-3.494h.514l.007.481c.257-.355.653-.56,1.075-.56.711,0,1.206.521,1.206,1.332v2.241h-.527v-2.202c0-.554-.304-.896-.817-.896Z" fill="#deb066"/>
    <path d="M757.639,329.169v-2.018h-.58v-.448h.271c.323,0,.376-.053.376-.408v-.343h.441v.745h.817v.455h-.798v1.998c0,.481.145.606.561.606.079,0,.158-.006.237-.02v.481c-.112.013-.231.026-.343.026-.673,0-.982-.356-.982-1.074Z" fill="#deb066"/>
    <path d="M761.831,325.576h1.47c1.345,0,2.234.936,2.234,2.301,0,1.384-.89,2.313-2.234,2.313h-1.47v-4.614ZM763.274,329.663c1.048,0,1.714-.692,1.714-1.786,0-1.081-.666-1.773-1.714-1.773h-.89v3.56h.89Z" fill="#deb066"/>
    <path d="M766.377,328.443c0-1.055.778-1.826,1.846-1.826,1.002,0,1.8.659,1.807,1.806,0,.092-.007.158-.014.218h-3.111c.086.738.673,1.16,1.325,1.16.515,0,.976-.191,1.278-.64l.409.277c-.422.606-1.015.831-1.688.831-.995,0-1.853-.686-1.853-1.826ZM769.522,328.193c-.092-.738-.626-1.107-1.299-1.107-.705,0-1.213.448-1.312,1.107h2.61Z" fill="#deb066"/>
    <path d="M770.707,329.313l.469-.158c.138.442.454.666.844.666.408,0,.679-.23.679-.554,0-.389-.343-.481-.805-.633-.626-.218-1.048-.468-1.048-1.055,0-.567.475-.962,1.141-.962.566,0,1.015.303,1.173.824l-.448.158c-.111-.329-.382-.534-.731-.534-.369,0-.633.198-.633.495,0,.355.264.475.738.626.64.204,1.127.461,1.127,1.088,0,.586-.501.995-1.199.995-.653,0-1.121-.336-1.306-.956Z" fill="#deb066"/>
    <path d="M774.049,325.78c0-.197.138-.329.355-.329.211,0,.355.132.355.329,0,.191-.145.323-.355.323-.218,0-.355-.132-.355-.323ZM774.141,326.696h.527v3.494h-.527v-3.494Z" fill="#deb066"/>
    <path d="M775.704,330.869l.303-.415c.455.396.949.587,1.477.587.817,0,1.332-.488,1.332-1.272v-.271c-.323.389-.817.626-1.391.626-1.029,0-1.787-.738-1.787-1.747,0-1.016.758-1.76,1.787-1.76.58,0,1.08.244,1.403.646l.007-.567h.508v3.052c0,1.094-.732,1.773-1.865,1.773-.62,0-1.227-.198-1.773-.653ZM778.815,328.378c0-.732-.567-1.292-1.332-1.292s-1.324.547-1.324,1.292c0,.738.56,1.292,1.324,1.292s1.332-.554,1.332-1.292Z" fill="#deb066"/>
    <path d="M782.01,327.092c-.521,0-.93.448-.93,1.028v2.07h-.527v-3.494h.514l.007.481c.257-.355.653-.56,1.075-.56.711,0,1.206.521,1.206,1.332v2.241h-.527v-2.202c0-.554-.304-.896-.817-.896Z" fill="#deb066"/>
  </g>
</svg>