<?xml version="1.0" encoding="UTF-8"?>
<svg id="Layer_1" data-name="Layer 1" xmlns="http://www.w3.org/2000/svg" xmlns:xlink="http://www.w3.org/1999/xlink" viewBox="0 0 804.173 346.945">
  <defs>
    <clipPath id="clippath">
      <rect width="804.173" height="346.945" fill="none"/>
    </clipPath>
  </defs>
  <rect width="804.173" height="346.945" fill="#241f21"/>
  <g clip-path="url(#clippath)">
    <path d="M348.394,165.872c.424,0,.858.402,1.299,1.205,1.395,3.003,3.52,4.512,6.373,4.533,1.266,0,2.233-.321,2.9-.968.663-.646,1.018-1.443,1.061-2.391,0-.276-.019-.529-.063-.764-.041-.232-.139-.463-.286-.697-.149-.232-.273-.426-.377-.584-.108-.162-.307-.345-.602-.557-.3-.212-.514-.372-.651-.49-.138-.118-.406-.276-.809-.475-.402-.201-.666-.339-.791-.413-.127-.075-.428-.227-.903-.46-.478-.232-.769-.369-.873-.413-2.135-1.077-3.507-1.839-4.119-2.281-1.565-1.162-2.347-2.652-2.347-4.469,0-1.669.697-3.086,2.091-4.248,1.397-1.164,3.254-1.743,5.58-1.743.527,0,1.195.063,1.996.189.805.127,1.312.191,1.524.191.273,0,.547-.063.824-.191.273-.126.495-.189.663-.189.297,0,.529.113.697.334.171.219.33.658.477,1.315.317,1.521.539,2.755.667,3.705.02.13.031.256.031.382,0,.573-.222.857-.668.857-.4,0-.853-.392-1.359-1.175-1.629-2.471-3.437-3.708-5.421-3.708-1.141,0-2.024.285-2.649.858-.623.568-.935,1.309-.935,2.218,0,.507.095.953.286,1.346.193.391.54.777,1.048,1.157.507.378.978.69,1.409.935.434.24,1.092.587,1.983,1.03l.506.255c.212.105.593.289,1.141.555.549.264.929.454,1.141.568.212.117.552.298,1.015.542.465.241.797.441.997.602.202.155.471.372.809.648.338.276.588.529.746.761.158.235.327.507.506.824.178.317.313.648.395,1.001.086.347.129.723.129,1.123v.158c0,1.905-.791,3.45-2.377,4.646-1.585,1.193-3.496,1.798-5.737,1.821-.909,0-1.851-.083-2.82-.253-.973-.168-1.544-.254-1.712-.254-.317,0-.618.078-.904.237-.286.161-.514.24-.682.24-.59,0-.981-.571-1.17-1.712-.317-1.817-.529-3.328-.637-4.532v-.287c0-.653.202-.982.602-.982" fill="#fff"/>
    <path d="M365.922,171.704c.148-.168.322-.317.524-.444.2-.126.38-.397.538-.809.158-.411.237-.953.237-1.63v-6.212c0-1.013-.33-1.733-.983-2.157-.38-.276-.569-.549-.569-.824,0-.209.063-.385.19-.521.127-.139.38-.291.76-.462,1.417-.633,2.463-.973,3.138-1.013.445,0,.667.276.667.824l-.034,2.44c1.27-2.218,3.097-3.328,5.485-3.328,2.557,0,4.224,1.12,5.009,3.359.59-1.097,1.361-1.933,2.314-2.504.95-.57,1.985-.855,3.102-.855,1.673,0,2.913.508,3.728,1.521.814,1.015,1.431,2.706,1.853,5.071l1.046,5.485c.108.55.302.982.587,1.299.286.317.539.57.761.761.222.191.334.425.334.697,0,.467-.444.697-1.332.697h-3.901c-.886,0-1.33-.24-1.33-.728,0-.254.13-.48.395-.682.265-.201.486-.443.667-.73.178-.286.267-.596.267-.934,0-.168-.021-.349-.063-.538l-.95-5.136c-.108-.612-.191-1.065-.253-1.361-.063-.297-.181-.682-.349-1.157-.168-.477-.359-.827-.571-1.046-.212-.222-.496-.422-.855-.605-.358-.178-.782-.268-1.268-.268-.973.023-1.823.444-2.552,1.27-.728.823-1.114,1.985-1.157,3.485l.034,4.153c0,.677.078,1.219.237,1.63.158.413.326.684.506.809.181.127.349.287.507.475.158.191.237.415.237.666,0,.467-.435.697-1.298.697h-3.962c-.909,0-1.363-.24-1.363-.728,0-.254.079-.47.238-.649.157-.18.336-.333.539-.46.201-.126.38-.397.537-.809.16-.411.238-.953.238-1.63v-4.278c0-1.48-.222-2.634-.666-3.455-.442-.824-1.222-1.239-2.344-1.239h-.096c-1.058,0-1.972.449-2.74,1.346-.775.901-1.157,2.14-1.157,3.728v3.897c0,.677.078,1.219.237,1.63.158.413.326.684.506.809.181.127.349.287.507.475.158.191.237.415.237.666,0,.467-.431.697-1.299.697h-3.993c-.888,0-1.33-.24-1.33-.728,0-.254.085-.475.253-.666" fill="#fff"/>
    <path d="M395.811,171.704c.146-.168.325-.317.524-.441.201-.131.38-.398.537-.81.16-.413.238-.956.238-1.632l-.031-6.056c0-.547-.078-1.007-.237-1.377-.158-.369-.334-.612-.524-.73-.187-.117-.365-.253-.522-.411-.158-.158-.238-.341-.238-.553,0-.171.062-.318.189-.447.127-.126.383-.273.761-.444.637-.317,1.317-.597,2.045-.837.73-.245,1.222-.375,1.474-.395.465,0,.697.273.697.821l-.03,4.374v6.056c0,.676.078,1.219.237,1.632.158.411.326.679.506.81.181.124.349.284.507.471.158.191.238.414.238.669,0,.462-.433.697-1.299.697h-3.962c-.907,0-1.362-.245-1.362-.729,0-.256.081-.478.253-.667M396.096,153.765c.021-.675.338-1.288.953-1.838.612-.548,1.234-.824,1.867-.824h.222c.488.019.893.199,1.221.539.33.339.489.729.489,1.172v.093c-.021.658-.346,1.253-.979,1.795-.637.535-1.283.806-1.936.806h-.158c-.527-.019-.938-.183-1.234-.49-.297-.308-.446-.674-.446-1.095v-.158Z" fill="#fff"/>
    <path d="M404.242,171.704c.149-.168.322-.317.522-.444.202-.126.38-.397.54-.809.157-.411.237-.953.237-1.63l-.031-13.027c0-.573-.082-1.036-.24-1.397-.158-.359-.331-.596-.521-.711-.191-.116-.364-.254-.524-.413-.157-.158-.237-.343-.237-.553,0-.19.062-.351.19-.475.124-.127.38-.276.76-.446,1.626-.761,2.801-1.164,3.519-1.203h.096c.188,0,.335.062.442.188.105.129.16.339.16.636l-.034,4.374v13.027c0,.677.078,1.219.24,1.63.158.413.326.684.506.809.178.127.349.287.507.475.159.191.237.415.237.666,0,.467-.431.697-1.299.697h-3.995c-.886,0-1.329-.24-1.329-.728,0-.254.085-.475.253-.666" fill="#fff"/>
    <path d="M412.736,171.704c.147-.168.325-.317.524-.441.201-.131.38-.398.537-.81.16-.413.238-.956.238-1.632l-.031-6.056c0-.547-.078-1.007-.237-1.377-.158-.369-.334-.612-.524-.73-.187-.117-.365-.253-.522-.411-.159-.158-.238-.341-.238-.553,0-.171.062-.318.189-.447.127-.126.383-.273.761-.444.637-.317,1.317-.597,2.045-.837.73-.245,1.222-.375,1.474-.395.465,0,.697.273.697.821l-.03,4.374v6.056c0,.676.078,1.219.237,1.632.158.411.326.679.506.81.181.124.349.284.507.471.158.191.238.414.238.669,0,.462-.433.697-1.299.697h-3.962c-.907,0-1.362-.245-1.362-.729,0-.256.081-.478.253-.667M413.022,153.765c.021-.675.338-1.288.953-1.838.612-.548,1.234-.824,1.867-.824h.222c.488.019.893.199,1.221.539.33.339.489.729.489,1.172v.093c-.021.658-.346,1.253-.979,1.795-.637.535-1.283.806-1.936.806h-.158c-.527-.019-.938-.183-1.234-.49-.297-.308-.446-.674-.446-1.095v-.158Z" fill="#fff"/>
    <path d="M420.947,159.628c0-.209.061-.385.187-.522.129-.139.38-.289.764-.46,1.415-.633,2.459-.973,3.137-1.014.444,0,.666.274.666.826l-.033,2.344c.593-1.056,1.373-1.858,2.345-2.409.973-.548,1.999-.824,3.074-.824,1.65,0,2.909.517,3.773,1.552.865,1.036,1.51,2.716,1.933,5.04l1.046,5.485c.108.55.297.983.571,1.301.273.315.524.568.746.759.222.189.331.424.331.697,0,.465-.431.697-1.299.697h-3.899c-.909,0-1.363-.242-1.363-.726,0-.212.083-.407.255-.589.168-.178.346-.33.535-.459.191-.127.335-.317.429-.571.097-.253.144-.498.144-.728,0-.168-.021-.349-.066-.539l-.948-5.137c-.127-.674-.256-1.232-.382-1.679-.126-.444-.318-.902-.568-1.377-.256-.475-.593-.824-1.017-1.046-.423-.222-.929-.333-1.521-.333-1.015.021-1.885.473-2.614,1.348-.728.875-1.093,2.095-1.093,3.661v3.899c0,.677.08,1.219.237,1.63.16.411.328.682.506.81.181.127.351.287.507.475.162.191.238.414.238.666,0,.465-.434.697-1.299.697h-3.992c-.888,0-1.332-.242-1.332-.726,0-.256.078-.474.237-.651.158-.179.336-.333.539-.46.199-.127.382-.398.538-.81.158-.411.238-.953.238-1.63v-6.211c0-1.015-.328-1.733-.984-2.158-.38-.273-.568-.548-.568-.824" fill="#fff"/>
    <path d="M440.121,175.89c0-.529.181-1.043.539-1.539.361-.496.868-.891,1.521-1.188-1.309-.615-1.965-1.533-1.965-2.758,0-1.268.824-2.228,2.473-2.884-1.458-.93-2.187-2.231-2.187-3.9s.702-3.083,2.109-4.246c1.403-1.161,3.141-1.762,5.214-1.807h.475c.295,0,.63.023.997.062.369.044.664.065.87.065.868,0,1.746-.582,2.635-1.743.4-.485.803-.731,1.205-.731.335,0,.627.117.87.351.245.232.366.527.366.888,0,.633-.282,1.17-.841,1.616-.561.444-1.23.741-2.014.888,1.183.95,1.776,2.198,1.776,3.739,0,1.692-.649,3.096-1.95,4.217-1.299,1.12-3.006,1.689-5.118,1.712-1.185,0-2.218-.158-3.108-.477-.485.318-.73.709-.73,1.174,0,1.077,1.09,1.616,3.264,1.616.637,0,1.575-.041,2.824-.126,1.245-.086,2.048-.127,2.409-.127,1.477,0,2.621.336,3.422,1.013.801.676,1.205,1.555,1.205,2.631,0,1.629-.815,2.942-2.44,3.946-1.629,1.002-3.846,1.505-6.655,1.505-1.967,0-3.653-.326-5.056-.981-1.406-.658-2.109-1.627-2.109-2.915M443.258,175.729c0,.78.434,1.39,1.302,1.824.865.434,2.038.65,3.517.65,1.54,0,2.758-.233,3.644-.697.888-.469,1.332-1.121,1.332-1.967,0-1.164-.757-1.743-2.281-1.743h-.317c-2.661.105-4.3.158-4.915.158-.61,0-1.146.154-1.598.46-.457.305-.684.744-.684,1.314M444.018,162.544c.023,1.289.358,2.38,1.001,3.267.643.885,1.503,1.33,2.584,1.33.929,0,1.663-.328,2.201-.984.54-.654.81-1.5.81-2.536,0-1.226-.307-2.291-.919-3.201-.615-.907-1.469-1.362-2.57-1.362-.886,0-1.625.326-2.218.982-.589.656-.888,1.49-.888,2.504" fill="#fff"/>
    <path d="M359.283,200.795c.212-.191.441-.349.682-.475.245-.127.47-.444.682-.951.21-.506.315-1.182.315-2.029v-12.297c0-.847-.1-1.521-.3-2.029-.202-.507-.421-.826-.664-.953-.245-.124-.463-.285-.666-.475-.201-.188-.302-.432-.302-.729,0-.273.126-.469.382-.584.251-.117.685-.173,1.299-.173h4.246c1.119,0,1.682.25,1.682.757,0,.297-.107.542-.32.729-.209.19-.439.351-.682.475-.242.127-.47.446-.681.953-.212.507-.317,1.182-.317,2.029v3.169c0,.593.105.953.317,1.077.339.234,1.722.347,4.152.347h1.332c2.936,0,4.607-.081,5.009-.253.317-.273.475-.666.475-1.172v-3.169c0-.847-.101-1.521-.302-2.029-.199-.507-.416-.826-.648-.953-.232-.124-.449-.285-.651-.475-.199-.188-.3-.432-.3-.729,0-.273.122-.469.364-.584.243-.117.673-.173,1.285-.173h4.281c1.097,0,1.645.25,1.645.757,0,.235-.069.429-.204.591-.137.155-.302.298-.493.424-.189.129-.38.284-.571.477-.187.191-.353.513-.489.966-.139.455-.204,1.031-.204,1.728v12.297c0,.847.099,1.523.298,2.029.201.507.418.824.65.951.233.126.449.284.651.475.199.191.299.434.299.73,0,.274-.121.47-.362.587-.245.116-.673.173-1.285.173h-4.279c-1.098,0-1.648-.254-1.648-.76,0-.232.069-.428.206-.586.137-.158.302-.3.493-.429.189-.126.38-.282.57-.475.191-.191.354-.509.49-.966.14-.455.207-1.03.207-1.729v-4.53c0-.596-.106-.963-.317-1.11-.338-.212-1.71-.317-4.119-.317h-1.081c-3.083,0-4.839.083-5.26.251-.317.317-.488.708-.507,1.175v4.53c0,.847.099,1.523.3,2.029.199.507.425.824.667.951.242.126.463.284.663.475.202.191.303.434.303.73,0,.274-.127.47-.38.587-.255.116-.686.173-1.301.173h-4.246c-1.122,0-1.681-.254-1.681-.76,0-.295.108-.539.317-.73" fill="#fff"/>
    <path d="M385.02,189.163c1.565-1.606,3.488-2.409,5.771-2.409,1.753,0,3.187.454,4.309,1.361,1.12.909,1.817,2.071,2.095,3.488.018.083.028.168.028.254,0,.486-.25.823-.757,1.015-2.325.971-5.589,2.197-9.797,3.673.361.951.968,1.766,1.823,2.441.855.678,1.909,1.014,3.154,1.014,1.797,0,3.402-.726,4.819-2.184.19-.191.367-.286.539-.286.083,0,.191.041.315.124.126.088.193.233.193.444,0,.108-.033.246-.098.414-.38.993-1.221,1.921-2.518,2.789-1.299.865-2.879,1.299-4.739,1.299-2.218,0-4.02-.697-5.404-2.094-1.386-1.392-2.074-3.168-2.074-5.325,0-2.386.78-4.395,2.342-6.02M386.29,194.962c2.745-.906,4.868-1.669,6.369-2.281.467-.168.697-.465.697-.886,0-.087-.01-.178-.031-.286-.188-.932-.622-1.665-1.298-2.201-.679-.54-1.377-.81-2.094-.81-.106,0-.212.013-.317.029-1.121.066-1.991.537-2.616,1.412-.623.878-.935,1.9-.935,3.06,0,.846.073,1.502.223,1.963" fill="#fff"/>
    <path d="M398.969,188.814c0-.209.06-.385.187-.522.129-.139.38-.289.764-.46,1.415-.633,2.46-.973,3.137-1.014.444,0,.666.274.666.826l-.033,2.184c.548-.95,1.224-1.699,2.03-2.249.803-.548,1.627-.824,2.471-.824s1.493.233,1.949.697c.457.465.681,1.058.681,1.774,0,.507-.129.942-.395,1.301-.263.361-.597.54-.999.54-.485,0-.961-.251-1.426-.746-.463-.498-.95-.746-1.457-.746-.653,0-1.227.391-1.712,1.173-.486.782-.728,1.786-.728,3.009v4.25c0,.677.08,1.219.237,1.63.16.411.328.682.506.81.181.127.351.287.507.475.162.191.238.414.238.666,0,.465-.434.697-1.299.697h-3.992c-.888,0-1.332-.241-1.332-.726,0-.256.078-.474.237-.651.158-.179.336-.333.538-.46.199-.127.382-.398.539-.81.158-.411.238-.953.238-1.63v-6.211c0-1.015-.328-1.733-.984-2.158-.38-.273-.568-.548-.568-.824" fill="#fff"/>
    <path d="M412.309,181.43c.129-.127.383-.276.764-.446,1.625-.759,2.797-1.16,3.517-1.202h.094c.191,0,.34.062.444.187.105.129.158.339.158.637l-.031,4.373v4.31c1.226-1.668,2.905-2.513,5.038-2.536h.095c1.901,0,3.499.666,4.788,1.999,1.288,1.332,1.934,3.085,1.934,5.26,0,2.536-.734,4.602-2.201,6.197-1.471,1.594-3.178,2.392-5.123,2.392-.885,0-1.665-.106-2.327-.318-.666-.21-1.205-.418-1.616-.63-.413-.212-.759-.318-1.031-.318-.339.023-.798.196-1.377.522-.583.326-1.022.493-1.317.493-.465,0-.698-.212-.698-.636,0-.061.011-.149.034-.253.149-.803.221-1.753.221-2.853v-13.629c0-.573-.077-1.036-.238-1.395-.158-.361-.336-.598-.537-.712-.202-.116-.382-.256-.54-.411-.158-.162-.238-.346-.238-.557,0-.189.065-.351.189-.475M417.223,193.285l.033,2.44c0,1.393.444,2.608,1.333,3.644.885,1.036,1.952,1.553,3.197,1.553,1.205,0,2.146-.486,2.822-1.459.677-.969,1.017-2.249,1.017-3.833,0-1.968-.444-3.566-1.335-4.803-.886-1.238-1.962-1.856-3.232-1.856-1.204,0-2.146.462-2.82,1.381-.676.919-1.015,1.896-1.015,2.933" fill="#fff"/>
    <path d="M431.045,197.086c.063-.019.138-.031.222-.031.295,0,.687.233,1.172.697,2.051,2.135,3.974,3.202,5.767,3.202.656,0,1.198-.16,1.619-.475.423-.317.635-.761.635-1.33,0-.573-.35-1.09-1.046-1.555-.7-.463-1.797-1.015-3.298-1.648-.803-.336-1.441-.629-1.916-.87-.475-.245-.987-.561-1.539-.953-.55-.39-.95-.834-1.204-1.332-.253-.494-.38-1.061-.38-1.694,0-1.394.521-2.468,1.554-3.218,1.036-.751,2.228-1.123,3.581-1.123.675,0,1.412.069,2.203.204.795.137,1.286.207,1.475.207h.094c.168,0,.354-.07.557-.207.199-.135.372-.204.522-.204.209,0,.385.078.521.237.139.158.335.461.587.901.337.635.645,1.293.919,1.968.106.273.158.516.158.728,0,.274-.104.463-.317.571-.083.041-.149.069-.189.08l-.096.013-.204-.047-.222-.093c-.075-.033-.171-.09-.285-.174-.116-.085-.218-.158-.302-.222l-.38-.285c-.17-.126-.306-.232-.411-.317-1.627-1.162-3.042-1.743-4.25-1.743-.72,0-1.283.163-1.694.489-.411.33-.619.736-.619,1.222,0,.568.307,1.064.919,1.489.614.423,1.689.951,3.232,1.585,1.86.761,3.244,1.501,4.155,2.218.906.72,1.363,1.617,1.363,2.694,0,1.293-.557,2.366-1.666,3.233-1.108.866-2.509,1.301-4.197,1.301-.89,0-1.75-.105-2.584-.317-.835-.212-1.294-.317-1.377-.317-.152,0-.341.104-.573.317-.232.212-.454.317-.666.317-.232,0-.411-.075-.538-.222-.127-.148-.295-.465-.507-.95-.57-1.544-.95-2.652-1.141-3.331-.041-.149-.062-.273-.062-.377,0-.339.139-.552.411-.637" fill="#fff"/>
    <path d="M445.668,185.107c.72-.72,1.584-1.077,2.601-1.077s1.881.357,2.601,1.077c.717.717,1.074,1.582,1.074,2.598s-.357,1.885-1.074,2.601c-.72.717-1.585,1.077-2.601,1.077s-1.882-.361-2.601-1.077c-.717-.716-1.076-1.585-1.076-2.601s.359-1.882,1.076-2.598M445.144,187.705c0,.883.305,1.637.914,2.257.609.625,1.348.935,2.211.935s1.601-.31,2.213-.935c.615-.62.922-1.374.922-2.257s-.307-1.632-.922-2.257c-.612-.622-1.35-.933-2.213-.933s-1.602.312-2.211.933c-.609.625-.914,1.376-.914,2.257M446.526,185.773c0-.119.116-.181.351-.181h1.133c.586,0,1.051.127,1.397.38.346.255.521.597.521,1.03,0,.553-.24.94-.714,1.162l.445.78c.072.122.168.227.297.315.108.07.162.149.162.238,0,.119-.103.181-.306.181h-.713c-.217,0-.325-.064-.325-.191l.085-.19.077-.173-.047-.152-.372-.648c-.064.015-.163.019-.305.019h-.514l-.066.075v.325c0,.121.011.222.038.299l.072.153.11.091c.088.075.134.145.134.209,0,.119-.119.181-.353.181h-.754c-.235,0-.351-.062-.351-.181,0-.07.046-.139.141-.209.146-.116.22-.295.22-.543v-2.249c0-.07-.005-.149-.02-.238-.013-.119-.075-.212-.19-.276-.1-.07-.151-.139-.151-.209M447.631,187.829c0,.091.184.135.553.135.309,0,.549-.077.713-.225.166-.149.246-.361.246-.633,0-.33-.105-.601-.32-.81-.213-.21-.49-.317-.831-.325-.162,0-.261.008-.302.019l-.061.087v1.751Z" fill="#fff"/>
    <path d="M423.43,122.369c-.411-.336-1.018-.295-1.369.103-4.452,5.062-10.205,7.839-16.302,7.839-.614,0-1.224-.03-1.83-.087-.419-.039-.767-.333-.881-.739-1.098-3.852-3.506-7.349-7.097-9.748-5.218-3.484-11.618-3.786-16.947-1.39-.339.154-.566.493-.576.863-.171,5.841,2.562,11.636,7.781,15.119,4.189,2.799,9.141,3.54,13.687,2.482.978-.227,1.027-1.599.075-1.916-3.458-1.146-6.984-3.143-9.644-5.539-.938-.844.221-2.275,1.249-1.544l.061.044c4.183,3.194,9.035,4.911,14.122,4.911,6.817,0,13.221-3.07,18.141-8.669.374-.426.325-1.077-.114-1.436l-.356-.292Z" fill="#44a975"/>
    <path d="M364.569,217.814c1.366-2.174,2.049-3.267,3.416-5.441.307.227.461.339.772.562-1.333,2.198-2.001,3.298-3.334,5.496-.345-.241-.514-.365-.854-.617M368.202,213.551c.169-.284.257-.424.429-.708,1.077.77,1.62,1.139,2.724,1.839-.158.292-.238.438-.397.731-1.117-.71-1.668-1.082-2.756-1.862M366.785,215.872c.168-.276.251-.414.422-.69,1.015.726,1.529,1.075,2.567,1.743-.157.286-.232.426-.386.712-1.054-.676-1.573-1.028-2.602-1.765M365.284,218.333c.173-.282.258-.421.429-.705,1.177.844,1.774,1.247,2.98,2.013-.155.292-.237.439-.392.728-1.224-.775-1.826-1.181-3.018-2.035" fill="#44a975"/>
    <path d="M368.976,220.792c1.23-.48,1.836-.736,3.022-1.279.846-.419,1.265-.637,2.087-1.087.39.209.584.313.974.516-1.075.581-1.626.859-2.747,1.387-.904.454-1.366.673-2.3,1.092-.416-.247-.623-.372-1.038-.629M372.248,222.684c-.207-1.062-.3-1.594-.469-2.657-.249-1.302-.359-1.952-.546-3.249.38.233.571.347.956.574.134.992.212,1.488.38,2.484.259,1.361.405,2.042.731,3.405-.422-.217-.635-.33-1.053-.557" fill="#44a975"/>
    <path d="M375.059,219.793c.122-.277.183-.416.305-.697,1.116.573,1.681.841,2.817,1.348-.106.286-.16.429-.269.713-1.149-.514-1.722-.787-2.853-1.365M375.736,224.554c-.473-.217-.79-.505-.955-.849-.161-.343-.157-.721.017-1.131.746-1.777,1.121-2.664,1.865-4.441.323.16.488.238.811.391-.702,1.742-1.053,2.611-1.754,4.351-.088.212-.09.403-.025.566.069.166.212.301.429.4.063.029.135.049.218.06.083.01.193.005.325-.014.036.315.055.477.094.793-.202.025-.386.026-.552.006-.168-.021-.326-.065-.475-.134" fill="#44a975"/>
    <path d="M377.461,225.195c.636-1.748.953-2.622,1.589-4.37.338.143.507.214.845.351-.612,1.759-.919,2.641-1.531,4.398-.362-.147-.543-.222-.904-.379M378.848,223.067c.165-.473.4-.819.69-1.041.289-.223.607-.347.95-.382.341-.033.673.011.995.134-.103.318-.155.48-.256.8-.271-.099-.543-.161-.814-.178-.271-.015-.514.034-.73.15-.217.117-.38.33-.485.631-.142-.044-.212-.069-.351-.114" fill="#44a975"/>
    <path d="M382.259,227.134c-.578-.193-.989-.47-1.234-.824-.242-.356-.295-.746-.16-1.175.141-.455.411-.742.802-.873.39-.126.87-.091,1.448.101.622.204.933.303,1.56.491-.065.274-.096.408-.163.681-.539-.16-.807-.247-1.34-.419-.438-.141-.759-.183-.976-.114-.217.065-.357.212-.426.439-.062.209-.025.402.111.578.137.175.359.315.661.411.264.088.504.106.725.049.218-.054.406-.158.563-.315.157-.158.262-.353.326-.589.173.054.261.078.434.132-.157.617-.429,1.057-.825,1.325-.399.264-.903.302-1.505.103M383.717,227.48c.22-.95.329-1.428.551-2.379.078-.333.11-.623.094-.865-.016-.243-.088-.445-.209-.609-.122-.161-.31-.286-.566-.369-.238-.078-.46-.099-.671-.065-.207.034-.4.13-.574.292-.281-.222-.419-.336-.695-.563.173-.162.369-.292.583-.394.217-.101.454-.158.72-.17.266-.01.553.039.86.139.426.139.76.331,1.004.582.245.248.4.558.463.922.063.366.039.79-.08,1.266-.243.991-.366,1.483-.609,2.469-.349-.099-.522-.15-.871-.258" fill="#44a975"/>
    <path d="M387.885,228.711c-.493-.113-.913-.325-1.244-.623-.336-.3-.568-.661-.697-1.075-.127-.414-.132-.858-.021-1.324.109-.469.309-.854.592-1.155.287-.307.626-.514,1.023-.63.395-.114.821-.119,1.275-.015.445.103.83.295,1.155.581.326.285.547.633.666,1.061-.346.07-.519.105-.87.168-.079-.251-.217-.467-.413-.645-.199-.175-.439-.297-.726-.362-.277-.065-.542-.055-.786.025-.246.083-.457.227-.635.434-.175.209-.302.47-.371.782-.069.31-.063.601.013.87.075.274.217.506.421.698.206.194.454.328.746.397.301.069.583.054.844-.036.261-.098.47-.254.631-.477.315.198.473.295.79.491-.254.37-.596.633-1.022.78-.424.149-.883.168-1.372.055" fill="#44a975"/>
    <path d="M391.139,225.27c.049-.305.07-.455.119-.761,1.194.219,1.793.315,2.996.47-.034.307-.05.462-.085.766-1.214-.158-1.821-.253-3.03-.475M392.926,229.651c-.499-.073-.87-.253-1.11-.538-.237-.281-.322-.646-.256-1.092.279-1.926.419-2.892.698-4.819.346.058.516.088.862.138-.245,1.88-.367,2.823-.617,4.702-.028.23.013.415.116.551.105.139.273.227.501.258l.225-.005c.08-.015.183-.05.302-.109.113.295.168.441.283.736-.185.083-.361.139-.521.168-.163.028-.325.033-.483.01" fill="#44a975"/>
    <path d="M397.057,229.987c.119-1.872.181-2.814.3-4.687.333.025.499.036.834.055.006.346.01.519.014.868-.078,1.531-.118,2.298-.194,3.827-.382-.023-.573-.034-.955-.063M400.567,227.741c.005-.426-.041-.751-.134-.974-.096-.227-.227-.383-.403-.475-.168-.093-.372-.15-.597-.162-.377-.021-.689.105-.915.362-.23.256-.359.63-.384,1.119-.158-.01-.238-.014-.396-.024.026-.495.125-.916.292-1.258.163-.343.385-.604.666-.78.279-.173.609-.25.989-.235.563.017,1.001.198,1.322.549.318.351.483.885.483,1.606-.369.113-.555.168-.922.273M400.53,230.148c.015-.962.023-1.444.038-2.407.367-.105.553-.16.922-.273-.003,1.075-.005,1.614-.005,2.686-.383,0-.574-.002-.955-.007M403.924,227.705c-.015-.427-.079-.749-.186-.968-.11-.221-.251-.369-.425-.451-.173-.083-.375-.127-.599-.127-.38,0-.687.147-.902.416-.214.269-.323.65-.326,1.139-.158,0-.237-.003-.395-.003.003-.495.08-.921.227-1.271.146-.354.356-.627.628-.818.274-.189.597-.286.977-.292.563-.015,1.007.142,1.347.473.336.331.524.855.55,1.577-.357.132-.535.198-.896.325M404.004,230.109c-.031-.961-.049-1.441-.08-2.404.36-.127.538-.193.896-.325.049,1.072.077,1.612.126,2.685-.375.019-.563.029-.942.044" fill="#44a975"/>
    <path d="M408.373,229.892c-.494.055-.946-.008-1.343-.183-.397-.173-.716-.436-.953-.79-.238-.354-.371-.772-.398-1.254-.028-.48.052-.914.23-1.296.18-.389.441-.699.785-.937.343-.243.741-.386,1.191-.436.469-.054.888,0,1.268.16.379.158.695.405.946.744.25.336.41.741.472,1.219.063.477.014.914-.15,1.314-.166.396-.427.728-.778.984-.351.259-.777.419-1.27.473M408.293,229.051c.297-.034.55-.134.761-.299.209-.165.361-.377.463-.633.096-.253.129-.538.091-.85-.036-.317-.131-.586-.282-.814-.154-.225-.35-.395-.583-.502-.233-.11-.493-.146-.777-.114-.276.029-.518.124-.723.281-.209.16-.362.366-.47.617-.108.251-.149.534-.124.846.021.32.108.597.253.826.143.232.339.41.578.522.241.114.514.157.813.122" fill="#44a975"/>
    <path d="M411.852,229.288c-.271-1.856-.405-2.786-.676-4.645.354-.061.532-.09.883-.155.295,1.852.444,2.779.739,4.628-.379.072-.568.106-.946.171M412.044,226.691c-.075-.498-.039-.924.105-1.274.144-.351.356-.634.635-.85.273-.212.579-.359.909-.429.063.331.093.499.155.83-.279.062-.541.158-.78.292-.237.135-.425.31-.55.531-.132.218-.173.489-.122.808-.139.039-.209.057-.351.093" fill="#44a975"/>
    <path d="M417.453,228.177c-.478.129-.927.132-1.333.016-.406-.114-.754-.328-1.031-.64-.278-.318-.463-.71-.55-1.18-.093-.477-.069-.914.06-1.322.129-.41.349-.757.651-1.046.302-.287.674-.491,1.121-.612.414-.111.805-.109,1.177.005.374.117.697.339.981.666.282.326.491.749.629,1.268-.358.109-.537.163-.898.268-.095-.385-.229-.697-.395-.933-.165-.238-.362-.397-.587-.48-.229-.083-.48-.083-.757-.01-.276.073-.508.202-.682.387-.181.183-.305.41-.371.681-.067.271-.063.578.01.927.065.323.193.587.375.79.182.204.405.341.662.414.258.07.534.067.826-.013.315-.083.566-.227.739-.426.174-.197.297-.424.362-.679.362.047.542.069.907.108-.074.277-.193.538-.348.775-.157.237-.367.447-.626.627-.261.176-.566.315-.922.41M415.166,226.417c-.054-.289-.083-.433-.137-.72,1.386-.325,2.074-.509,3.447-.922.072.284.108.425.181.707-1.389.418-2.087.605-3.491.935" fill="#44a975"/>
    <path d="M422.822,226.353c-.775-2.492-1.164-3.742-1.939-6.236.328-.122.493-.183.819-.31.814,2.479,1.222,3.722,2.034,6.2-.365.142-.548.212-.914.346" fill="#44a975"/>
    <path d="M423.529,220.014c-.134.055-.271.054-.402-.007-.14-.063-.23-.161-.276-.295-.049-.142-.043-.281.024-.418.061-.134.16-.232.292-.287.138-.059.271-.059.4-.005.132.055.222.154.276.292.049.135.044.274-.015.418-.062.141-.158.243-.3.302M424.975,225.514c-.607-1.761-.912-2.641-1.521-4.4.333-.138.501-.21.834-.351.635,1.748.954,2.623,1.591,4.371-.361.155-.542.232-.904.38" fill="#44a975"/>
    <path d="M425.337,221.104c-.105-.276-.158-.411-.263-.687,1.138-.507,1.701-.778,2.82-1.351.117.269.175.403.292.671-1.128.579-1.7.854-2.849,1.368M427.57,224.377c-.758-1.916-1.138-2.877-1.898-4.795-.181-.454-.207-.849-.083-1.183.122-.333.4-.606.834-.822.129-.064.279-.111.447-.146.174-.036.353-.055.542-.062-.01.307-.015.462-.026.772-.143.003-.265.014-.364.034-.099.016-.179.041-.243.073-.188.093-.3.223-.345.39-.039.168-.005.382.099.637.77,1.872,1.159,2.807,1.929,4.677-.356.173-.534.258-.893.425" fill="#44a975"/>
    <path d="M432.633,221.869c-.444.256-.888.383-1.314.383-.429.002-.816-.113-1.16-.342-.346-.229-.615-.563-.806-.994-.196-.434-.271-.87-.232-1.299.033-.434.175-.83.41-1.194.235-.364.558-.666.973-.904.387-.222.772-.331,1.166-.322.394.01.764.134,1.117.372.351.242.653.593.903,1.058-.33.207-.495.31-.829.513-.181-.348-.38-.614-.597-.8-.217-.185-.446-.286-.687-.302-.245-.018-.493.05-.754.199-.256.15-.454.339-.587.566-.135.227-.209.48-.214.761-.005.282.065.579.214.899.137.297.32.519.547.662.227.15.475.222.746.221.273,0,.543-.08.814-.237.292-.171.509-.38.638-.622.129-.241.197-.494.207-.76.369-.054.551-.083.922-.147-.01.29-.072.576-.173.852-.103.273-.265.535-.481.782-.219.245-.491.467-.821.656M429.982,220.788c-.116-.263-.174-.398-.294-.661,1.296-.697,1.937-1.067,3.202-1.85.134.256.203.383.336.64-1.281.791-1.933,1.165-3.245,1.872" fill="#44a975"/>
    <path d="M432.36,215.609c-.065-.124-.099-.186-.166-.307.568-.361.852-.547,1.412-.927.069.122.103.181.173.302-.565.38-.847.568-1.418.932M433.708,216.709c-.356-.645-.537-.966-.893-1.608.134-.088.202-.131.334-.222.361.642.542.963.902,1.603-.137.091-.207.135-.344.227M434.839,215.955c-.402-.695-.604-1.041-1.007-1.733.134-.093.202-.138.336-.232.408.69.61,1.036,1.017,1.726-.138.095-.207.141-.346.238M435.496,214.904c-.648-.243-.969-.37-1.606-.631l.129-.153.176-.149c.514.207.772.306,1.291.504.005.171.008.256.01.429M435.496,214.904c-.141-.075-.212-.111-.353-.188.041-.593.059-.886.088-1.479l.202-.121.178-.072c-.038.741-.059,1.113-.116,1.859M436.311,214.917c-.419-.681-.632-1.022-1.051-1.699.132-.098.197-.143.328-.242.424.678.638,1.017,1.062,1.691-.137.101-.202.152-.339.25" fill="#44a975"/>
  </g>
  <g>
    <path d="M595.172,325.576h.495l1.259,3.236,1.272-3.236h.481l.547,4.614h-.561l-.383-3.395-1.291,3.144h-.139l-1.279-3.158-.382,3.408h-.567l.547-4.614Z" fill="#44a975"/>
    <path d="M601.329,330.269c-.758,0-1.305-.481-1.305-1.187,0-.686.547-1.167,1.312-1.167.408,0,.751.139.981.369v-.362c0-.521-.355-.831-.883-.831-.383,0-.731.145-1.068.369l-.23-.435c.422-.277.87-.409,1.306-.409.851,0,1.403.501,1.403,1.318v2.254h-.468l-.032-.33c-.238.257-.594.409-1.016.409ZM602.317,329.083c0-.448-.355-.731-.89-.731s-.883.283-.883.731.349.738.883.738.89-.29.89-.738Z" fill="#44a975"/>
    <path d="M604.024,326.697h.501l.013.514c.238-.336.601-.547,1.035-.547.053,0,.093,0,.152.006v.507c-.066-.006-.112-.006-.172-.006-.619,0-1.002.416-1.002,1.048v1.971h-.527v-3.494Z" fill="#44a975"/>
    <path d="M606.626,325.411h.527v2.947l1.397-1.661h.606l-1.305,1.549,1.403,1.944h-.605l-1.141-1.602-.356.375v1.226h-.527v-4.779Z" fill="#44a975"/>
    <path d="M609.619,328.443c0-1.055.778-1.826,1.846-1.826,1.002,0,1.8.659,1.807,1.806,0,.092-.007.158-.014.218h-3.111c.086.738.673,1.16,1.325,1.16.514,0,.976-.191,1.279-.64l.408.277c-.422.606-1.016.831-1.688.831-.995,0-1.853-.686-1.853-1.826ZM612.763,328.193c-.093-.738-.626-1.107-1.299-1.107-.705,0-1.213.448-1.312,1.107h2.61Z" fill="#44a975"/>
    <path d="M614.377,329.169v-2.018h-.58v-.448h.271c.323,0,.376-.053.376-.408v-.343h.441v.745h.817v.455h-.798v1.998c0,.481.145.606.561.606.079,0,.158-.006.237-.02v.481c-.112.013-.231.026-.343.026-.673,0-.982-.356-.982-1.074Z" fill="#44a975"/>
    <path d="M616.545,325.78c0-.197.138-.329.355-.329.211,0,.355.132.355.329,0,.191-.145.323-.355.323-.218,0-.355-.132-.355-.323ZM616.637,326.697h.527v3.494h-.527v-3.494Z" fill="#44a975"/>
    <path d="M619.834,327.092c-.521,0-.93.448-.93,1.028v2.07h-.527v-3.494h.514l.007.481c.257-.355.653-.56,1.075-.56.711,0,1.206.521,1.206,1.332v2.241h-.527v-2.202c0-.554-.304-.896-.817-.896Z" fill="#44a975"/>
    <path d="M622.173,330.869l.303-.415c.455.396.949.587,1.477.587.817,0,1.332-.488,1.332-1.272v-.271c-.323.389-.817.626-1.392.626-1.027,0-1.786-.738-1.786-1.747,0-1.016.759-1.76,1.786-1.76.58,0,1.082.244,1.404.646l.007-.567h.508v3.052c0,1.094-.731,1.773-1.866,1.773-.619,0-1.226-.198-1.772-.653ZM625.285,328.378c0-.732-.567-1.292-1.332-1.292s-1.325.547-1.325,1.292c0,.738.561,1.292,1.325,1.292s1.332-.554,1.332-1.292Z" fill="#44a975"/>
    <path d="M628.659,328.97l.501-.145c.171.652.58.929,1.081.929.573,0,.949-.31.949-.758,0-.534-.455-.765-1.048-.949-.791-.257-1.312-.606-1.312-1.338,0-.712.586-1.213,1.43-1.213.692,0,1.266.389,1.471,1.153l-.502.125c-.171-.547-.533-.771-.955-.771-.541,0-.891.283-.891.705,0,.481.369.672.949.851.812.257,1.404.679,1.404,1.417,0,.771-.619,1.292-1.503,1.292-.745,0-1.378-.435-1.575-1.299Z" fill="#44a975"/>
    <path d="M633.001,329.169v-2.018h-.58v-.448h.271c.322,0,.375-.053.375-.408v-.343h.442v.745h.817v.455h-.798v1.998c0,.481.146.606.561.606.079,0,.158-.006.237-.02v.481c-.112.013-.23.026-.343.026-.673,0-.982-.356-.982-1.074Z" fill="#44a975"/>
    <path d="M635.262,326.697h.501l.013.514c.238-.336.601-.547,1.035-.547.053,0,.093,0,.152.006v.507c-.066-.006-.112-.006-.172-.006-.619,0-1.002.416-1.002,1.048v1.971h-.527v-3.494Z" fill="#44a975"/>
    <path d="M638.873,330.269c-.758,0-1.305-.481-1.305-1.187,0-.686.547-1.167,1.312-1.167.408,0,.751.139.981.369v-.362c0-.521-.355-.831-.883-.831-.383,0-.731.145-1.068.369l-.23-.435c.422-.277.87-.409,1.306-.409.851,0,1.403.501,1.403,1.318v2.254h-.468l-.032-.33c-.238.257-.594.409-1.016.409ZM639.862,329.083c0-.448-.355-.731-.89-.731s-.883.283-.883.731.349.738.883.738.89-.29.89-.738Z" fill="#44a975"/>
    <path d="M641.714,329.169v-2.018h-.58v-.448h.271c.322,0,.375-.053.375-.408v-.343h.442v.745h.817v.455h-.798v1.998c0,.481.146.606.561.606.079,0,.158-.006.237-.02v.481c-.112.013-.23.026-.343.026-.673,0-.982-.356-.982-1.074Z" fill="#44a975"/>
    <path d="M643.612,328.443c0-1.055.778-1.826,1.846-1.826,1.002,0,1.8.659,1.807,1.806,0,.092-.007.158-.014.218h-3.111c.086.738.673,1.16,1.325,1.16.515,0,.976-.191,1.278-.64l.409.277c-.422.606-1.015.831-1.688.831-.995,0-1.853-.686-1.853-1.826ZM646.756,328.193c-.092-.738-.626-1.107-1.299-1.107-.705,0-1.213.448-1.312,1.107h2.61Z" fill="#44a975"/>
    <path d="M648.14,330.869l.303-.415c.455.396.949.587,1.477.587.817,0,1.332-.488,1.332-1.272v-.271c-.323.389-.817.626-1.392.626-1.027,0-1.786-.738-1.786-1.747,0-1.016.759-1.76,1.786-1.76.58,0,1.082.244,1.404.646l.007-.567h.508v3.052c0,1.094-.731,1.773-1.866,1.773-.619,0-1.226-.198-1.772-.653ZM651.251,328.378c0-.732-.567-1.292-1.332-1.292s-1.325.547-1.325,1.292c0,.738.561,1.292,1.325,1.292s1.332-.554,1.332-1.292Z" fill="#44a975"/>
    <path d="M653.886,329.92l-1.299-3.223h.561l.652,1.622.362,1.002,1.009-2.624h.567l-1.879,4.746h-.561l.587-1.523Z" fill="#44a975"/>
    <path d="M658.664,328.259c0-.29.211-.501.5-.501.284,0,.495.211.495.501s-.211.501-.495.501c-.289,0-.5-.211-.5-.501Z" fill="#44a975"/>
    <path d="M664.221,325.576h.547l1.668,4.614h-.58l-.363-1.055h-1.997l-.369,1.055h-.573l1.668-4.614ZM665.322,328.635l-.831-2.419-.824,2.419h1.655Z" fill="#44a975"/>
    <path d="M666.948,328.443c0-1.055.765-1.826,1.793-1.826.574,0,1.062.244,1.385.646v-1.853h.527v4.779h-.508l-.007-.587c-.323.416-.823.666-1.397.666-1.028,0-1.793-.771-1.793-1.826ZM670.152,328.443c0-.777-.567-1.345-1.345-1.345-.785,0-1.338.561-1.338,1.345,0,.791.553,1.352,1.338,1.352.777,0,1.345-.58,1.345-1.352Z" fill="#44a975"/>
    <path d="M671.469,326.697h.561l.6,1.667.402,1.299.389-1.299.594-1.667h.56l-1.259,3.494h-.566l-1.279-3.494Z" fill="#44a975"/>
    <path d="M675.061,328.443c0-1.055.778-1.826,1.846-1.826,1.002,0,1.8.659,1.807,1.806,0,.092-.007.158-.014.218h-3.111c.086.738.673,1.16,1.325,1.16.515,0,.976-.191,1.278-.64l.409.277c-.422.606-1.015.831-1.688.831-.995,0-1.853-.686-1.853-1.826ZM678.206,328.193c-.092-.738-.626-1.107-1.299-1.107-.705,0-1.213.448-1.312,1.107h2.61Z" fill="#44a975"/>
    <path d="M679.662,326.697h.501l.014.514c.236-.336.6-.547,1.034-.547.053,0,.093,0,.151.006v.507c-.065-.006-.111-.006-.171-.006-.62,0-1.002.416-1.002,1.048v1.971h-.527v-3.494Z" fill="#44a975"/>
    <path d="M682.594,329.169v-2.018h-.58v-.448h.271c.323,0,.376-.053.376-.408v-.343h.441v.745h.817v.455h-.798v1.998c0,.481.145.606.561.606.079,0,.158-.006.237-.02v.481c-.112.013-.231.026-.343.026-.673,0-.982-.356-.982-1.074Z" fill="#44a975"/>
    <path d="M684.762,325.78c0-.197.139-.329.356-.329.211,0,.356.132.356.329,0,.191-.146.323-.356.323-.218,0-.356-.132-.356-.323ZM684.855,326.697h.527v3.494h-.527v-3.494Z" fill="#44a975"/>
    <path d="M686.324,329.313l.468-.158c.139.442.455.666.844.666.409,0,.68-.23.68-.554,0-.389-.343-.481-.805-.633-.626-.218-1.048-.468-1.048-1.055,0-.567.475-.962,1.141-.962.566,0,1.015.303,1.173.824l-.448.158c-.112-.329-.382-.534-.731-.534-.369,0-.633.198-.633.495,0,.355.264.475.738.626.64.204,1.127.461,1.127,1.088,0,.586-.501.995-1.199.995-.652,0-1.121-.336-1.306-.956Z" fill="#44a975"/>
    <path d="M689.664,325.78c0-.197.139-.329.356-.329.211,0,.356.132.356.329,0,.191-.146.323-.356.323-.218,0-.356-.132-.356-.323ZM689.757,326.697h.527v3.494h-.527v-3.494Z" fill="#44a975"/>
    <path d="M692.955,327.092c-.521,0-.93.448-.93,1.028v2.07h-.527v-3.494h.515l.006.481c.258-.355.652-.56,1.074-.56.713,0,1.207.521,1.207,1.332v2.241h-.527v-2.202c0-.554-.304-.896-.817-.896Z" fill="#44a975"/>
    <path d="M695.294,330.869l.303-.415c.455.396.949.587,1.477.587.817,0,1.332-.488,1.332-1.272v-.271c-.323.389-.817.626-1.392.626-1.027,0-1.786-.738-1.786-1.747,0-1.016.759-1.76,1.786-1.76.58,0,1.082.244,1.404.646l.007-.567h.508v3.052c0,1.094-.731,1.773-1.866,1.773-.619,0-1.226-.198-1.772-.653ZM698.406,328.378c0-.732-.567-1.292-1.332-1.292s-1.325.547-1.325,1.292c0,.738.561,1.292,1.325,1.292s1.332-.554,1.332-1.292Z" fill="#44a975"/>
    <path d="M701.786,327.889c0-1.377,1.035-2.393,2.373-2.393.949,0,1.733.494,2.115,1.305l-.487.211c-.297-.626-.877-.996-1.628-.996-1.035,0-1.819.785-1.819,1.872,0,1.068.784,1.859,1.819,1.859.771,0,1.338-.369,1.635-1.016l.494.211c-.402.884-1.193,1.325-2.129,1.325-1.338,0-2.373-1.009-2.373-2.38Z" fill="#44a975"/>
    <path d="M708.323,330.269c-.758,0-1.305-.481-1.305-1.187,0-.686.547-1.167,1.312-1.167.408,0,.751.139.981.369v-.362c0-.521-.355-.831-.883-.831-.383,0-.731.145-1.068.369l-.23-.435c.422-.277.87-.409,1.306-.409.851,0,1.403.501,1.403,1.318v2.254h-.468l-.032-.33c-.238.257-.594.409-1.016.409ZM709.311,329.083c0-.448-.355-.731-.89-.731s-.883.283-.883.731.349.738.883.738.89-.29.89-.738Z" fill="#44a975"/>
    <path d="M711.018,326.697h.501l.02.448c.244-.349.613-.527.976-.527.409,0,.805.224.996.666.224-.435.646-.666,1.074-.666.573,0,1.12.422,1.12,1.279v2.294h-.527v-2.268c0-.521-.296-.831-.712-.831-.48,0-.844.416-.844.929v2.169h-.521v-2.268c0-.521-.304-.831-.719-.831-.475,0-.837.416-.837.929v2.169h-.527v-3.494Z" fill="#44a975"/>
    <path d="M717.412,329.623v1.819h-.527v-4.746h.508l.007.586c.322-.415.823-.666,1.396-.666,1.029,0,1.787.771,1.787,1.833,0,1.048-.758,1.819-1.787,1.819-.573,0-1.061-.244-1.384-.646ZM720.061,328.45c0-.778-.566-1.352-1.338-1.352s-1.338.574-1.338,1.352c0,.771.566,1.338,1.338,1.338s1.338-.566,1.338-1.338Z" fill="#44a975"/>
    <path d="M722.664,330.269c-.758,0-1.306-.481-1.306-1.187,0-.686.548-1.167,1.312-1.167.408,0,.751.139.982.369v-.362c0-.521-.356-.831-.884-.831-.382,0-.731.145-1.067.369l-.231-.435c.422-.277.87-.409,1.306-.409.85,0,1.404.501,1.404,1.318v2.254h-.469l-.033-.33c-.236.257-.593.409-1.015.409ZM723.653,329.083c0-.448-.356-.731-.891-.731s-.883.283-.883.731.35.738.883.738.891-.29.891-.738Z" fill="#44a975"/>
    <path d="M725.266,325.78c0-.197.139-.329.356-.329.211,0,.356.132.356.329,0,.191-.146.323-.356.323-.218,0-.356-.132-.356-.323ZM725.359,326.697h.527v3.494h-.527v-3.494Z" fill="#44a975"/>
    <path d="M726.921,330.869l.303-.415c.455.396.949.587,1.477.587.817,0,1.332-.488,1.332-1.272v-.271c-.323.389-.817.626-1.392.626-1.027,0-1.786-.738-1.786-1.747,0-1.016.759-1.76,1.786-1.76.58,0,1.082.244,1.404.646l.007-.567h.508v3.052c0,1.094-.731,1.773-1.866,1.773-.619,0-1.226-.198-1.772-.653ZM730.033,328.378c0-.732-.567-1.292-1.332-1.292s-1.325.547-1.325,1.292c0,.738.561,1.292,1.325,1.292s1.332-.554,1.332-1.292Z" fill="#44a975"/>
    <path d="M733.229,327.092c-.521,0-.93.448-.93,1.028v2.07h-.527v-3.494h.514l.007.481c.257-.355.653-.56,1.075-.56.711,0,1.206.521,1.206,1.332v2.241h-.527v-2.202c0-.554-.304-.896-.817-.896Z" fill="#44a975"/>
    <path d="M735.475,329.313l.469-.158c.138.442.454.666.844.666.408,0,.679-.23.679-.554,0-.389-.343-.481-.805-.633-.626-.218-1.048-.468-1.048-1.055,0-.567.475-.962,1.141-.962.566,0,1.015.303,1.173.824l-.448.158c-.111-.329-.382-.534-.731-.534-.369,0-.633.198-.633.495,0,.355.264.475.738.626.64.204,1.127.461,1.127,1.088,0,.586-.501.995-1.199.995-.653,0-1.121-.336-1.306-.956Z" fill="#44a975"/>
    <path d="M741.032,328.259c0-.29.211-.501.5-.501.284,0,.495.211.495.501s-.211.501-.495.501c-.289,0-.5-.211-.5-.501Z" fill="#44a975"/>
    <path d="M745.42,325.576h1.305c.923,0,1.556.6,1.556,1.463s-.633,1.45-1.556,1.45h-.751v1.701h-.554v-4.614ZM746.686,327.968c.646,0,1.048-.349,1.048-.929s-.402-.943-1.048-.943h-.712v1.872h.712Z" fill="#44a975"/>
    <path d="M749.203,326.697h.501l.014.514c.236-.336.6-.547,1.034-.547.053,0,.093,0,.151.006v.507c-.065-.006-.111-.006-.171-.006-.62,0-1.002.416-1.002,1.048v1.971h-.527v-3.494Z" fill="#44a975"/>
    <path d="M751.694,325.78c0-.197.139-.329.356-.329.211,0,.356.132.356.329,0,.191-.146.323-.356.323-.218,0-.356-.132-.356-.323ZM751.787,326.697h.527v3.494h-.527v-3.494Z" fill="#44a975"/>
    <path d="M754.977,327.092c-.521,0-.93.448-.93,1.028v2.07h-.527v-3.494h.514l.007.481c.257-.355.653-.56,1.075-.56.711,0,1.206.521,1.206,1.332v2.241h-.527v-2.202c0-.554-.304-.896-.817-.896Z" fill="#44a975"/>
    <path d="M757.639,329.169v-2.018h-.58v-.448h.271c.323,0,.376-.053.376-.408v-.343h.441v.745h.817v.455h-.798v1.998c0,.481.145.606.561.606.079,0,.158-.006.237-.02v.481c-.112.013-.231.026-.343.026-.673,0-.982-.356-.982-1.074Z" fill="#44a975"/>
    <path d="M761.831,325.576h1.47c1.345,0,2.234.936,2.234,2.301,0,1.384-.89,2.313-2.234,2.313h-1.47v-4.614ZM763.274,329.663c1.048,0,1.714-.692,1.714-1.786,0-1.081-.666-1.773-1.714-1.773h-.89v3.56h.89Z" fill="#44a975"/>
    <path d="M766.377,328.443c0-1.055.778-1.826,1.846-1.826,1.002,0,1.8.659,1.807,1.806,0,.092-.007.158-.014.218h-3.111c.086.738.673,1.16,1.325,1.16.515,0,.976-.191,1.278-.64l.409.277c-.422.606-1.015.831-1.688.831-.995,0-1.853-.686-1.853-1.826ZM769.522,328.193c-.092-.738-.626-1.107-1.299-1.107-.705,0-1.213.448-1.312,1.107h2.61Z" fill="#44a975"/>
    <path d="M770.707,329.313l.469-.158c.138.442.454.666.844.666.408,0,.679-.23.679-.554,0-.389-.343-.481-.805-.633-.626-.218-1.048-.468-1.048-1.055,0-.567.475-.962,1.141-.962.566,0,1.015.303,1.173.824l-.448.158c-.111-.329-.382-.534-.731-.534-.369,0-.633.198-.633.495,0,.355.264.475.738.626.64.204,1.127.461,1.127,1.088,0,.586-.501.995-1.199.995-.653,0-1.121-.336-1.306-.956Z" fill="#44a975"/>
    <path d="M774.049,325.78c0-.197.138-.329.355-.329.211,0,.355.132.355.329,0,.191-.145.323-.355.323-.218,0-.355-.132-.355-.323ZM774.141,326.697h.527v3.494h-.527v-3.494Z" fill="#44a975"/>
    <path d="M775.704,330.869l.303-.415c.455.396.949.587,1.477.587.817,0,1.332-.488,1.332-1.272v-.271c-.323.389-.817.626-1.391.626-1.029,0-1.787-.738-1.787-1.747,0-1.016.758-1.76,1.787-1.76.58,0,1.08.244,1.403.646l.007-.567h.508v3.052c0,1.094-.732,1.773-1.865,1.773-.62,0-1.227-.198-1.773-.653ZM778.815,328.378c0-.732-.567-1.292-1.332-1.292s-1.324.547-1.324,1.292c0,.738.56,1.292,1.324,1.292s1.332-.554,1.332-1.292Z" fill="#44a975"/>
    <path d="M782.01,327.092c-.521,0-.93.448-.93,1.028v2.07h-.527v-3.494h.514l.007.481c.257-.355.653-.56,1.075-.56.711,0,1.206.521,1.206,1.332v2.241h-.527v-2.202c0-.554-.304-.896-.817-.896Z" fill="#44a975"/>
  </g>
</svg>