<?xml version="1.0" encoding="UTF-8"?>
<svg id="Layer_1" data-name="Layer 1" xmlns="http://www.w3.org/2000/svg" viewBox="0 0 804.173 346.945">
  <rect width="804.173" height="346.945" fill="#faf2f0"/>
  <g>
    <path d="M418.723,325.576h1.424c.777,0,1.364.501,1.364,1.193,0,.455-.244.837-.692,1.002.521.185.805.626.805,1.14,0,.732-.633,1.279-1.483,1.279h-1.417v-4.614ZM420.107,327.547c.515,0,.877-.31.877-.738,0-.448-.376-.731-.896-.731h-.811v1.47h.83ZM420.081,329.689c.574,0,.996-.33.996-.831,0-.488-.402-.831-.956-.831h-.844v1.661h.804Z" fill="#d6001c"/>
    <path d="M422.69,326.697h.501l.013.514c.238-.336.601-.547,1.035-.547.053,0,.093,0,.152.006v.507c-.066-.006-.112-.006-.172-.006-.619,0-1.002.416-1.002,1.048v1.971h-.527v-3.494Z" fill="#d6001c"/>
    <path d="M426.381,330.269c-.758,0-1.305-.481-1.305-1.187,0-.686.547-1.167,1.312-1.167.408,0,.751.139.981.369v-.362c0-.521-.355-.831-.883-.831-.383,0-.731.145-1.068.369l-.23-.435c.422-.277.87-.409,1.306-.409.851,0,1.403.501,1.403,1.318v2.254h-.468l-.032-.33c-.238.257-.594.409-1.016.409ZM427.37,329.083c0-.448-.355-.731-.89-.731s-.883.283-.883.731.349.738.883.738.89-.29.89-.738Z" fill="#d6001c"/>
    <path d="M430.534,327.092c-.521,0-.93.448-.93,1.028v2.07h-.527v-3.494h.514l.007.481c.257-.355.653-.56,1.075-.56.711,0,1.206.521,1.206,1.332v2.241h-.527v-2.202c0-.554-.304-.896-.817-.896Z" fill="#d6001c"/>
    <path d="M432.813,328.443c0-1.055.765-1.826,1.793-1.826.574,0,1.062.244,1.385.646v-1.853h.527v4.779h-.508l-.007-.587c-.323.416-.823.666-1.397.666-1.028,0-1.793-.771-1.793-1.826ZM436.017,328.443c0-.777-.567-1.345-1.345-1.345-.785,0-1.338.561-1.338,1.345,0,.791.553,1.352,1.338,1.352.777,0,1.345-.58,1.345-1.352Z" fill="#d6001c"/>
    <path d="M439.687,325.576h.554v4.614h-.554v-4.614Z" fill="#d6001c"/>
    <path d="M441.261,328.443c0-1.055.765-1.826,1.793-1.826.573,0,1.062.244,1.385.646v-1.853h.527v4.779h-.508l-.007-.587c-.322.416-.824.666-1.397.666-1.028,0-1.793-.771-1.793-1.826ZM444.465,328.443c0-.777-.567-1.345-1.345-1.345-.784,0-1.339.561-1.339,1.345,0,.791.555,1.352,1.339,1.352.777,0,1.345-.58,1.345-1.352Z" fill="#d6001c"/>
    <path d="M445.96,328.443c0-1.055.778-1.826,1.846-1.826,1.002,0,1.8.659,1.807,1.806,0,.092-.007.158-.014.218h-3.111c.086.738.673,1.16,1.325,1.16.514,0,.976-.191,1.279-.64l.408.277c-.422.606-1.016.831-1.688.831-.995,0-1.853-.686-1.853-1.826ZM449.105,328.193c-.093-.738-.626-1.107-1.299-1.107-.705,0-1.213.448-1.312,1.107h2.61Z" fill="#d6001c"/>
    <path d="M452.018,327.092c-.521,0-.93.448-.93,1.028v2.07h-.527v-3.494h.514l.007.481c.257-.355.653-.56,1.075-.56.711,0,1.206.521,1.206,1.332v2.241h-.527v-2.202c0-.554-.304-.896-.817-.896Z" fill="#d6001c"/>
    <path d="M454.779,329.169v-2.018h-.58v-.448h.271c.322,0,.375-.053.375-.408v-.343h.442v.745h.817v.455h-.798v1.998c0,.481.146.606.561.606.079,0,.158-.006.237-.02v.481c-.112.013-.23.026-.343.026-.673,0-.982-.356-.982-1.074Z" fill="#d6001c"/>
    <path d="M456.948,325.78c0-.197.138-.329.355-.329.211,0,.355.132.355.329,0,.191-.145.323-.355.323-.218,0-.355-.132-.355-.323ZM457.039,326.697h.527v3.494h-.527v-3.494Z" fill="#d6001c"/>
    <path d="M459.016,329.169v-2.018h-.58v-.448h.271c.323,0,.376-.053.376-.408v-.343h.441v.745h.817v.455h-.798v1.998c0,.481.145.606.561.606.079,0,.158-.006.237-.02v.481c-.112.013-.231.026-.343.026-.673,0-.982-.356-.982-1.074Z" fill="#d6001c"/>
    <path d="M462.173,329.92l-1.299-3.223h.561l.652,1.622.362,1.002,1.009-2.624h.567l-1.879,4.746h-.561l.587-1.523Z" fill="#d6001c"/>
    <path d="M466.952,328.259c0-.29.211-.501.5-.501.284,0,.495.211.495.501s-.211.501-.495.501c-.289,0-.5-.211-.5-.501Z" fill="#d6001c"/>
    <path d="M471.61,325.576h.495l1.259,3.236,1.272-3.236h.481l.547,4.614h-.561l-.383-3.395-1.291,3.144h-.139l-1.279-3.158-.382,3.408h-.567l.547-4.614Z" fill="#d6001c"/>
    <path d="M477.766,330.269c-.758,0-1.305-.481-1.305-1.187,0-.686.547-1.167,1.312-1.167.408,0,.751.139.981.369v-.362c0-.521-.355-.831-.883-.831-.383,0-.731.145-1.068.369l-.23-.435c.422-.277.87-.409,1.306-.409.851,0,1.403.501,1.403,1.318v2.254h-.468l-.032-.33c-.238.257-.594.409-1.016.409ZM478.754,329.083c0-.448-.355-.731-.89-.731s-.883.283-.883.731.349.738.883.738.89-.29.89-.738Z" fill="#d6001c"/>
    <path d="M480.461,326.697h.501l.013.514c.238-.336.601-.547,1.035-.547.053,0,.093,0,.152.006v.507c-.066-.006-.112-.006-.172-.006-.619,0-1.002.416-1.002,1.048v1.971h-.527v-3.494Z" fill="#d6001c"/>
    <path d="M483.064,325.411h.527v2.947l1.397-1.661h.606l-1.305,1.549,1.403,1.944h-.605l-1.141-1.602-.356.375v1.226h-.527v-4.779Z" fill="#d6001c"/>
    <path d="M486.188,328.443c0-1.055.778-1.826,1.846-1.826,1.002,0,1.8.659,1.807,1.806,0,.092-.007.158-.014.218h-3.111c.086.738.673,1.16,1.325,1.16.515,0,.976-.191,1.278-.64l.409.277c-.422.606-1.015.831-1.688.831-.995,0-1.853-.686-1.853-1.826ZM489.332,328.193c-.092-.738-.626-1.107-1.299-1.107-.705,0-1.213.448-1.312,1.107h2.61Z" fill="#d6001c"/>
    <path d="M491.026,329.169v-2.018h-.58v-.448h.271c.323,0,.376-.053.376-.408v-.343h.441v.745h.817v.455h-.798v1.998c0,.481.145.606.561.606.079,0,.158-.006.237-.02v.481c-.112.013-.231.026-.343.026-.673,0-.982-.356-.982-1.074Z" fill="#d6001c"/>
    <path d="M493.194,325.78c0-.197.139-.329.356-.329.211,0,.356.132.356.329,0,.191-.146.323-.356.323-.218,0-.356-.132-.356-.323ZM493.287,326.697h.527v3.494h-.527v-3.494Z" fill="#d6001c"/>
    <path d="M496.483,327.092c-.521,0-.93.448-.93,1.028v2.07h-.527v-3.494h.514l.007.481c.257-.355.653-.56,1.075-.56.711,0,1.206.521,1.206,1.332v2.241h-.527v-2.202c0-.554-.304-.896-.817-.896Z" fill="#d6001c"/>
    <path d="M498.829,330.869l.303-.415c.455.396.949.587,1.477.587.817,0,1.332-.488,1.332-1.272v-.271c-.323.389-.817.626-1.391.626-1.029,0-1.787-.738-1.787-1.747,0-1.016.758-1.76,1.787-1.76.58,0,1.08.244,1.403.646l.007-.567h.508v3.052c0,1.094-.732,1.773-1.865,1.773-.62,0-1.227-.198-1.773-.653ZM501.94,328.378c0-.732-.567-1.292-1.332-1.292s-1.324.547-1.324,1.292c0,.738.56,1.292,1.324,1.292s1.332-.554,1.332-1.292Z" fill="#d6001c"/>
    <path d="M505.314,328.971l.501-.145c.172.652.58.929,1.081.929.573,0,.949-.31.949-.758,0-.534-.455-.765-1.048-.949-.791-.257-1.312-.606-1.312-1.338,0-.712.587-1.213,1.431-1.213.692,0,1.266.389,1.47,1.153l-.5.125c-.172-.547-.534-.771-.956-.771-.541,0-.89.283-.89.705,0,.481.369.672.949.851.811.257,1.403.679,1.403,1.417,0,.771-.619,1.292-1.503,1.292-.744,0-1.377-.435-1.575-1.299Z" fill="#d6001c"/>
    <path d="M509.657,329.169v-2.018h-.58v-.448h.271c.323,0,.376-.053.376-.408v-.343h.441v.745h.817v.455h-.798v1.998c0,.481.145.606.561.606.079,0,.158-.006.237-.02v.481c-.112.013-.231.026-.343.026-.673,0-.982-.356-.982-1.074Z" fill="#d6001c"/>
    <path d="M511.917,326.697h.501l.014.514c.236-.336.6-.547,1.034-.547.053,0,.093,0,.151.006v.507c-.065-.006-.111-.006-.171-.006-.62,0-1.002.416-1.002,1.048v1.971h-.527v-3.494Z" fill="#d6001c"/>
    <path d="M515.608,330.269c-.758,0-1.305-.481-1.305-1.187,0-.686.547-1.167,1.312-1.167.408,0,.751.139.981.369v-.362c0-.521-.355-.831-.883-.831-.383,0-.731.145-1.068.369l-.23-.435c.422-.277.87-.409,1.306-.409.851,0,1.403.501,1.403,1.318v2.254h-.468l-.032-.33c-.238.257-.594.409-1.016.409ZM516.596,329.083c0-.448-.355-.731-.89-.731s-.883.283-.883.731.349.738.883.738.89-.29.89-.738Z" fill="#d6001c"/>
    <path d="M518.54,329.169v-2.018h-.58v-.448h.271c.322,0,.375-.053.375-.408v-.343h.442v.745h.817v.455h-.798v1.998c0,.481.146.606.561.606.079,0,.158-.006.237-.02v.481c-.112.013-.23.026-.343.026-.673,0-.982-.356-.982-1.074Z" fill="#d6001c"/>
    <path d="M520.557,328.443c0-1.055.778-1.826,1.846-1.826,1.002,0,1.8.659,1.807,1.806,0,.092-.007.158-.014.218h-3.111c.086.738.673,1.16,1.325,1.16.515,0,.976-.191,1.278-.64l.409.277c-.422.606-1.015.831-1.688.831-.995,0-1.853-.686-1.853-1.826ZM523.702,328.193c-.092-.738-.626-1.107-1.299-1.107-.705,0-1.213.448-1.312,1.107h2.61Z" fill="#d6001c"/>
    <path d="M524.98,330.869l.303-.415c.455.396.949.587,1.477.587.817,0,1.332-.488,1.332-1.272v-.271c-.323.389-.817.626-1.392.626-1.027,0-1.786-.738-1.786-1.747,0-1.016.759-1.76,1.786-1.76.58,0,1.082.244,1.404.646l.007-.567h.508v3.052c0,1.094-.731,1.773-1.866,1.773-.619,0-1.226-.198-1.772-.653ZM528.091,328.378c0-.732-.567-1.292-1.332-1.292s-1.325.547-1.325,1.292c0,.738.561,1.292,1.325,1.292s1.332-.554,1.332-1.292Z" fill="#d6001c"/>
    <path d="M530.726,329.92l-1.299-3.223h.561l.652,1.622.362,1.002,1.009-2.624h.567l-1.879,4.746h-.561l.587-1.523Z" fill="#d6001c"/>
    <path d="M535.504,328.259c0-.29.211-.501.5-.501.284,0,.495.211.495.501s-.211.501-.495.501c-.289,0-.5-.211-.5-.501Z" fill="#d6001c"/>
    <path d="M541.061,325.576h.547l1.668,4.614h-.58l-.363-1.055h-1.997l-.369,1.055h-.573l1.668-4.614ZM542.162,328.635l-.831-2.419-.824,2.419h1.655Z" fill="#d6001c"/>
    <path d="M543.794,328.443c0-1.055.765-1.826,1.793-1.826.573,0,1.062.244,1.385.646v-1.853h.527v4.779h-.508l-.007-.587c-.322.416-.824.666-1.397.666-1.028,0-1.793-.771-1.793-1.826ZM546.998,328.443c0-.777-.567-1.345-1.345-1.345-.784,0-1.339.561-1.339,1.345,0,.791.555,1.352,1.339,1.352.777,0,1.345-.58,1.345-1.352Z" fill="#d6001c"/>
    <path d="M548.316,326.697h.561l.6,1.667.402,1.299.389-1.299.593-1.667h.561l-1.259,3.494h-.567l-1.278-3.494Z" fill="#d6001c"/>
    <path d="M551.966,328.443c0-1.055.778-1.826,1.846-1.826,1.002,0,1.8.659,1.807,1.806,0,.092-.007.158-.014.218h-3.111c.086.738.673,1.16,1.325,1.16.514,0,.976-.191,1.279-.64l.408.277c-.422.606-1.016.831-1.688.831-.995,0-1.853-.686-1.853-1.826ZM555.111,328.193c-.093-.738-.626-1.107-1.299-1.107-.705,0-1.213.448-1.312,1.107h2.61Z" fill="#d6001c"/>
    <path d="M556.567,326.697h.501l.013.514c.238-.336.601-.547,1.035-.547.053,0,.093,0,.152.006v.507c-.066-.006-.112-.006-.172-.006-.619,0-1.002.416-1.002,1.048v1.971h-.527v-3.494Z" fill="#d6001c"/>
    <path d="M559.388,329.169v-2.018h-.58v-.448h.271c.322,0,.375-.053.375-.408v-.343h.442v.745h.817v.455h-.798v1.998c0,.481.146.606.561.606.079,0,.158-.006.237-.02v.481c-.112.013-.23.026-.343.026-.673,0-.982-.356-.982-1.074Z" fill="#d6001c"/>
    <path d="M561.555,325.78c0-.197.139-.329.356-.329.211,0,.356.132.356.329,0,.191-.146.323-.356.323-.218,0-.356-.132-.356-.323ZM561.648,326.697h.527v3.494h-.527v-3.494Z" fill="#d6001c"/>
    <path d="M563.118,329.313l.469-.158c.138.442.454.666.844.666.408,0,.679-.23.679-.554,0-.389-.343-.481-.805-.633-.626-.218-1.048-.468-1.048-1.055,0-.567.475-.962,1.141-.962.566,0,1.015.303,1.173.824l-.448.158c-.111-.329-.382-.534-.731-.534-.369,0-.633.198-.633.495,0,.355.264.475.738.626.64.204,1.127.461,1.127,1.088,0,.586-.501.995-1.199.995-.653,0-1.121-.336-1.306-.956Z" fill="#d6001c"/>
    <path d="M566.465,325.78c0-.197.139-.329.356-.329.211,0,.356.132.356.329,0,.191-.146.323-.356.323-.218,0-.356-.132-.356-.323ZM566.558,326.697h.527v3.494h-.527v-3.494Z" fill="#d6001c"/>
    <path d="M569.755,327.092c-.521,0-.93.448-.93,1.028v2.07h-.527v-3.494h.515l.006.481c.258-.355.652-.56,1.074-.56.713,0,1.207.521,1.207,1.332v2.241h-.527v-2.202c0-.554-.304-.896-.817-.896Z" fill="#d6001c"/>
    <path d="M572.101,330.869l.303-.415c.455.396.949.587,1.477.587.817,0,1.332-.488,1.332-1.272v-.271c-.323.389-.817.626-1.392.626-1.027,0-1.786-.738-1.786-1.747,0-1.016.759-1.76,1.786-1.76.58,0,1.082.244,1.404.646l.007-.567h.508v3.052c0,1.094-.731,1.773-1.866,1.773-.619,0-1.226-.198-1.772-.653ZM575.212,328.378c0-.732-.567-1.292-1.332-1.292s-1.325.547-1.325,1.292c0,.738.561,1.292,1.325,1.292s1.332-.554,1.332-1.292Z" fill="#d6001c"/>
    <path d="M578.592,327.889c0-1.377,1.035-2.393,2.373-2.393.949,0,1.733.494,2.115,1.305l-.487.211c-.297-.626-.877-.996-1.628-.996-1.035,0-1.819.785-1.819,1.872,0,1.068.784,1.859,1.819,1.859.771,0,1.338-.369,1.635-1.016l.494.211c-.402.884-1.193,1.325-2.129,1.325-1.338,0-2.373-1.009-2.373-2.38Z" fill="#d6001c"/>
    <path d="M585.13,330.269c-.758,0-1.306-.481-1.306-1.187,0-.686.548-1.167,1.312-1.167.408,0,.751.139.982.369v-.362c0-.521-.356-.831-.884-.831-.382,0-.731.145-1.067.369l-.231-.435c.422-.277.87-.409,1.306-.409.85,0,1.404.501,1.404,1.318v2.254h-.469l-.033-.33c-.236.257-.593.409-1.015.409ZM586.12,329.083c0-.448-.356-.731-.891-.731s-.883.283-.883.731.35.738.883.738.891-.29.891-.738Z" fill="#d6001c"/>
    <path d="M587.826,326.697h.501l.02.448c.244-.349.613-.527.976-.527.409,0,.805.224.995.666.225-.435.646-.666,1.075-.666.573,0,1.12.422,1.12,1.279v2.294h-.527v-2.268c0-.521-.297-.831-.712-.831-.481,0-.844.416-.844.929v2.169h-.521v-2.268c0-.521-.303-.831-.719-.831-.475,0-.837.416-.837.929v2.169h-.527v-3.494Z" fill="#d6001c"/>
    <path d="M594.218,329.623v1.819h-.527v-4.746h.508l.007.586c.322-.415.823-.666,1.396-.666,1.029,0,1.787.771,1.787,1.833,0,1.048-.758,1.819-1.787,1.819-.573,0-1.061-.244-1.384-.646ZM596.868,328.45c0-.778-.566-1.352-1.338-1.352s-1.338.574-1.338,1.352c0,.771.566,1.338,1.338,1.338s1.338-.566,1.338-1.338Z" fill="#d6001c"/>
    <path d="M599.471,330.269c-.758,0-1.305-.481-1.305-1.187,0-.686.547-1.167,1.312-1.167.408,0,.751.139.981.369v-.362c0-.521-.355-.831-.883-.831-.383,0-.731.145-1.068.369l-.23-.435c.422-.277.87-.409,1.306-.409.851,0,1.403.501,1.403,1.318v2.254h-.468l-.032-.33c-.238.257-.594.409-1.016.409ZM600.459,329.083c0-.448-.355-.731-.89-.731s-.883.283-.883.731.349.738.883.738.89-.29.89-.738Z" fill="#d6001c"/>
    <path d="M602.073,325.78c0-.197.139-.329.356-.329.211,0,.356.132.356.329,0,.191-.146.323-.356.323-.218,0-.356-.132-.356-.323ZM602.165,326.697h.527v3.494h-.527v-3.494Z" fill="#d6001c"/>
    <path d="M603.728,330.869l.303-.415c.455.396.949.587,1.477.587.817,0,1.332-.488,1.332-1.272v-.271c-.323.389-.817.626-1.392.626-1.027,0-1.786-.738-1.786-1.747,0-1.016.759-1.76,1.786-1.76.58,0,1.082.244,1.404.646l.007-.567h.508v3.052c0,1.094-.731,1.773-1.866,1.773-.619,0-1.226-.198-1.772-.653ZM606.839,328.378c0-.732-.567-1.292-1.332-1.292s-1.325.547-1.325,1.292c0,.738.561,1.292,1.325,1.292s1.332-.554,1.332-1.292Z" fill="#d6001c"/>
    <path d="M610.036,327.092c-.521,0-.93.448-.93,1.028v2.07h-.527v-3.494h.514l.007.481c.257-.355.653-.56,1.075-.56.711,0,1.206.521,1.206,1.332v2.241h-.527v-2.202c0-.554-.304-.896-.817-.896Z" fill="#d6001c"/>
    <path d="M612.289,329.313l.468-.158c.139.442.455.666.844.666.409,0,.68-.23.68-.554,0-.389-.343-.481-.805-.633-.626-.218-1.048-.468-1.048-1.055,0-.567.475-.962,1.141-.962.566,0,1.015.303,1.173.824l-.448.158c-.112-.329-.382-.534-.731-.534-.369,0-.633.198-.633.495,0,.355.264.475.738.626.64.204,1.127.461,1.127,1.088,0,.586-.501.995-1.199.995-.652,0-1.121-.336-1.306-.956Z" fill="#d6001c"/>
    <path d="M617.852,328.259c0-.29.211-.501.5-.501.284,0,.495.211.495.501s-.211.501-.495.501c-.289,0-.5-.211-.5-.501Z" fill="#d6001c"/>
    <path d="M627.474,325.576l-1.232,4.614h-.521l-.613-2.004-.461-1.536-.455,1.536-.62,2.004h-.514l-1.239-4.614h.573l.554,2.09.383,1.647,1.101-3.639h.435l.594,1.971.514,1.681.376-1.661.554-2.09h.573Z" fill="#d6001c"/>
    <path d="M628.08,328.443c0-1.055.778-1.826,1.846-1.826,1.002,0,1.8.659,1.807,1.806,0,.092-.007.158-.014.218h-3.111c.086.738.673,1.16,1.325,1.16.514,0,.976-.191,1.279-.64l.408.277c-.422.606-1.016.831-1.688.831-.995,0-1.853-.686-1.853-1.826ZM631.224,328.193c-.093-.738-.626-1.107-1.299-1.107-.705,0-1.213.448-1.312,1.107h2.61Z" fill="#d6001c"/>
    <path d="M633.219,329.603l-.006.587h-.515v-4.779h.527v1.866c.323-.409.817-.659,1.392-.659,1.027,0,1.786.771,1.786,1.826s-.759,1.826-1.786,1.826c-.58,0-1.082-.25-1.398-.666ZM635.883,328.443c0-.784-.555-1.345-1.339-1.345-.771,0-1.338.567-1.338,1.345,0,.771.567,1.352,1.338,1.352.784,0,1.339-.561,1.339-1.352Z" fill="#d6001c"/>
    <path d="M637.108,329.313l.469-.158c.138.442.454.666.844.666.408,0,.679-.23.679-.554,0-.389-.343-.481-.805-.633-.626-.218-1.048-.468-1.048-1.055,0-.567.475-.962,1.141-.962.566,0,1.015.303,1.173.824l-.448.158c-.111-.329-.382-.534-.731-.534-.369,0-.633.198-.633.495,0,.355.264.475.738.626.64.204,1.127.461,1.127,1.088,0,.586-.501.995-1.199.995-.653,0-1.121-.336-1.306-.956Z" fill="#d6001c"/>
    <path d="M640.456,325.78c0-.197.139-.329.356-.329.211,0,.356.132.356.329,0,.191-.146.323-.356.323-.218,0-.356-.132-.356-.323ZM640.548,326.697h.527v3.494h-.527v-3.494Z" fill="#d6001c"/>
    <path d="M642.526,329.169v-2.018h-.58v-.448h.271c.323,0,.376-.053.376-.408v-.343h.441v.745h.817v.455h-.798v1.998c0,.481.145.606.561.606.079,0,.158-.006.237-.02v.481c-.112.013-.231.026-.343.026-.673,0-.982-.356-.982-1.074Z" fill="#d6001c"/>
    <path d="M644.541,328.443c0-1.055.778-1.826,1.846-1.826,1.002,0,1.8.659,1.807,1.806,0,.092-.007.158-.014.218h-3.111c.086.738.673,1.16,1.325,1.16.515,0,.976-.191,1.278-.64l.409.277c-.422.606-1.015.831-1.688.831-.995,0-1.853-.686-1.853-1.826ZM647.686,328.193c-.092-.738-.626-1.107-1.299-1.107-.705,0-1.213.448-1.312,1.107h2.61Z" fill="#d6001c"/>
    <path d="M651.074,325.576h1.47c1.345,0,2.234.936,2.234,2.301,0,1.384-.89,2.313-2.234,2.313h-1.47v-4.614ZM652.517,329.663c1.048,0,1.714-.692,1.714-1.786,0-1.081-.666-1.773-1.714-1.773h-.89v3.56h.89Z" fill="#d6001c"/>
    <path d="M655.515,328.443c0-1.055.778-1.826,1.846-1.826,1.002,0,1.8.659,1.807,1.806,0,.092-.007.158-.014.218h-3.111c.086.738.673,1.16,1.325,1.16.514,0,.976-.191,1.279-.64l.408.277c-.422.606-1.016.831-1.688.831-.995,0-1.853-.686-1.853-1.826ZM658.66,328.193c-.093-.738-.626-1.107-1.299-1.107-.705,0-1.213.448-1.312,1.107h2.61Z" fill="#d6001c"/>
    <path d="M659.844,329.313l.469-.158c.138.442.454.666.844.666.408,0,.679-.23.679-.554,0-.389-.343-.481-.805-.633-.626-.218-1.048-.468-1.048-1.055,0-.567.475-.962,1.141-.962.566,0,1.015.303,1.173.824l-.448.158c-.111-.329-.382-.534-.731-.534-.369,0-.633.198-.633.495,0,.355.264.475.738.626.64.204,1.127.461,1.127,1.088,0,.586-.501.995-1.199.995-.653,0-1.121-.336-1.306-.956Z" fill="#d6001c"/>
    <path d="M663.194,325.78c0-.197.138-.329.355-.329.211,0,.355.132.355.329,0,.191-.145.323-.355.323-.218,0-.355-.132-.355-.323ZM663.286,326.697h.527v3.494h-.527v-3.494Z" fill="#d6001c"/>
    <path d="M664.847,330.869l.303-.415c.455.396.949.587,1.477.587.817,0,1.332-.488,1.332-1.272v-.271c-.323.389-.817.626-1.392.626-1.027,0-1.786-.738-1.786-1.747,0-1.016.759-1.76,1.786-1.76.58,0,1.082.244,1.404.646l.007-.567h.508v3.052c0,1.094-.731,1.773-1.866,1.773-.619,0-1.226-.198-1.772-.653ZM667.958,328.378c0-.732-.567-1.292-1.332-1.292s-1.325.547-1.325,1.292c0,.738.561,1.292,1.325,1.292s1.332-.554,1.332-1.292Z" fill="#d6001c"/>
    <path d="M671.155,327.092c-.521,0-.93.448-.93,1.028v2.07h-.527v-3.494h.514l.007.481c.257-.355.653-.56,1.075-.56.711,0,1.206.521,1.206,1.332v2.241h-.527v-2.202c0-.554-.304-.896-.817-.896Z" fill="#d6001c"/>
    <path d="M675.801,328.259c0-.29.211-.501.5-.501.284,0,.495.211.495.501s-.211.501-.495.501c-.289,0-.5-.211-.5-.501Z" fill="#d6001c"/>
    <path d="M680.19,325.576h1.305c.923,0,1.556.6,1.556,1.463s-.633,1.45-1.556,1.45h-.751v1.701h-.554v-4.614ZM681.456,327.969c.646,0,1.048-.349,1.048-.929s-.402-.943-1.048-.943h-.712v1.872h.712Z" fill="#d6001c"/>
    <path d="M685.139,330.269c-.758,0-1.305-.481-1.305-1.187,0-.686.547-1.167,1.312-1.167.408,0,.751.139.981.369v-.362c0-.521-.355-.831-.883-.831-.383,0-.731.145-1.068.369l-.23-.435c.422-.277.87-.409,1.306-.409.851,0,1.403.501,1.403,1.318v2.254h-.468l-.032-.33c-.238.257-.594.409-1.016.409ZM686.127,329.083c0-.448-.355-.731-.89-.731s-.883.283-.883.731.349.738.883.738.89-.29.89-.738Z" fill="#d6001c"/>
    <path d="M687.59,328.45c0-1.055.791-1.833,1.846-1.833.752,0,1.345.349,1.648.969l-.462.204c-.224-.435-.633-.692-1.187-.692-.751,0-1.324.567-1.324,1.352,0,.771.573,1.338,1.324,1.338.561,0,.976-.257,1.2-.718l.481.205c-.297.626-.917.995-1.682.995-1.048,0-1.846-.771-1.846-1.819Z" fill="#d6001c"/>
    <path d="M692.072,325.411h.527v2.947l1.397-1.661h.606l-1.305,1.549,1.403,1.944h-.605l-1.141-1.602-.356.375v1.226h-.527v-4.779Z" fill="#d6001c"/>
    <path d="M696.547,330.269c-.758,0-1.305-.481-1.305-1.187,0-.686.547-1.167,1.312-1.167.408,0,.751.139.981.369v-.362c0-.521-.355-.831-.883-.831-.383,0-.731.145-1.068.369l-.23-.435c.422-.277.87-.409,1.306-.409.851,0,1.403.501,1.403,1.318v2.254h-.468l-.032-.33c-.238.257-.594.409-1.016.409ZM697.536,329.083c0-.448-.355-.731-.89-.731s-.883.283-.883.731.349.738.883.738.89-.29.89-.738Z" fill="#d6001c"/>
    <path d="M699.065,330.869l.303-.415c.455.396.949.587,1.477.587.817,0,1.332-.488,1.332-1.272v-.271c-.323.389-.817.626-1.391.626-1.029,0-1.787-.738-1.787-1.747,0-1.016.758-1.76,1.787-1.76.58,0,1.08.244,1.403.646l.007-.567h.508v3.052c0,1.094-.732,1.773-1.865,1.773-.62,0-1.227-.198-1.773-.653ZM702.176,328.378c0-.732-.567-1.292-1.332-1.292s-1.324.547-1.324,1.292c0,.738.56,1.292,1.324,1.292s1.332-.554,1.332-1.292Z" fill="#d6001c"/>
    <path d="M703.823,325.78c0-.197.138-.329.355-.329.211,0,.355.132.355.329,0,.191-.145.323-.355.323-.218,0-.355-.132-.355-.323ZM703.914,326.697h.527v3.494h-.527v-3.494Z" fill="#d6001c"/>
    <path d="M707.112,327.092c-.521,0-.93.448-.93,1.028v2.07h-.527v-3.494h.514l.007.481c.257-.355.653-.56,1.075-.56.711,0,1.206.521,1.206,1.332v2.241h-.527v-2.202c0-.554-.304-.896-.817-.896Z" fill="#d6001c"/>
    <path d="M709.457,330.869l.303-.415c.455.396.949.587,1.477.587.817,0,1.332-.488,1.332-1.272v-.271c-.323.389-.817.626-1.391.626-1.029,0-1.787-.738-1.787-1.747,0-1.016.758-1.76,1.787-1.76.58,0,1.08.244,1.403.646l.007-.567h.508v3.052c0,1.094-.732,1.773-1.865,1.773-.62,0-1.227-.198-1.773-.653ZM712.569,328.378c0-.732-.567-1.292-1.332-1.292s-1.324.547-1.324,1.292c0,.738.56,1.292,1.324,1.292s1.332-.554,1.332-1.292Z" fill="#d6001c"/>
    <path d="M716.239,325.576h1.47c1.345,0,2.234.936,2.234,2.301,0,1.384-.89,2.313-2.234,2.313h-1.47v-4.614ZM717.682,329.663c1.048,0,1.714-.692,1.714-1.786,0-1.081-.666-1.773-1.714-1.773h-.89v3.56h.89Z" fill="#d6001c"/>
    <path d="M720.68,328.443c0-1.055.778-1.826,1.846-1.826,1.002,0,1.8.659,1.807,1.806,0,.092-.007.158-.014.218h-3.111c.086.738.673,1.16,1.325,1.16.515,0,.976-.191,1.278-.64l.409.277c-.422.606-1.015.831-1.688.831-.995,0-1.853-.686-1.853-1.826ZM723.825,328.193c-.092-.738-.626-1.107-1.299-1.107-.705,0-1.213.448-1.312,1.107h2.61Z" fill="#d6001c"/>
    <path d="M725.01,329.313l.469-.158c.138.442.454.666.844.666.408,0,.679-.23.679-.554,0-.389-.343-.481-.805-.633-.626-.218-1.048-.468-1.048-1.055,0-.567.475-.962,1.141-.962.566,0,1.015.303,1.173.824l-.448.158c-.111-.329-.382-.534-.731-.534-.369,0-.633.198-.633.495,0,.355.264.475.738.626.64.204,1.127.461,1.127,1.088,0,.586-.501.995-1.199.995-.653,0-1.121-.336-1.306-.956Z" fill="#d6001c"/>
    <path d="M728.358,325.78c0-.197.139-.329.356-.329.211,0,.356.132.356.329,0,.191-.146.323-.356.323-.218,0-.356-.132-.356-.323ZM728.451,326.697h.527v3.494h-.527v-3.494Z" fill="#d6001c"/>
    <path d="M730.013,330.869l.303-.415c.455.396.949.587,1.477.587.817,0,1.332-.488,1.332-1.272v-.271c-.323.389-.817.626-1.392.626-1.027,0-1.786-.738-1.786-1.747,0-1.016.759-1.76,1.786-1.76.58,0,1.082.244,1.404.646l.007-.567h.508v3.052c0,1.094-.731,1.773-1.866,1.773-.619,0-1.226-.198-1.772-.653ZM733.124,328.378c0-.732-.567-1.292-1.332-1.292s-1.325.547-1.325,1.292c0,.738.561,1.292,1.325,1.292s1.332-.554,1.332-1.292Z" fill="#d6001c"/>
    <path d="M736.321,327.092c-.521,0-.93.448-.93,1.028v2.07h-.527v-3.494h.514l.007.481c.257-.355.653-.56,1.075-.56.711,0,1.206.521,1.206,1.332v2.241h-.527v-2.202c0-.554-.304-.896-.817-.896Z" fill="#d6001c"/>
    <path d="M740.965,328.259c0-.29.211-.501.502-.501.283,0,.494.211.494.501s-.211.501-.494.501c-.291,0-.502-.211-.502-.501Z" fill="#d6001c"/>
    <path d="M745.355,325.576h1.305c.923,0,1.556.6,1.556,1.463s-.633,1.45-1.556,1.45h-.751v1.701h-.554v-4.614ZM746.621,327.969c.646,0,1.048-.349,1.048-.929s-.402-.943-1.048-.943h-.712v1.872h.712Z" fill="#d6001c"/>
    <path d="M749.198,326.697h.501l.013.514c.238-.336.601-.547,1.035-.547.053,0,.093,0,.152.006v.507c-.066-.006-.112-.006-.172-.006-.619,0-1.002.416-1.002,1.048v1.971h-.527v-3.494Z" fill="#d6001c"/>
    <path d="M751.688,325.78c0-.197.139-.329.356-.329.211,0,.356.132.356.329,0,.191-.146.323-.356.323-.218,0-.356-.132-.356-.323ZM751.781,326.697h.527v3.494h-.527v-3.494Z" fill="#d6001c"/>
    <path d="M754.978,327.092c-.521,0-.93.448-.93,1.028v2.07h-.527v-3.494h.515l.006.481c.258-.355.652-.56,1.074-.56.713,0,1.207.521,1.207,1.332v2.241h-.527v-2.202c0-.554-.304-.896-.817-.896Z" fill="#d6001c"/>
    <path d="M757.739,329.169v-2.018h-.58v-.448h.271c.323,0,.376-.053.376-.408v-.343h.441v.745h.817v.455h-.798v1.998c0,.481.145.606.561.606.079,0,.158-.006.237-.02v.481c-.112.013-.231.026-.343.026-.673,0-.982-.356-.982-1.074Z" fill="#d6001c"/>
    <path d="M761.93,325.576h1.47c1.345,0,2.234.936,2.234,2.301,0,1.384-.89,2.313-2.234,2.313h-1.47v-4.614ZM763.373,329.663c1.048,0,1.714-.692,1.714-1.786,0-1.081-.666-1.773-1.714-1.773h-.89v3.56h.89Z" fill="#d6001c"/>
    <path d="M766.372,328.443c0-1.055.778-1.826,1.846-1.826,1.002,0,1.8.659,1.807,1.806,0,.092-.007.158-.014.218h-3.111c.086.738.673,1.16,1.325,1.16.515,0,.976-.191,1.278-.64l.409.277c-.422.606-1.015.831-1.688.831-.995,0-1.853-.686-1.853-1.826ZM769.516,328.193c-.092-.738-.626-1.107-1.299-1.107-.705,0-1.213.448-1.312,1.107h2.61Z" fill="#d6001c"/>
    <path d="M770.702,329.313l.469-.158c.138.442.454.666.844.666.408,0,.679-.23.679-.554,0-.389-.343-.481-.805-.633-.626-.218-1.048-.468-1.048-1.055,0-.567.475-.962,1.141-.962.566,0,1.015.303,1.173.824l-.448.158c-.111-.329-.382-.534-.731-.534-.369,0-.633.198-.633.495,0,.355.264.475.738.626.64.204,1.127.461,1.127,1.088,0,.586-.501.995-1.199.995-.653,0-1.121-.336-1.306-.956Z" fill="#d6001c"/>
    <path d="M774.049,325.78c0-.197.139-.329.356-.329.211,0,.356.132.356.329,0,.191-.146.323-.356.323-.218,0-.356-.132-.356-.323ZM774.142,326.697h.527v3.494h-.527v-3.494Z" fill="#d6001c"/>
    <path d="M775.704,330.869l.303-.415c.455.396.949.587,1.477.587.817,0,1.332-.488,1.332-1.272v-.271c-.323.389-.817.626-1.391.626-1.029,0-1.787-.738-1.787-1.747,0-1.016.758-1.76,1.787-1.76.58,0,1.08.244,1.403.646l.007-.567h.508v3.052c0,1.094-.732,1.773-1.865,1.773-.62,0-1.227-.198-1.773-.653ZM778.815,328.378c0-.732-.567-1.292-1.332-1.292s-1.324.547-1.324,1.292c0,.738.56,1.292,1.324,1.292s1.332-.554,1.332-1.292Z" fill="#d6001c"/>
    <path d="M782.011,327.092c-.521,0-.93.448-.93,1.028v2.07h-.527v-3.494h.515l.006.481c.258-.355.652-.56,1.074-.56.713,0,1.207.521,1.207,1.332v2.241h-.527v-2.202c0-.554-.304-.896-.817-.896Z" fill="#d6001c"/>
  </g>
  <g>
    <path d="M544.144,241.443v-121.971c0-6.515-4.539-12.151-10.905-13.535-43.43-9.448-87.292-14.303-131.153-14.29-43.861-.013-87.723,4.842-131.153,14.29-6.365,1.385-10.904,7.021-10.904,13.535v121.971c0,8.785,8.072,15.349,16.673,13.561,41.544-8.641,83.464-13.075,125.385-13.062,41.92-.013,83.841,4.421,125.385,13.062,8.6,1.789,16.673-4.776,16.673-13.561" fill="#d6001c"/>
    <path d="M324.054,140.526c3.66,20.755,7.292,41.406,10.93,61.93-5.236.661-10.446,1.387-15.627,2.168,0,0-1.796-12.256-3.341-25.876-2.427.346-4.849.708-7.266,1.085-2.004,14.192-4.216,27.186-4.215,27.186-5.163.887-10.293,1.824-15.387,2.802,4.017-22.131,8.168-44.277,12.411-66.305,7.479-1.206,14.98-2.185,22.495-2.992M309.289,175.253c2.081-.318,4.165-.626,6.252-.921-.586-6.197-1.176-12.399-1.39-17.629-.487-3.139-.954-9.108-.945-10.265-.299.041-.599.08-.899.121-.009,1.156-.568,7.267-.975,10.536-.423,5.325-1.108,11.718-2.044,18.158" fill="#faf2f0"/>
    <path d="M356.873,200.104c-6.077.535-12.13,1.169-18.151,1.892.226-20.959.452-41.923.678-62.889,6.023-.473,12.051-.856,18.081-1.164,18.342-.843,22.306,8.262,22.187,29.851-.104,21.832-4.27,30.761-22.795,32.309M353.206,189.919c1.082-.095,2.165-.188,3.249-.278,6.374-.522,8.627-4.13,8.771-21.188.146-17.046-2.028-20.331-8.366-19.973-1.078.063-2.156.128-3.234.196-.14,13.749-.28,27.497-.42,41.244" fill="#faf2f0"/>
    <path d="M397.307,141.284c-.028,18.936-.057,37.885-.085,56.82-4.865.057-9.73.17-14.581.355.1-19.176.184-38.367.298-57.557,1.915,1.858,4.525,2.993,7.39,2.993,2.666,0,5.091-.979,6.978-2.61" fill="#faf2f0"/>
    <path d="M419.052,171.581c-1.217-.033-2.435-.062-3.653-.088.032,8.924.063,17.848.094,26.772-4.86-.131-9.726-.19-14.591-.179.007-20.408.013-40.817.02-61.227,6.94-.008,13.881.057,20.82.201,12.669.274,17.62,5.035,17.711,15.239.101,11.237-6.871,15.118-18.469,14.766.001.288.003.576.004.864,7.563,2.42,15.978,12.424,21.185,12.805.347.024.694.048,1.04.072.059,6.322.117,12.645.176,18.966-2.087-.168-4.176-.325-6.267-.469-14.543-.97-18.085-27.683-18.072-27.724M419.024,165.406c4.69.123,7.402-2.984,7.362-9.302-.032-4.951-2.253-7.873-6.791-7.972-1.426-.032-2.853-.058-4.279-.081.02,5.758.04,11.515.061,17.272,1.216.024,2.431.052,3.647.083" fill="#faf2f0"/>
    <path d="M447.3,200.104c-.202-20.719-.405-41.439-.608-62.16,4.781.244,9.561.535,14.338.881.225,20.914.451,41.825.676,62.734-4.785-.544-9.588-1.031-14.406-1.455" fill="#faf2f0"/>
    <path d="M499.639,207.02c-.074-13.182-.148-26.365-.222-39.547-.255-.04-.51-.081-.765-.121-2.028,8.901-4.042,17.801-6.048,26.684-1.524-.24-3.05-.474-4.579-.702-2.158-9.503-4.332-18.969-6.516-28.39-.256-.032-.513-.063-.77-.095.126,13.077.252,26.153.378,39.228-5.237-.761-10.504-1.462-15.794-2.096-.226-20.958-.452-41.921-.678-62.884,5.98.468,11.954,1.028,17.921,1.698,2.434,12.715,4.854,25.492,7.251,38.322.255.037.511.075.765.112,2.198-12.161,4.409-24.347,6.643-36.541,5.949.874,11.884,1.882,17.799,3.059v64.076c-5.093-.979-10.223-1.914-15.386-2.802" fill="#faf2f0"/>
    <path d="M390.332,140.804c-4.611,0-8.363-3.751-8.363-8.362s3.751-8.363,8.363-8.363,8.362,3.751,8.362,8.363-3.752,8.362-8.362,8.362" fill="#faf2f0"/>
  </g>
</svg>