<?xml version="1.0" encoding="UTF-8"?>
<svg id="Layer_1" data-name="Layer 1" xmlns="http://www.w3.org/2000/svg" viewBox="0 0 221.827 53.024">
  <path d="M23.684,10.114v19.745c0,4.552-3.198,7.689-7.135,7.689s-6.335-2.522-6.335-6.705V10.114H3.263v21.221c0,6.899,3.95,11.615,9.845,12.33.518.065,1.049.096,1.595.096.531,0,1.034-.036,1.504-.096,1.882-.237,3.253-.864,3.913-1.174,6.294-2.964,8.261-10.422,8.573-11.677-.249,1.761-.882,4.412-2.639,7.092-.646.984-1.331,1.803-1.979,2.474v2.639c2.187-.02,4.374-.04,6.559-.058V10.114h-6.95Z" fill="#1f3845"/>
  <path d="M55.02,10.266c-.13-.058-.261-.112-.394-.165-1.343-.531-2.84-.811-4.458-.811-1.839,0-3.335.423-4.353.811-.145.056-.282.111-.408.165-.263.11-.483.211-.654.292-6.294,2.964-8.262,10.422-8.574,11.679.249-1.763.883-4.414,2.639-7.092.645-.986,1.331-1.805,1.979-2.474v-2.639c-2.187.018-4.374.038-6.561.056v32.849h6.951v-19.747c0-4.552,3.2-7.689,7.137-7.689s6.335,2.522,6.335,6.705v20.731h6.95v-21.223c0-5.533-2.541-9.662-6.589-11.448" fill="#1f3845"/>
  <rect x="65.069" y="10.088" width="6.951" height="32.847" fill="#1f3845"/>
  <path d="M171.413,23.406c-3.998-1.23-5.905-2.276-5.905-4.861,0-2.091,1.907-3.505,4.676-3.505,2.644,0,4.613,1.599,5.474,4.183l5.905-1.906c-1.055-3.331-3.262-5.775-6.216-7.052-.132-.057-.264-.112-.399-.164-1.42-.553-3.002-.843-4.703-.843-1.836,0-3.515.295-4.986.843-.14.052-.28.107-.417.164-3.611,1.503-5.854,4.582-5.854,8.528,0,5.535,3.876,8.242,9.842,10.209,4.122,1.354,6.705,2.154,6.705,4.983,0,2.461-2.092,4.122-5.044,4.122-2.829,0-5.474-1.722-6.644-5.413l-6.089,1.906c1.268,4.101,3.728,6.895,7.218,8.241.15.057.301.112.455.164,1.474.504,3.124.761,4.936.761s3.469-.266,4.942-.761c.156-.052.31-.107.462-.164,3.937-1.492,6.407-4.69,6.407-8.856,0-5.905-4.306-8.611-10.765-10.579" fill="#1f3845"/>
  <path d="M190.763,23.652c1.107-5.106,5.105-8.428,10.64-8.428,5.414,0,9.412,2.954,10.396,8.428h-21.036ZM218.565,26.359c-.048-8.069-4.415-13.866-10.929-16.093-.166-.058-.335-.114-.504-.165-1.792-.554-3.736-.843-5.79-.843-2.032,0-3.953.294-5.726.843-.17.053-.34.107-.507.165-6.8,2.332-11.298,8.499-11.298,16.278,0,8.304,4.834,14.136,11.636,16.297.182.058.365.114.55.165,1.756.501,3.636.76,5.591.76,2.194,0,4.277-.229,6.221-.76.192-.051.383-.107.571-.165,3.594-1.105,6.697-3.287,9.139-7.01l-5.474-3.261c-2.459,3.692-6.028,5.229-10.394,5.229-5.352,0-9.966-3.198-10.951-8.796h27.743c.061-.737.122-1.476.122-2.644" fill="#1f3845"/>
  <path d="M109.196,23.652c1.107-5.106,5.105-8.428,10.64-8.428,5.414,0,9.412,2.954,10.396,8.428h-21.036ZM136.998,26.359c-.048-8.069-4.415-13.866-10.929-16.093-.166-.058-.335-.114-.504-.165-1.792-.554-3.736-.843-5.79-.843-2.032,0-3.953.294-5.726.843-.17.053-.34.107-.507.165-6.8,2.332-11.298,8.499-11.298,16.278,0,8.304,4.834,14.136,11.636,16.297.182.058.365.114.55.165,1.756.501,3.636.76,5.591.76,2.194,0,4.277-.229,6.221-.76.192-.051.383-.107.571-.165,3.594-1.105,6.697-3.287,9.139-7.01l-5.474-3.261c-2.459,3.692-6.028,5.229-10.394,5.229-5.352,0-9.966-3.198-10.95-8.796h27.742c.061-.737.122-1.476.122-2.644" fill="#1f3845"/>
  <path d="M86.585,42.936c1.29-4.374,1.29-9.028,0-13.403l-5.709-19.358-.029-.086h-7.382l11.442,32.847h1.678Z" fill="#1f3845"/>
  <polygon points="93.212 42.923 104.224 10.088 96.939 10.088 87.27 42.923 93.212 42.923" fill="#1f3845"/>
  <path d="M155.983,9.289c-1.839,0-3.335.424-4.354.811-.146.057-.282.111-.408.165-.264.111-.483.212-.655.292-6.294,2.964-8.261,10.423-8.573,11.68.249-1.764.882-4.414,2.639-7.093.645-.986,1.331-1.804,1.979-2.474v-2.639c-2.187.018-4.374.038-6.561.056v32.849h6.952v-19.746c0-4.552,3.198-7.689,7.135-7.689,1.046,0,1.981.179,2.794.519v-6.695c-.311-.021-.626-.036-.948-.036" fill="#1f3845"/>
</svg>